<svg width="912" height="82" viewBox="0 0 912 82" fill="none" xmlns="http://www.w3.org/2000/svg">
<path d="M15.78 1.97003V23.39H27.8601V1.97003H43.0701V63.2H27.8601V38.09H15.78V63.2H0.550049V1.97003H15.78Z" fill="#FBB044"/>
<path d="M98.4399 63.2H84.4199V43.25C84.4199 39.75 83.6 37.07 81.97 35.21C80.35 33.34 77.87 32.41 74.54 32.41C73.26 32.41 72.0401 32.66 70.8701 33.16C69.7001 33.64 68.6801 34.3 67.8101 35.12C66.9301 35.93 66.23 36.91 65.71 38.04C65.18 39.18 64.9199 40.39 64.9199 41.68C64.9199 44.66 65.8101 47.03 67.5801 48.81C69.3701 50.59 71.6 51.47 74.28 51.47C75.55 51.47 76.7401 51.35 77.8501 51.12C78.9701 50.89 79.9999 50.6 80.9299 50.26V61.8C79.5899 62.73 78.1599 63.37 76.6299 63.72C75.1199 64.08 73.39 64.26 71.47 64.26C68.85 64.26 66.3001 63.72 63.8101 62.65C61.3301 61.56 59.14 60.05 57.25 58.09C55.36 56.13 53.8399 53.79 52.6699 51.08C51.4999 48.37 50.9199 45.36 50.9199 42.04C50.9199 38.72 51.4999 35.94 52.6699 33.23C53.8399 30.52 55.44 28.16 57.48 26.15C59.52 24.14 61.9701 22.55 64.8201 21.38C67.6801 20.21 70.84 19.63 74.28 19.63C77.95 19.63 81.28 20.14 84.26 21.17C87.23 22.19 89.7699 23.59 91.8799 25.4C93.9799 27.21 95.6 29.36 96.74 31.85C97.87 34.33 98.45 37.02 98.45 39.93V63.2H98.4399Z" fill="#FBB044"/>
<path d="M142.16 63.2H128.68V38.62C128.68 36.98 128.27 35.63 127.44 34.56C126.63 33.47 125.44 32.92 123.87 32.92C122.3 32.92 121.1 33.47 120.27 34.56C119.46 35.63 119.06 36.99 119.06 38.62V63.2H105.6V38.53C105.6 35.79 106 33.27 106.81 30.96C107.62 28.66 108.81 26.66 110.38 24.98C111.97 23.29 113.88 21.97 116.13 21.03C118.37 20.1 120.95 19.63 123.86 19.63C126.77 19.63 129.36 20.11 131.64 21.08C133.93 22.05 135.85 23.36 137.39 25.03C138.93 26.68 140.11 28.67 140.92 31.01C141.74 33.35 142.16 35.86 142.16 38.53V63.2Z" fill="#FBB044"/>
<path d="M162.79 20.6801V45.2601C162.79 46.9001 163.19 48.2601 164 49.3501C164.82 50.4201 166.02 50.9601 167.6 50.9601C169.18 50.9601 170.36 50.4201 171.17 49.3501C171.99 48.2601 172.41 46.9001 172.41 45.2601V20.6801H185.89V45.3501C185.89 48.0901 185.48 50.6201 184.65 52.9201C183.84 55.2301 182.66 57.2101 181.12 58.8801C179.58 60.5301 177.66 61.8401 175.37 62.8001C173.09 63.7601 170.5 64.25 167.59 64.25C164.68 64.25 162.08 63.7801 159.81 62.8501C157.53 61.9201 155.62 60.6101 154.06 58.9301C152.52 57.2401 151.34 55.2301 150.53 52.9301C149.72 50.6301 149.32 48.1101 149.32 45.3601V20.69H162.78L162.79 20.6801Z" fill="#FBB044"/>
<path d="M260.67 19.11C260.67 26.81 257.2 31 250.27 31.7V31.86C250.67 31.99 251.28 32.13 252.09 32.3C252.91 32.48 253.56 32.62 254.03 32.74C256.41 33.49 258.13 34.39 259.19 35.45C260.83 37.03 261.64 39.21 261.64 42.01V63.18H246.22V44.54C246.22 43.09 245.71 41.98 244.68 41.2C243.66 40.41 241.65 39.95 238.63 39.82H237.04V25.99C239.84 25.99 241.91 25.59 243.25 24.78C244.59 23.97 245.26 22.34 245.26 19.87C245.26 18.19 244.66 16.97 243.46 16.2C242.27 15.44 241.07 15.06 239.84 15.06C237.86 15.06 236.44 15.71 235.59 17C234.75 18.28 234.33 20.32 234.33 23.12V63.18H218.4V23.12C218.4 19.79 218.9 16.75 219.9 14.01C220.89 11.27 222.32 8.94002 224.18 7.02002C226.05 5.09002 228.32 3.59002 231 2.51003C233.69 1.44002 236.76 0.900024 240.2 0.900024C243.11 0.900024 245.82 1.30003 248.33 2.09003C250.84 2.87003 253.01 4.02002 254.85 5.52002C256.68 7.03002 258.11 8.93003 259.13 11.22C260.16 13.5 260.67 16.12 260.67 19.09V19.11Z" fill="#FBB044"/>
<path d="M291.03 47.71L285.68 39.32L297.15 31.8C296.15 31.21 295.22 30.81 294.35 30.61C293.47 30.41 292.6 30.31 291.73 30.31C290.38 30.31 289.16 30.63 288.09 31.24C287.02 31.85 286.08 32.67 285.29 33.69C284.51 34.71 283.9 35.86 283.47 37.17C283.03 38.48 282.82 39.83 282.82 41.23C282.82 42.74 283.08 44.14 283.59 45.44C284.12 46.72 284.82 47.86 285.69 48.85C286.56 49.83 287.56 50.6 288.7 51.16C289.83 51.72 291.02 52 292.25 52C294.69 52 297.09 51.11 299.42 49.34C301.76 47.55 303.54 45.25 304.77 42.45L314.82 47.61C313.77 50.12 312.44 52.4 310.8 54.45C309.16 56.49 307.33 58.25 305.29 59.71C303.25 61.16 301.04 62.28 298.68 63.07C296.33 63.85 293.87 64.24 291.3 64.24C288.32 64.24 285.51 63.64 282.84 62.44C280.19 61.24 277.86 59.61 275.85 57.56C273.84 55.49 272.25 53.12 271.08 50.43C269.91 47.74 269.33 44.91 269.33 41.93C269.33 38.95 269.91 36.13 271.08 33.45C272.25 30.76 273.84 28.39 275.85 26.35C277.86 24.31 280.18 22.68 282.84 21.47C285.5 20.24 288.32 19.62 291.3 19.62C296.19 19.62 300.31 20.85 303.66 23.31C307.02 25.76 309.84 29.05 312.12 33.17L291.05 47.7L291.03 47.71Z" fill="#FBB044"/>
<path d="M365.73 1.97002V43.95C365.73 46.99 365.11 49.74 363.88 52.22C362.65 54.7 360.95 56.83 358.79 58.62C356.64 60.4 354.09 61.79 351.15 62.78C348.21 63.76 345.01 64.25 341.57 64.25C338.13 64.25 335.16 63.68 332.3 62.54C329.45 61.41 326.97 59.83 324.87 57.82C322.77 55.8 321.13 53.43 319.96 50.72C318.79 48.01 318.21 45.05 318.21 41.84C318.21 38.46 318.81 35.4 320.01 32.66C321.21 29.92 322.84 27.59 324.92 25.67C326.99 23.74 329.41 22.25 332.16 21.21C334.93 20.15 337.87 19.62 340.97 19.62C342.54 19.62 343.88 19.73 344.99 19.92C346.09 20.12 347 20.38 347.7 20.67V33.61C347.36 33.38 346.7 33.12 345.74 32.84C344.77 32.55 343.5 32.4 341.93 32.4C340.53 32.4 339.23 32.63 338.03 33.1C336.84 33.57 335.82 34.22 334.97 35.06C334.13 35.9 333.46 36.91 332.96 38.07C332.46 39.24 332.21 40.52 332.21 41.92C332.21 44.72 333.11 47.01 334.92 48.79C336.74 50.57 339.04 51.45 341.83 51.45C343.52 51.45 344.98 51.16 346.2 50.59C347.43 50 348.45 49.21 349.26 48.23C350.08 47.24 350.7 46.07 351.11 44.73C351.51 43.39 351.72 41.96 351.72 40.43V1.95001H365.74L365.73 1.97002Z" fill="#FBB044"/>
<path d="M419.17 1.97002V43.95C419.17 46.99 418.55 49.74 417.32 52.22C416.09 54.7 414.39 56.83 412.23 58.62C410.08 60.4 407.53 61.79 404.59 62.78C401.65 63.76 398.45 64.25 395.01 64.25C391.57 64.25 388.6 63.68 385.74 62.54C382.89 61.41 380.41 59.83 378.31 57.82C376.21 55.8 374.57 53.43 373.4 50.72C372.23 48.01 371.65 45.05 371.65 41.84C371.65 38.46 372.25 35.4 373.45 32.66C374.65 29.92 376.28 27.59 378.36 25.67C380.43 23.74 382.85 22.25 385.6 21.21C388.37 20.15 391.31 19.62 394.41 19.62C395.98 19.62 397.32 19.73 398.43 19.92C399.53 20.12 400.44 20.38 401.14 20.67V33.61C400.8 33.38 400.14 33.12 399.18 32.84C398.21 32.55 396.94 32.4 395.37 32.4C393.97 32.4 392.67 32.63 391.47 33.1C390.28 33.57 389.26 34.22 388.41 35.06C387.57 35.9 386.9 36.91 386.4 38.07C385.9 39.24 385.65 40.52 385.65 41.92C385.65 44.72 386.55 47.01 388.36 48.79C390.18 50.57 392.48 51.45 395.27 51.45C396.96 51.45 398.42 51.16 399.64 50.59C400.87 50 401.89 49.21 402.7 48.23C403.52 47.24 404.14 46.07 404.55 44.73C404.95 43.39 405.16 41.96 405.16 40.43V1.95001H419.18L419.17 1.97002Z" fill="#FBB044"/>
<path d="M439.71 20.6801V45.5401C439.71 47.1601 440.08 48.5301 440.83 49.6501C441.59 50.7601 442.91 51.31 444.78 51.31C445.82 51.31 446.65 51.1401 447.26 50.8001C447.88 50.4401 448.35 49.9601 448.66 49.3501C448.99 48.7301 449.2 48.0501 449.31 47.3201C449.43 46.5901 449.5 45.8201 449.5 45.0101V20.69H462.98V48.3301C462.98 52.0701 462.03 55.24 460.13 57.84C458.23 60.43 455.44 62.34 451.77 63.56V81.5701H437.78V63.56C430.08 61.22 426.24 56.1501 426.24 48.3301V20.69H439.72L439.71 20.6801Z" fill="#FBB044"/>
<path d="M537.66 19.11C537.66 26.81 534.19 31 527.26 31.7V31.86C527.66 31.99 528.27 32.13 529.08 32.3C529.9 32.48 530.55 32.62 531.02 32.74C533.4 33.49 535.12 34.39 536.18 35.45C537.82 37.03 538.63 39.21 538.63 42.01V63.18H523.21V44.54C523.21 43.09 522.7 41.98 521.67 41.2C520.65 40.41 518.64 39.95 515.62 39.82H514.03V25.99C516.83 25.99 518.9 25.59 520.24 24.78C521.58 23.97 522.25 22.34 522.25 19.87C522.25 18.19 521.65 16.97 520.45 16.2C519.26 15.44 518.06 15.06 516.83 15.06C514.85 15.06 513.43 15.71 512.58 17C511.74 18.28 511.32 20.32 511.32 23.12V63.18H495.39V23.12C495.39 19.79 495.89 16.75 496.89 14.01C497.88 11.27 499.31 8.94002 501.17 7.02002C503.04 5.09002 505.31 3.59002 507.99 2.51003C510.68 1.44002 513.75 0.900024 517.19 0.900024C520.1 0.900024 522.81 1.30003 525.32 2.09003C527.83 2.87003 530 4.02002 531.84 5.52002C533.67 7.03002 535.1 8.93003 536.12 11.22C537.15 13.5 537.66 16.12 537.66 19.09V19.11Z" fill="#FBB044"/>
<path d="M568.02 47.71L562.67 39.32L574.14 31.8C573.14 31.21 572.21 30.81 571.34 30.61C570.46 30.41 569.59 30.31 568.72 30.31C567.37 30.31 566.15 30.63 565.08 31.24C564.01 31.85 563.07 32.67 562.28 33.69C561.5 34.71 560.89 35.86 560.46 37.17C560.02 38.48 559.81 39.83 559.81 41.23C559.81 42.74 560.07 44.14 560.58 45.44C561.11 46.72 561.81 47.86 562.68 48.85C563.55 49.83 564.55 50.6 565.69 51.16C566.82 51.72 568.01 52 569.24 52C571.68 52 574.08 51.11 576.41 49.34C578.75 47.55 580.53 45.25 581.76 42.45L591.81 47.61C590.76 50.12 589.43 52.4 587.79 54.45C586.15 56.49 584.32 58.25 582.28 59.71C580.24 61.16 578.03 62.28 575.67 63.07C573.32 63.85 570.86 64.24 568.29 64.24C565.31 64.24 562.5 63.64 559.83 62.44C557.18 61.24 554.85 59.61 552.84 57.56C550.83 55.49 549.24 53.12 548.07 50.43C546.9 47.74 546.32 44.91 546.32 41.93C546.32 38.95 546.9 36.13 548.07 33.45C549.24 30.76 550.83 28.39 552.84 26.35C554.85 24.31 557.17 22.68 559.83 21.47C562.49 20.24 565.31 19.62 568.29 19.62C573.18 19.62 577.3 20.85 580.65 23.31C584.01 25.76 586.83 29.05 589.11 33.17L568.04 47.7L568.02 47.71Z" fill="#FBB044"/>
<path d="M622.42 20.6801V32.06H611.3C610.66 32.06 610.04 32.25 609.45 32.62C608.87 32.99 608.59 33.4801 608.59 34.0701C608.59 35.0001 610.34 36.1701 613.85 37.5701C617.34 38.9701 620.05 40.6401 622 42.5701C623.96 44.4901 624.94 46.9 624.94 49.81C624.94 54.25 623.66 57.5901 621.09 59.8301C618.53 62.0701 615.07 63.19 610.69 63.19H594.69V51.3001H608.33C608.97 51.3001 609.5 51.14 609.94 50.81C610.37 50.48 610.59 50.0001 610.59 49.3601C610.59 48.6101 610.15 48.0401 609.28 47.6301C608.4 47.2101 607.12 46.6501 605.43 45.9501C603.79 45.2501 602.33 44.52 601.06 43.78C599.78 43.02 598.7 42.13 597.81 41.12C596.93 40.09 596.27 38.9101 595.8 37.5701C595.33 36.2301 595.1 34.6301 595.1 32.7601C595.1 30.8901 595.46 29.2201 596.2 27.7401C596.93 26.2401 597.92 24.9801 599.17 23.9301C600.43 22.8701 601.86 22.0701 603.47 21.5201C605.07 20.9601 606.75 20.6801 608.49 20.6801H622.41H622.42Z" fill="#FBB044"/>
<path d="M646.98 8.86005C646.98 11.14 646.21 13.04 644.67 14.56C643.13 16.07 641.25 16.83 639.04 16.83C636.83 16.83 634.93 16.08 633.39 14.56C631.85 13.04 631.08 11.14 631.08 8.86005C631.08 6.58005 631.85 4.70004 633.39 3.18004C634.93 1.67004 636.81 0.910034 639.04 0.910034C641.27 0.910034 643.13 1.67004 644.67 3.18004C646.21 4.69004 646.98 6.58005 646.98 8.86005ZM646.02 20.68V63.2H632.03V20.68H646.02Z" fill="#FBB044"/>
<path d="M701.06 1.97002V43.95C701.06 46.99 700.44 49.74 699.21 52.22C697.98 54.7 696.28 56.83 694.12 58.62C691.97 60.4 689.42 61.79 686.48 62.78C683.54 63.76 680.34 64.25 676.9 64.25C673.46 64.25 670.49 63.68 667.63 62.54C664.78 61.41 662.3 59.83 660.2 57.82C658.1 55.8 656.46 53.43 655.29 50.72C654.12 48.01 653.54 45.05 653.54 41.84C653.54 38.46 654.14 35.4 655.34 32.66C656.54 29.92 658.17 27.59 660.25 25.67C662.32 23.74 664.74 22.25 667.49 21.21C670.26 20.15 673.2 19.62 676.3 19.62C677.87 19.62 679.21 19.73 680.32 19.92C681.42 20.12 682.33 20.38 683.03 20.67V33.61C682.69 33.38 682.03 33.12 681.07 32.84C680.1 32.55 678.83 32.4 677.26 32.4C675.86 32.4 674.56 32.63 673.36 33.1C672.17 33.57 671.15 34.22 670.3 35.06C669.46 35.9 668.79 36.91 668.29 38.07C667.79 39.24 667.54 40.52 667.54 41.92C667.54 44.72 668.44 47.01 670.25 48.79C672.07 50.57 674.37 51.45 677.16 51.45C678.85 51.45 680.31 51.16 681.53 50.59C682.76 50 683.78 49.21 684.59 48.23C685.41 47.24 686.03 46.07 686.44 44.73C686.84 43.39 687.05 41.96 687.05 40.43V1.95001H701.07L701.06 1.97002Z" fill="#FBB044"/>
<path d="M728.42 47.71L723.07 39.32L734.54 31.8C733.54 31.21 732.61 30.81 731.74 30.61C730.86 30.41 729.99 30.31 729.12 30.31C727.77 30.31 726.55 30.63 725.48 31.24C724.41 31.85 723.47 32.67 722.68 33.69C721.9 34.71 721.29 35.86 720.86 37.17C720.42 38.48 720.21 39.83 720.21 41.23C720.21 42.74 720.47 44.14 720.98 45.44C721.51 46.72 722.21 47.86 723.08 48.85C723.95 49.83 724.95 50.6 726.09 51.16C727.22 51.72 728.41 52 729.64 52C732.08 52 734.48 51.11 736.81 49.34C739.15 47.55 740.93 45.25 742.16 42.45L752.21 47.61C751.16 50.12 749.83 52.4 748.19 54.45C746.55 56.49 744.72 58.25 742.68 59.71C740.64 61.16 738.43 62.28 736.07 63.07C733.72 63.85 731.26 64.24 728.69 64.24C725.71 64.24 722.9 63.64 720.23 62.44C717.58 61.24 715.25 59.61 713.24 57.56C711.23 55.49 709.64 53.12 708.47 50.43C707.3 47.74 706.72 44.91 706.72 41.93C706.72 38.95 707.3 36.13 708.47 33.45C709.64 30.76 711.23 28.39 713.24 26.35C715.25 24.31 717.57 22.68 720.23 21.47C722.89 20.24 725.71 19.62 728.69 19.62C733.58 19.62 737.7 20.85 741.05 23.31C744.41 25.76 747.23 29.05 749.51 33.17L728.44 47.7L728.42 47.71Z" fill="#FBB044"/>
<path d="M793.41 63.2H779.93V38.62C779.93 36.98 779.52 35.63 778.69 34.56C777.88 33.47 776.69 32.92 775.12 32.92C773.55 32.92 772.35 33.47 771.52 34.56C770.71 35.63 770.31 36.99 770.31 38.62V63.2H756.85V38.53C756.85 35.79 757.25 33.27 758.06 30.96C758.87 28.66 760.06 26.66 761.63 24.98C763.22 23.29 765.13 21.97 767.38 21.03C769.63 20.09 772.2 19.63 775.11 19.63C778.02 19.63 780.61 20.11 782.89 21.08C785.18 22.05 787.1 23.36 788.64 25.03C790.18 26.68 791.36 28.67 792.17 31.01C792.99 33.35 793.41 35.86 793.41 38.53V63.2Z" fill="#FBB044"/>
<path d="M827.61 20.68V33.37H821.4C818.72 33.37 816.62 34.14 815.09 35.66C813.56 37.18 812.82 39.27 812.82 41.94C812.82 44.61 813.57 46.74 815.09 48.29C816.61 49.83 818.72 50.6 821.4 50.6H827.61V63.19H818.94C816.31 63.19 813.77 62.69 811.32 61.67C808.87 60.64 806.73 59.19 804.9 57.32C803.06 55.45 801.59 53.21 800.48 50.59C799.37 47.96 798.82 45.07 798.82 41.92C798.82 38.77 799.39 35.8001 800.53 33.1801C801.66 30.5501 803.16 28.32 805.02 26.48C806.89 24.65 809.03 23.22 811.44 22.2C813.87 21.17 816.37 20.66 818.94 20.66H827.61V20.68Z" fill="#FBB044"/>
<path d="M854.81 47.71L849.46 39.32L860.93 31.8C859.93 31.21 859 30.81 858.13 30.61C857.25 30.41 856.38 30.31 855.51 30.31C854.16 30.31 852.94 30.63 851.87 31.24C850.8 31.85 849.86 32.67 849.07 33.69C848.29 34.71 847.68 35.86 847.25 37.17C846.81 38.48 846.6 39.83 846.6 41.23C846.6 42.74 846.86 44.14 847.37 45.44C847.9 46.72 848.6 47.86 849.47 48.85C850.34 49.83 851.34 50.6 852.48 51.16C853.61 51.72 854.8 52 856.03 52C858.47 52 860.87 51.11 863.2 49.34C865.54 47.55 867.32 45.25 868.55 42.45L878.6 47.61C877.55 50.12 876.22 52.4 874.58 54.45C872.94 56.49 871.11 58.25 869.07 59.71C867.03 61.16 864.82 62.28 862.46 63.07C860.11 63.85 857.65 64.24 855.08 64.24C852.1 64.24 849.29 63.64 846.62 62.44C843.97 61.24 841.64 59.61 839.63 57.56C837.62 55.49 836.03 53.12 834.86 50.43C833.69 47.74 833.11 44.91 833.11 41.93C833.11 38.95 833.69 36.13 834.86 33.45C836.03 30.76 837.62 28.39 839.63 26.35C841.64 24.31 843.96 22.68 846.62 21.47C849.28 20.24 852.1 19.62 855.08 19.62C859.97 19.62 864.09 20.85 867.44 23.31C870.8 25.76 873.62 29.05 875.9 33.17L854.83 47.7L854.81 47.71Z" fill="#FBB044"/>
<path d="M909.21 20.6801V32.06H898.09C897.45 32.06 896.83 32.25 896.24 32.62C895.66 32.99 895.38 33.4801 895.38 34.0701C895.38 35.0001 897.13 36.1701 900.64 37.5701C904.13 38.9701 906.84 40.6401 908.79 42.5701C910.75 44.4901 911.73 46.9 911.73 49.81C911.73 54.25 910.45 57.5901 907.88 59.8301C905.32 62.0701 901.86 63.19 897.48 63.19H881.48V51.3001H895.12C895.76 51.3001 896.29 51.14 896.73 50.81C897.16 50.48 897.38 50.0001 897.38 49.3601C897.38 48.6101 896.94 48.0401 896.07 47.6301C895.19 47.2101 893.91 46.6501 892.22 45.9501C890.58 45.2501 889.12 44.52 887.85 43.78C886.57 43.02 885.49 42.13 884.6 41.12C883.72 40.09 883.06 38.9101 882.59 37.5701C882.12 36.2301 881.89 34.6301 881.89 32.7601C881.89 30.8901 882.25 29.2201 882.99 27.7401C883.72 26.2401 884.71 24.9801 885.96 23.9301C887.22 22.8701 888.65 22.0701 890.26 21.5201C891.86 20.9601 893.54 20.6801 895.28 20.6801H909.2H909.21Z" fill="#FBB044"/>
</svg>
