<svg width="911" height="271" viewBox="0 0 911 271" fill="none" xmlns="http://www.w3.org/2000/svg">
<path d="M173.81 4.16992V91.7399H154.67V48.5799H113.26V91.7399H94.1201V4.16992H113.26V46.0799H154.67V4.16992H173.81Z" fill="#335E54"/>
<path d="M249.36 51.0799V91.7399H230.22V82.9799C225.59 88.9799 217.08 92.9899 208.33 92.9899C196.2 92.9899 186.69 85.3599 186.69 75.3499C186.69 65.3399 197.7 57.2099 212.71 57.2099C219.46 57.2099 226.72 58.8399 230.22 61.2099V46.0699C230.22 36.9399 223.96 31.0599 213.83 31.0599C209.45 31.0599 205.32 32.3099 202.32 34.3099C206.32 35.0599 209.32 38.4399 209.32 42.9399C209.32 47.9399 205.57 51.6999 200.81 51.6999C195.43 51.6999 191.55 47.9499 191.55 42.9399C191.55 34.4299 203.31 27.9299 218.45 27.9299C236.46 27.9299 249.35 37.9399 249.35 51.0699L249.36 51.0799ZM230.22 79.4799V63.9699C227.97 62.0899 223.96 60.9699 219.84 60.9699C211.46 60.9699 206.33 65.8499 206.33 73.9799C206.33 81.4899 210.71 86.6099 217.46 86.6099C222.59 86.6099 227.34 83.8599 230.22 79.4799Z" fill="#335E54"/>
<path d="M326.8 48.58V91.7399H307.66V44.2C307.66 38.32 303.53 33.8199 297.9 33.8199C292.27 33.8199 286.27 38.2 283.51 44.7V91.7399H264.37V31.8199L283.51 28.5699V39.58C287.89 32.58 296.14 27.95 305.4 27.95C317.78 27.95 326.79 36.83 326.79 48.59L326.8 48.58Z" fill="#335E54"/>
<path d="M402.73 28.5699V91.7399H383.59V80.8599C379.34 88.1199 371.08 92.9899 362.2 92.9899C350.19 92.9899 340.94 84.2299 340.94 72.2199V31.8099L360.08 28.5599V76.7199C360.08 82.4699 364.08 86.8499 369.71 86.8499C375.34 86.8499 380.84 82.2199 383.6 75.4699V31.8099L402.74 28.5599L402.73 28.5699Z" fill="#335E54"/>
<path d="M528.44 91.7399H507.8C505.42 90.2399 503.3 87.1099 502.05 84.4799L490.42 59.3399C489.29 57.0899 487.42 55.2099 484.67 54.2099H471.03V91.7399H451.89V4.16992H489.17C507.81 4.16992 522.07 14.6799 522.07 29.3099C522.07 42.3199 510.81 51.8299 495.18 53.8299C503.19 55.2099 510.19 58.7099 513.19 65.4599L521.32 82.2199C523.2 86.0999 525.95 89.9799 528.45 91.7299L528.44 91.7399ZM471.03 51.7099H484.67C495.43 51.7099 502.43 42.8299 502.43 29.1899C502.43 15.5499 495.42 6.66992 484.67 6.66992H471.03V51.6999V51.7099Z" fill="#335E54"/>
<path d="M593.74 75.8499C593.74 85.6099 581.36 92.9899 566.22 92.9899C545.2 92.9899 530.32 78.9799 530.32 60.34C530.32 41.7 545.08 27.9399 563.59 27.9399C582.1 27.9399 594.61 41.07 594.61 58.34H549.95C549.95 79.11 557.96 89.11 571.84 89.11C577.34 89.11 582.22 87.4799 585.35 84.7299H584.85C579.85 84.7299 575.97 80.9799 575.97 75.8499C575.97 70.7199 579.85 67.09 585.1 67.09C589.98 67.09 593.73 70.9699 593.73 75.8499H593.74ZM549.96 55.84H576.61C576.23 39.83 571.36 30.45 563.73 30.45C555.6 30.45 550.47 41.08 549.97 55.84H549.96Z" fill="#335E54"/>
<path d="M670.92 0.419922V91.7399H651.78V83.1099C647.15 89.1099 639.77 92.9899 631.64 92.9899C616 92.9899 603.87 78.9799 603.87 60.4699C603.87 41.9599 615.88 27.9499 631.39 27.9499C639.77 27.9499 647.4 32.1999 651.78 38.5799V3.67992L670.92 0.429916V0.419922ZM651.78 77.5999V43.9499C648.78 37.5699 643.65 33.5699 638.27 33.5699C629.51 33.5699 623.51 44.3299 623.51 60.4699C623.51 76.6099 629.51 87.4899 638.65 87.4899C644.03 87.4899 648.78 83.7399 651.79 77.6099L651.78 77.5999Z" fill="#335E54"/>
<path d="M750.11 0.419922V91.7399H730.97V83.1099C726.34 89.1099 718.96 92.9899 710.83 92.9899C695.19 92.9899 683.06 78.9799 683.06 60.4699C683.06 41.9599 695.07 27.9499 710.58 27.9499C718.96 27.9499 726.59 32.1999 730.97 38.5799V3.67992L750.11 0.429916V0.419922ZM730.97 77.5999V43.9499C727.97 37.5699 722.84 33.5699 717.46 33.5699C708.7 33.5699 702.7 44.3299 702.7 60.4699C702.7 76.6099 708.7 87.4899 717.84 87.4899C723.22 87.4899 727.97 83.7399 730.98 77.6099L730.97 77.5999Z" fill="#335E54"/>
<path d="M820.16 29.1899L784.13 111.5C780.88 118.63 776 120.51 770.37 120.51C763.99 120.51 758.24 115.76 758.24 110C758.24 105 762.24 101.24 767.5 101.24C772.38 101.24 776.01 104.99 776.01 110C776.01 113.63 774.13 116.63 771.13 118.01C775.26 117.76 778.89 116.13 780.89 111.38L788.27 94.6199L759.5 29.2H779.76L798.02 71.86L816.66 29.2H820.16V29.1899Z" fill="#335E54"/>
<path d="M76.5498 241.85H55.9102C53.5302 240.35 51.4102 237.22 50.1602 234.59L38.5298 209.45C37.3998 207.2 35.5298 205.32 32.7798 204.32H19.1401V241.85H0V154.29H37.2798C55.9198 154.29 70.1802 164.8 70.1802 179.43C70.1802 192.44 58.92 201.95 43.29 203.95C51.3 205.33 58.2998 208.83 61.2998 215.58L69.4302 232.34C71.3102 236.22 74.0601 240.1 76.5601 241.85H76.5498ZM19.1299 201.82H32.77C43.53 201.82 50.5298 192.94 50.5298 179.3C50.5298 165.66 43.52 156.78 32.77 156.78H19.1299V201.81V201.82Z" fill="#335E54"/>
<path d="M142.72 201.19V241.84H123.58V233.08C118.95 239.08 110.44 243.09 101.69 243.09C89.5599 243.09 80.0498 235.46 80.0498 225.45C80.0498 215.44 91.0598 207.31 106.07 207.31C112.82 207.31 120.08 208.94 123.58 211.31V196.17C123.58 187.04 117.32 181.16 107.19 181.16C102.81 181.16 98.6802 182.41 95.6802 184.41C99.6802 185.16 102.68 188.54 102.68 193.04C102.68 198.04 98.9299 201.8 94.1699 201.8C88.7899 201.8 84.9102 198.05 84.9102 193.04C84.9102 184.53 96.6701 178.03 111.81 178.03C129.82 178.03 142.71 188.04 142.71 201.17L142.72 201.19ZM123.58 229.59V214.08C121.33 212.2 117.32 211.08 113.2 211.08C104.82 211.08 99.6899 215.96 99.6899 224.09C99.6899 231.59 104.07 236.72 110.82 236.72C115.95 236.72 120.7 233.97 123.58 229.59Z" fill="#335E54"/>
<path d="M220.65 178.68V244.98C220.65 259.62 206.51 270.63 187.25 270.63C171.74 270.63 159.73 264 159.73 255.24C159.73 250.36 163.48 246.73 168.61 246.73C173.36 246.73 176.87 250.36 176.87 255.24C176.87 260.12 173.37 263.62 168.61 263.62C171.86 265.87 176.62 267.25 181.99 267.25C193.25 267.25 201.5 259.87 201.5 250.24V233.23C196.87 239.23 189.49 243.11 181.36 243.11C165.72 243.11 153.59 229.1 153.59 210.58C153.59 192.06 165.6 178.06 181.11 178.06C189.49 178.06 197.12 182.31 201.5 188.69V181.93L220.64 178.68H220.65ZM201.51 227.71V194.06C198.51 187.68 193.38 183.68 188 183.68C179.24 183.68 173.24 194.44 173.24 210.57C173.24 226.7 179.24 237.59 188.38 237.59C193.76 237.59 198.51 233.84 201.52 227.71H201.51Z" fill="#335E54"/>
<path d="M298.84 198.69V241.85H279.7V194.32C279.7 188.44 275.7 183.94 269.94 183.94C264.18 183.94 258.31 188.32 255.55 194.82V241.85H236.41V153.78L255.55 150.53V189.81C259.93 182.8 268.43 178.05 277.44 178.05C289.95 178.05 298.83 186.93 298.83 198.69H298.84Z" fill="#335E54"/>
<path d="M372.14 201.19V241.84H353V233.08C348.37 239.08 339.86 243.09 331.11 243.09C318.98 243.09 309.47 235.46 309.47 225.45C309.47 215.44 320.48 207.31 335.49 207.31C342.24 207.31 349.5 208.94 353 211.31V196.17C353 187.04 346.74 181.16 336.61 181.16C332.23 181.16 328.1 182.41 325.1 184.41C329.1 185.16 332.1 188.54 332.1 193.04C332.1 198.04 328.35 201.8 323.59 201.8C318.21 201.8 314.33 198.05 314.33 193.04C314.33 184.53 326.09 178.03 341.23 178.03C359.24 178.03 372.13 188.04 372.13 201.17L372.14 201.19ZM353 229.59V214.08C350.75 212.2 346.74 211.08 342.62 211.08C334.24 211.08 329.11 215.96 329.11 224.09C329.11 231.59 333.49 236.72 340.24 236.72C345.37 236.72 350.12 233.97 353 229.59Z" fill="#335E54"/>
<path d="M439.06 179.3L411.66 241.85H404.9L377.51 179.3H397.77L416.53 222.71L435.54 179.3H439.04H439.06Z" fill="#335E54"/>
<path d="M500.73 201.19V241.84H481.59V233.08C476.96 239.08 468.45 243.09 459.7 243.09C447.57 243.09 438.06 235.46 438.06 225.45C438.06 215.44 449.07 207.31 464.08 207.31C470.83 207.31 478.09 208.94 481.59 211.31V196.17C481.59 187.04 475.33 181.16 465.2 181.16C460.82 181.16 456.69 182.41 453.69 184.41C457.69 185.16 460.69 188.54 460.69 193.04C460.69 198.04 456.94 201.8 452.18 201.8C446.8 201.8 442.92 198.05 442.92 193.04C442.92 184.53 454.68 178.03 469.82 178.03C487.83 178.03 500.72 188.04 500.72 201.17L500.73 201.19ZM481.6 229.59V214.08C479.35 212.2 475.34 211.08 471.22 211.08C462.84 211.08 457.71 215.96 457.71 224.09C457.71 231.59 462.09 236.72 468.84 236.72C473.97 236.72 478.72 233.97 481.6 229.59Z" fill="#335E54"/>
<path d="M568.16 156.79V197.45H601.06V199.95H568.16V241.86H549.02V154.3H611.07V156.8H568.16V156.79Z" fill="#335E54"/>
<path d="M669.36 201.19V241.84H650.22V233.08C645.59 239.08 637.08 243.09 628.33 243.09C616.2 243.09 606.69 235.46 606.69 225.45C606.69 215.44 617.7 207.31 632.71 207.31C639.46 207.31 646.72 208.94 650.22 211.31V196.17C650.22 187.04 643.96 181.16 633.83 181.16C629.45 181.16 625.32 182.41 622.32 184.41C626.32 185.16 629.32 188.54 629.32 193.04C629.32 198.04 625.57 201.8 620.81 201.8C615.43 201.8 611.55 198.05 611.55 193.04C611.55 184.53 623.31 178.03 638.45 178.03C656.46 178.03 669.35 188.04 669.35 201.17L669.36 201.19ZM650.22 229.59V214.08C647.97 212.2 643.96 211.08 639.84 211.08C631.46 211.08 626.33 215.96 626.33 224.09C626.33 231.59 630.71 236.72 637.46 236.72C642.59 236.72 647.34 233.97 650.22 229.59Z" fill="#335E54"/>
<path d="M735.04 191.31C735.04 196.31 731.29 200.07 726.41 200.07C721.16 200.07 717.28 196.32 717.28 191.31C717.28 186.3 721.16 182.55 726.41 182.55H726.54C724.79 181.42 722.66 180.8 720.28 180.8C712.65 180.8 706.27 186.55 703.52 195.44V241.85H684.38V181.93L703.52 178.68V190.06C706.77 182.68 713.15 178.05 720.78 178.05C729.29 178.05 735.04 183.55 735.04 191.31Z" fill="#335E54"/>
<path d="M846.12 198.69V241.85H826.98V194.32C826.98 188.56 823.1 184.19 817.85 184.19C812.6 184.19 806.97 189.07 804.47 195.82C804.59 196.82 804.59 197.7 804.59 198.7V241.86H785.45V194.33C785.45 188.57 781.57 184.2 776.32 184.2C771.07 184.2 765.81 188.7 763.06 195.21V241.87H743.92V181.95L763.06 178.7V189.83C767.31 182.82 775.19 178.07 783.7 178.07C793.08 178.07 800.71 183.57 803.46 191.83C807.34 183.7 815.97 178.07 825.35 178.07C836.98 178.07 846.11 186.83 846.11 198.71L846.12 198.69Z" fill="#335E54"/>
<path d="M910.54 223.84C910.54 235.22 900.78 243.1 883.89 243.1C869.13 243.1 857.62 237.1 857.62 229.34C857.62 225.09 860.75 221.96 865.25 221.96C869.25 221.96 872.38 225.09 872.38 229.34C872.38 233.22 869.75 236.1 866.38 236.6C870.01 238.98 875.39 240.35 881.64 240.35C890.77 240.35 896.9 237.1 896.9 231.59C896.9 226.08 890.77 223.46 881.01 218.96C872.63 215.33 858.24 210.2 858.24 196.94C858.24 185.43 868.75 178.05 884.39 178.05C897.65 178.05 907.78 183.43 907.78 190.43C907.78 194.68 904.78 197.81 900.65 197.81C896.27 197.81 893.02 194.68 893.02 190.43C893.02 186.93 895.27 184.05 898.65 183.3C895.52 181.67 891.39 180.8 886.64 180.8C877.88 180.8 871.88 184.18 871.88 189.68C871.88 195.18 878.26 197.94 887.77 202.06C897.4 206.19 910.54 210.94 910.54 223.83V223.84Z" fill="#335E54"/>
</svg>
