<svg width="930" height="102" viewBox="0 0 930 102" fill="none" xmlns="http://www.w3.org/2000/svg">
<path d="M19.6801 1.89008V28.8101H34.86V1.89008H53.97V78.8301H34.86V47.2701H19.6801V78.8301H0.540039V1.89008H19.6801Z" fill="#931E1F"/>
<path d="M123.56 78.8301H105.95V53.7601C105.95 49.3601 104.92 46.0001 102.87 43.6601C100.83 41.3101 97.7199 40.1401 93.5299 40.1401C91.9199 40.1401 90.3899 40.4601 88.9199 41.0801C87.4499 41.6901 86.1698 42.5101 85.0698 43.5501C83.9698 44.5701 83.0899 45.8001 82.4299 47.2201C81.7599 48.6501 81.4299 50.1801 81.4299 51.8001C81.4299 55.5401 82.5499 58.5201 84.7799 60.7501C87.0299 62.9801 89.8398 64.1001 93.2098 64.1001C94.8098 64.1001 96.3098 63.9501 97.6998 63.6601C99.1098 63.3701 100.4 63.0101 101.58 62.5701V77.0701C99.8898 78.2401 98.0899 79.0401 96.1799 79.4801C94.2799 79.9301 92.1098 80.1601 89.6898 80.1601C86.3998 80.1601 83.1899 79.4801 80.0599 78.1301C76.9499 76.7601 74.1999 74.8601 71.8099 72.4101C69.4399 69.9401 67.5199 67.0101 66.0599 63.6001C64.5999 60.1901 63.8599 56.4101 63.8599 52.2401C63.8599 48.0701 64.5899 44.5801 66.0599 41.1701C67.5299 37.7601 69.5399 34.8001 72.1099 32.2701C74.6699 29.7501 77.7498 27.7501 81.3298 26.2801C84.9298 24.8101 88.8898 24.0801 93.2198 24.0801C97.8398 24.0801 102.01 24.7301 105.76 26.0201C109.5 27.3001 112.69 29.0701 115.33 31.3301C117.97 33.6101 120.01 36.3101 121.44 39.4301C122.86 42.5401 123.58 45.9301 123.58 49.5901V78.8301H123.56Z" fill="#931E1F"/>
<path d="M178.5 78.8301H161.56V47.9501C161.56 45.9001 161.04 44.1901 160 42.8401C158.98 41.4701 157.48 40.7901 155.51 40.7901C153.54 40.7901 152.02 41.4801 150.99 42.8401C149.97 44.1901 149.46 45.8901 149.46 47.9501V78.8301H132.55V47.8301C132.55 44.3901 133.06 41.2201 134.08 38.3201C135.09 35.4301 136.59 32.9201 138.57 30.8001C140.57 28.6701 142.97 27.0101 145.79 25.8401C148.61 24.6701 151.84 24.0801 155.51 24.0801C159.18 24.0801 162.42 24.6901 165.29 25.9001C168.17 27.1201 170.57 28.7701 172.51 30.8601C174.45 32.9401 175.92 35.4401 176.94 38.3801C177.97 41.3201 178.5 44.4701 178.5 47.8301V78.8301Z" fill="#931E1F"/>
<path d="M204.42 25.4001V56.2801C204.42 58.3301 204.93 60.0501 205.95 61.4201C206.98 62.7701 208.49 63.4501 210.47 63.4501C212.45 63.4501 213.94 62.7701 214.96 61.4201C215.99 60.0501 216.52 58.3401 216.52 56.2801V25.4001H233.46V56.4001C233.46 59.8501 232.94 63.0201 231.9 65.9101C230.88 68.8101 229.4 71.3001 227.47 73.4001C225.53 75.4801 223.13 77.1201 220.25 78.3301C217.39 79.5401 214.13 80.1501 210.47 80.1501C206.81 80.1501 203.55 79.5601 200.69 78.3901C197.83 77.2201 195.42 75.5701 193.47 73.4601C191.53 71.3301 190.05 68.8101 189.04 65.9201C188.02 63.0301 187.51 59.8601 187.51 56.4101V25.4101H204.42V25.4001Z" fill="#931E1F"/>
<path d="M327.42 23.4401C327.42 33.1101 323.06 38.3801 314.36 39.2601V39.4701C314.87 39.6301 315.63 39.8101 316.65 40.0301C317.68 40.2501 318.5 40.4301 319.09 40.5901C322.08 41.5301 324.24 42.6701 325.58 44.0001C327.63 45.9801 328.66 48.7301 328.66 52.2501V78.8501H309.28V55.4201C309.28 53.6001 308.63 52.2101 307.34 51.2201C306.06 50.2201 303.53 49.6501 299.74 49.4901H297.74V32.1101C301.26 32.1101 303.86 31.6001 305.55 30.5801C307.23 29.5701 308.07 27.5101 308.07 24.4201C308.07 22.3101 307.31 20.7701 305.81 19.8101C304.32 18.8601 302.8 18.3701 301.26 18.3701C298.77 18.3701 296.99 19.1801 295.92 20.8101C294.86 22.4201 294.33 24.9801 294.33 28.5001V78.8501H274.31V28.5001C274.31 24.3201 274.93 20.5001 276.19 17.0501C277.44 13.6101 279.23 10.6801 281.56 8.27007C283.91 5.85007 286.76 3.95007 290.13 2.60007C293.51 1.25007 297.37 0.570068 301.7 0.570068C305.35 0.570068 308.76 1.07007 311.92 2.07007C315.07 3.05007 317.8 4.49008 320.11 6.39008C322.41 8.29008 324.21 10.6801 325.48 13.5501C326.77 16.4101 327.42 19.7101 327.42 23.4401Z" fill="#931E1F"/>
<path d="M365.57 59.3701L358.85 48.8301L373.26 39.3801C372 38.6401 370.83 38.1401 369.74 37.8801C368.64 37.6301 367.55 37.5001 366.45 37.5001C364.75 37.5001 363.22 37.9001 361.87 38.6701C360.52 39.4301 359.35 40.4601 358.35 41.7501C357.37 43.0301 356.6 44.4801 356.06 46.1201C355.51 47.7601 355.24 49.4701 355.24 51.2301C355.24 53.1301 355.56 54.8901 356.21 56.5101C356.87 58.1201 357.75 59.5501 358.85 60.8001C359.94 62.0301 361.21 63.0001 362.64 63.7101C364.06 64.4101 365.55 64.7701 367.1 64.7701C370.17 64.7701 373.18 63.6501 376.11 61.4201C379.05 59.1701 381.28 56.2801 382.83 52.7601L395.45 59.2501C394.14 62.4101 392.46 65.2701 390.4 67.8501C388.35 70.4201 386.03 72.6201 383.47 74.4601C380.9 76.2801 378.13 77.6901 375.16 78.6901C372.2 79.6701 369.11 80.1601 365.88 80.1601C362.14 80.1601 358.6 79.4001 355.25 77.9001C351.92 76.4001 349 74.3501 346.47 71.7601C343.95 69.1601 341.95 66.1701 340.48 62.8101C339.01 59.4301 338.28 55.8701 338.28 52.1201C338.28 48.3701 339.01 44.8301 340.48 41.4601C341.95 38.0801 343.94 35.1001 346.47 32.5401C348.99 29.9801 351.92 27.9301 355.25 26.4001C358.6 24.8601 362.13 24.0801 365.88 24.0801C372.02 24.0801 377.2 25.6301 381.41 28.7201C385.64 31.8001 389.17 35.9301 392.04 41.1101L365.56 59.3701H365.57Z" fill="#931E1F"/>
<path d="M459.44 1.89006V54.6401C459.44 58.4601 458.66 61.92 457.12 65.03C455.57 68.14 453.44 70.8301 450.72 73.0701C448.02 75.3001 444.82 77.0501 441.12 78.3001C437.42 79.5301 433.41 80.1501 429.08 80.1501C424.75 80.1501 421.02 79.4301 417.43 78.0101C413.85 76.5901 410.74 74.6001 408.09 72.0801C405.45 69.5401 403.39 66.5601 401.93 63.16C400.47 59.76 399.73 56.04 399.73 52C399.73 47.76 400.48 43.9101 401.99 40.4601C403.49 37.0201 405.55 34.0901 408.15 31.6801C410.75 29.2601 413.79 27.3901 417.25 26.0701C420.73 24.7401 424.42 24.0701 428.32 24.0701C430.29 24.0701 431.97 24.2001 433.37 24.4501C434.76 24.7101 435.89 25.0201 436.78 25.3901V41.6501C436.35 41.3601 435.52 41.0301 434.31 40.6801C433.09 40.3101 431.5 40.12 429.52 40.12C427.76 40.12 426.12 40.41 424.62 41C423.13 41.59 421.85 42.41 420.77 43.47C419.71 44.53 418.87 45.7901 418.25 47.2601C417.62 48.7301 417.31 50.3401 417.31 52.1001C417.31 55.6201 418.44 58.5001 420.72 60.7301C423.01 62.9601 425.9 64.0801 429.41 64.0801C431.54 64.0801 433.37 63.7201 434.9 62.9901C436.44 62.2501 437.73 61.2601 438.75 60.0201C439.78 58.7701 440.56 57.3 441.07 55.62C441.58 53.94 441.83 52.14 441.83 50.22V1.87006H459.44V1.89006Z" fill="#931E1F"/>
<path d="M526.6 1.89006V54.6401C526.6 58.4601 525.82 61.92 524.28 65.03C522.73 68.14 520.6 70.8301 517.88 73.0701C515.18 75.3001 511.98 77.0501 508.28 78.3001C504.58 79.5301 500.57 80.1501 496.24 80.1501C491.91 80.1501 488.18 79.4301 484.59 78.0101C481.01 76.5901 477.9 74.6001 475.25 72.0801C472.61 69.5401 470.55 66.5601 469.09 63.16C467.63 59.76 466.89 56.04 466.89 52C466.89 47.76 467.64 43.9101 469.15 40.4601C470.65 37.0201 472.71 34.0901 475.31 31.6801C477.91 29.2601 480.95 27.3901 484.41 26.0701C487.89 24.7401 491.58 24.0701 495.48 24.0701C497.45 24.0701 499.13 24.2001 500.53 24.4501C501.92 24.7101 503.05 25.0201 503.94 25.3901V41.6501C503.51 41.3601 502.68 41.0301 501.47 40.6801C500.25 40.3101 498.66 40.12 496.68 40.12C494.92 40.12 493.28 40.41 491.78 41C490.29 41.59 489.01 42.41 487.93 43.47C486.87 44.53 486.03 45.7901 485.41 47.2601C484.78 48.7301 484.47 50.3401 484.47 52.1001C484.47 55.6201 485.6 58.5001 487.88 60.7301C490.17 62.9601 493.06 64.0801 496.57 64.0801C498.7 64.0801 500.53 63.7201 502.06 62.9901C503.6 62.2501 504.89 61.2601 505.91 60.0201C506.94 58.7701 507.72 57.3 508.23 55.62C508.74 53.94 508.99 52.14 508.99 50.22V1.87006H526.6V1.89006Z" fill="#931E1F"/>
<path d="M552.42 25.4001V56.6401C552.42 58.6801 552.89 60.4001 553.83 61.8101C554.78 63.2001 556.44 63.8901 558.79 63.8901C560.1 63.8901 561.14 63.6801 561.9 63.2401C562.68 62.7901 563.27 62.1801 563.66 61.4201C564.07 60.6401 564.34 59.7901 564.48 58.8701C564.63 57.9501 564.71 56.9801 564.71 55.9601V25.4001H581.65V60.1301C581.65 64.8301 580.45 68.8101 578.07 72.0801C575.68 75.3301 572.18 77.7301 567.56 79.2701V101.9H549.98V79.2701C540.31 76.3301 535.48 69.9601 535.48 60.1301V25.4001H552.42Z" fill="#931E1F"/>
<path d="M675.5 23.4401C675.5 33.1101 671.14 38.3801 662.44 39.2601V39.4701C662.95 39.6301 663.71 39.8101 664.73 40.0301C665.76 40.2501 666.58 40.4301 667.17 40.5901C670.16 41.5301 672.32 42.6701 673.66 44.0001C675.71 45.9801 676.74 48.7301 676.74 52.2501V78.8501H657.36V55.4201C657.36 53.6001 656.71 52.2101 655.42 51.2201C654.14 50.2201 651.61 49.6501 647.82 49.4901H645.82V32.1101C649.34 32.1101 651.94 31.6001 653.63 30.5801C655.31 29.5701 656.15 27.5101 656.15 24.4201C656.15 22.3101 655.39 20.7701 653.89 19.8101C652.4 18.8601 650.88 18.3701 649.34 18.3701C646.85 18.3701 645.07 19.1801 644 20.8101C642.94 22.4201 642.41 24.9801 642.41 28.5001V78.8501H622.39V28.5001C622.39 24.3201 623.01 20.5001 624.27 17.0501C625.52 13.6101 627.31 10.6801 629.64 8.27007C631.99 5.85007 634.84 3.95007 638.21 2.60007C641.59 1.25007 645.45 0.570068 649.78 0.570068C653.43 0.570068 656.84 1.07007 660 2.07007C663.15 3.05007 665.88 4.49008 668.19 6.39008C670.49 8.29008 672.29 10.6801 673.56 13.5501C674.85 16.4101 675.5 19.7101 675.5 23.4401Z" fill="#931E1F"/>
<path d="M713.65 59.3701L706.93 48.8301L721.34 39.3801C720.08 38.6401 718.91 38.1401 717.82 37.8801C716.72 37.6301 715.63 37.5001 714.53 37.5001C712.83 37.5001 711.3 37.9001 709.95 38.6701C708.6 39.4301 707.43 40.4601 706.43 41.7501C705.45 43.0301 704.68 44.4801 704.14 46.1201C703.59 47.7601 703.32 49.4701 703.32 51.2301C703.32 53.1301 703.64 54.8901 704.29 56.5101C704.95 58.1201 705.83 59.5501 706.93 60.8001C708.02 62.0301 709.29 63.0001 710.72 63.7101C712.14 64.4101 713.63 64.7701 715.18 64.7701C718.25 64.7701 721.26 63.6501 724.19 61.4201C727.13 59.1701 729.36 56.2801 730.91 52.7601L743.53 59.2501C742.22 62.4101 740.54 65.2701 738.48 67.8501C736.43 70.4201 734.11 72.6201 731.55 74.4601C728.98 76.2801 726.21 77.6901 723.24 78.6901C720.28 79.6701 717.19 80.1601 713.96 80.1601C710.22 80.1601 706.68 79.4001 703.33 77.9001C700 76.4001 697.08 74.3501 694.55 71.7601C692.03 69.1601 690.03 66.1701 688.56 62.8101C687.09 59.4301 686.36 55.8701 686.36 52.1201C686.36 48.3701 687.09 44.8301 688.56 41.4601C690.03 38.0801 692.02 35.1001 694.55 32.5401C697.07 29.9801 700 27.9301 703.33 26.4001C706.68 24.8601 710.21 24.0801 713.96 24.0801C720.1 24.0801 725.28 25.6301 729.49 28.7201C733.72 31.8001 737.25 35.9301 740.12 41.1101L713.64 59.3701H713.65Z" fill="#931E1F"/>
<path d="M807.52 78.8301H789.91V53.7601C789.91 49.3601 788.88 46.0001 786.83 43.6601C784.79 41.3101 781.68 40.1401 777.49 40.1401C775.88 40.1401 774.35 40.4601 772.88 41.0801C771.41 41.6901 770.13 42.5101 769.03 43.5501C767.93 44.5701 767.05 45.8001 766.39 47.2201C765.72 48.6501 765.39 50.1801 765.39 51.8001C765.39 55.5401 766.51 58.5201 768.74 60.7501C770.99 62.9801 773.8 64.1001 777.17 64.1001C778.77 64.1001 780.27 63.9501 781.66 63.6601C783.07 63.3701 784.36 63.0101 785.54 62.5701V77.0701C783.85 78.2401 782.05 79.0401 780.14 79.4801C778.24 79.9301 776.07 80.1601 773.65 80.1601C770.36 80.1601 767.15 79.4801 764.02 78.1301C760.91 76.7601 758.16 74.8601 755.77 72.4101C753.4 69.9401 751.48 67.0101 750.02 63.6001C748.56 60.1901 747.82 56.4101 747.82 52.2401C747.82 48.0701 748.55 44.5801 750.02 41.1701C751.49 37.7601 753.5 34.8001 756.07 32.2701C758.63 29.7501 761.71 27.7501 765.29 26.2801C768.89 24.8101 772.85 24.0801 777.18 24.0801C781.8 24.0801 785.97 24.7301 789.72 26.0201C793.46 27.3001 796.65 29.0701 799.29 31.3301C801.93 33.6101 803.97 36.3101 805.4 39.4301C806.82 42.5401 807.54 45.9301 807.54 49.5901V78.8301H807.52Z" fill="#931E1F"/>
<path d="M836.07 1.89008V78.8301H818.49V1.89008H836.07Z" fill="#931E1F"/>
<path d="M863.78 12.2201V24.9601H876.2V41.0201H863.66V55.3201C863.66 58.1001 864.26 60.0401 865.48 61.1301C866.69 62.2301 869.09 62.7701 872.67 62.7701C873.26 62.7701 873.84 62.7601 874.43 62.7101C875.02 62.6701 875.67 62.6201 876.4 62.5601V78.8201H866.07C863.08 78.8201 860.38 78.3601 858 77.4401C855.61 76.5201 853.6 75.2201 851.95 73.5401C850.31 71.8601 849.02 69.8401 848.1 67.4901C847.18 65.1401 846.72 62.5401 846.72 59.6801V12.2101H863.78V12.2201Z" fill="#931E1F"/>
<path d="M900.5 25.4001V56.6401C900.5 58.6801 900.97 60.4001 901.91 61.8101C902.86 63.2001 904.52 63.8901 906.87 63.8901C908.18 63.8901 909.22 63.6801 909.98 63.2401C910.76 62.7901 911.35 62.1801 911.74 61.4201C912.15 60.6401 912.42 59.7901 912.56 58.8701C912.71 57.9501 912.79 56.9801 912.79 55.9601V25.4001H929.73V60.1301C929.73 64.8301 928.53 68.8101 926.15 72.0801C923.76 75.3301 920.26 77.7301 915.64 79.2701V101.9H898.06V79.2701C888.39 76.3301 883.56 69.9601 883.56 60.1301V25.4001H900.5Z" fill="#931E1F"/>
</svg>
