<svg width="916" height="95" viewBox="0 0 916 95" fill="none" xmlns="http://www.w3.org/2000/svg">
<path d="M18.25 1.31995V26.2999H32.3398V1.31995H50.0801V72.7299H32.3398V43.4399H18.25V72.7299H0.490234V1.31995H18.25Z" fill="#7B89BB"/>
<path d="M114.66 72.7299H98.3101V49.4598C98.3101 45.3698 97.3602 42.2498 95.4502 40.0898C93.5602 37.9098 90.67 36.8199 86.79 36.8199C85.3 36.8199 83.8698 37.1099 82.5098 37.6899C81.1498 38.2599 79.9599 39.0199 78.9399 39.9799C77.9199 40.9299 77.1002 42.0599 76.4902 43.3899C75.8702 44.7199 75.5601 46.1399 75.5601 47.6399C75.5601 51.1099 76.5999 53.8798 78.6699 55.9498C80.7499 58.0198 83.3602 59.0599 86.4902 59.0599C87.9702 59.0599 89.3602 58.9199 90.6602 58.6499C91.9702 58.3799 93.1698 58.0399 94.2598 57.6399V71.0999C92.6898 72.1899 91.02 72.9298 89.25 73.3298C87.49 73.7498 85.48 73.9598 83.23 73.9598C80.18 73.9598 77.19 73.3298 74.29 72.0798C71.4 70.8098 68.8499 69.0399 66.6299 66.7699C64.4299 64.4799 62.65 61.7599 61.29 58.5999C59.93 55.4399 59.25 51.9199 59.25 48.0599C59.25 44.1999 59.93 40.9499 61.29 37.7899C62.65 34.6299 64.5199 31.8799 66.8999 29.5299C69.2799 27.1899 72.13 25.3298 75.46 23.9698C78.8 22.6098 82.4802 21.9299 86.4902 21.9299C90.7702 21.9299 94.6501 22.5299 98.1201 23.7299C101.59 24.9199 104.55 26.5599 107 28.6599C109.45 30.7699 111.34 33.2799 112.67 36.1799C113.99 39.0699 114.66 42.2199 114.66 45.6099V72.7499V72.7299Z" fill="#7B89BB"/>
<path d="M165.65 72.7299H149.93V44.0699C149.93 42.1599 149.45 40.5798 148.49 39.3298C147.54 38.0598 146.15 37.4199 144.32 37.4199C142.49 37.4199 141.08 38.0598 140.12 39.3298C139.17 40.5798 138.7 42.1599 138.7 44.0699V72.7299H123.01V43.9598C123.01 40.7698 123.48 37.8199 124.43 35.1299C125.37 32.4499 126.76 30.1199 128.6 28.1499C130.45 26.1699 132.69 24.6399 135.3 23.5499C137.92 22.4599 140.92 21.9199 144.32 21.9199C147.72 21.9199 150.74 22.4899 153.39 23.6099C156.06 24.7399 158.29 26.2698 160.09 28.2098C161.89 30.1398 163.26 32.4599 164.2 35.1899C165.16 37.9099 165.64 40.8398 165.64 43.9598V72.7299H165.65Z" fill="#7B89BB"/>
<path d="M189.71 23.1499V51.8099C189.71 53.7199 190.18 55.3098 191.13 56.5798C192.09 57.8298 193.49 58.4598 195.33 58.4598C197.17 58.4598 198.55 57.8298 199.5 56.5798C200.46 55.3098 200.94 53.7199 200.94 51.8099V23.1499H216.66V51.9199C216.66 55.1199 216.18 58.0599 215.22 60.7499C214.27 63.4399 212.9 65.7598 211.11 67.6998C209.31 69.6298 207.08 71.1499 204.41 72.2799C201.75 73.3999 198.73 73.9698 195.34 73.9698C191.95 73.9698 188.92 73.4298 186.27 72.3398C183.61 71.2498 181.38 69.7199 179.57 67.7599C177.77 65.7799 176.4 63.4499 175.46 60.7599C174.51 58.0799 174.04 55.1299 174.04 51.9299V23.1599H189.73L189.71 23.1499Z" fill="#7B89BB"/>
<path d="M303.86 21.3199C303.86 30.2999 299.81 35.1899 291.74 36.0099V36.1998C292.21 36.3498 292.92 36.5198 293.87 36.7198C294.83 36.9198 295.59 37.0899 296.13 37.2399C298.91 38.1099 300.91 39.1699 302.15 40.3999C304.06 42.2399 305.01 44.7899 305.01 48.0599V72.7399H287.03V50.9999C287.03 49.3099 286.43 48.0199 285.23 47.0999C284.04 46.1699 281.69 45.6399 278.17 45.4899H276.32V29.3599C279.59 29.3599 282 28.8899 283.57 27.9399C285.13 26.9999 285.91 25.0898 285.91 22.2198C285.91 20.2598 285.21 18.8299 283.81 17.9399C282.43 17.0499 281.02 16.5999 279.59 16.5999C277.28 16.5999 275.63 17.3599 274.63 18.8599C273.65 20.3499 273.16 22.7299 273.16 25.9999V72.7299H254.58V25.9999C254.58 22.1199 255.16 18.5799 256.32 15.3699C257.48 12.1799 259.14 9.45985 261.31 7.21985C263.49 4.96985 266.14 3.20984 269.27 1.95984C272.41 0.709839 275.99 0.079834 280 0.079834C283.39 0.079834 286.55 0.539849 289.48 1.46985C292.4 2.37985 294.94 3.71986 297.08 5.47986C299.22 7.23986 300.88 9.45988 302.07 12.1299C303.27 14.7899 303.87 17.8399 303.87 21.3099L303.86 21.3199Z" fill="#7B89BB"/>
<path d="M339.27 54.6699L333.03 44.8899L346.41 36.1199C345.25 35.4299 344.16 34.9699 343.14 34.7299C342.12 34.4999 341.1 34.3799 340.09 34.3799C338.51 34.3799 337.09 34.7498 335.84 35.4698C334.59 36.1798 333.5 37.1298 332.57 38.3298C331.66 39.5198 330.95 40.8599 330.44 42.3899C329.93 43.9199 329.68 45.4999 329.68 47.1299C329.68 48.8899 329.98 50.5299 330.58 52.0299C331.19 53.5199 332.01 54.8499 333.03 56.0099C334.04 57.1499 335.22 58.0498 336.54 58.7098C337.86 59.3598 339.24 59.6899 340.68 59.6899C343.53 59.6899 346.32 58.6498 349.04 56.5798C351.76 54.4998 353.84 51.8099 355.28 48.5399L367 54.5599C365.78 57.4899 364.22 60.1499 362.31 62.5399C360.4 64.9199 358.26 66.9699 355.88 68.6699C353.5 70.3599 350.93 71.6698 348.17 72.5898C345.42 73.4998 342.56 73.9498 339.56 73.9498C336.09 73.9498 332.8 73.2499 329.7 71.8499C326.61 70.4499 323.9 68.5499 321.55 66.1599C319.21 63.7499 317.35 60.9799 315.99 57.8499C314.63 54.7099 313.95 51.4099 313.95 47.9299C313.95 44.4499 314.63 41.1699 315.99 38.0399C317.35 34.8999 319.21 32.1399 321.55 29.7599C323.89 27.3799 326.6 25.4799 329.7 24.0699C332.81 22.6399 336.09 21.9199 339.56 21.9199C345.26 21.9199 350.06 23.3598 353.97 26.2198C357.89 29.0698 361.18 32.9098 363.83 37.7198L339.25 54.6699H339.27Z" fill="#7B89BB"/>
<path d="M426.39 1.31995V50.2799C426.39 53.8199 425.67 57.0399 424.24 59.9299C422.8 62.8199 420.82 65.3099 418.3 67.3999C415.79 69.4699 412.82 71.0899 409.39 72.2499C405.96 73.3899 402.23 73.9698 398.22 73.9698C394.21 73.9698 390.74 73.2999 387.4 71.9799C384.08 70.6599 381.19 68.8199 378.74 66.4799C376.29 64.1199 374.38 61.3598 373.02 58.1998C371.66 55.0398 370.98 51.5899 370.98 47.8499C370.98 43.9099 371.67 40.3399 373.08 37.1399C374.48 33.9499 376.38 31.2299 378.8 28.9899C381.21 26.7399 384.03 25.0099 387.25 23.7899C390.48 22.5599 393.9 21.9399 397.52 21.9399C399.35 21.9399 400.91 22.0599 402.21 22.2899C403.5 22.5299 404.55 22.8199 405.37 23.1599V38.2499C404.97 37.9799 404.21 37.6799 403.08 37.3499C401.95 37.0099 400.47 36.8298 398.64 36.8298C397.01 36.8298 395.49 37.0999 394.09 37.6499C392.71 38.1899 391.52 38.9599 390.52 39.9399C389.54 40.9199 388.76 42.0898 388.18 43.4498C387.59 44.8098 387.31 46.3098 387.31 47.9498C387.31 51.2198 388.36 53.8898 390.47 55.9598C392.6 58.0298 395.28 59.0699 398.53 59.0699C400.51 59.0699 402.21 58.7399 403.63 58.0599C405.06 57.3699 406.25 56.4499 407.2 55.3099C408.16 54.1499 408.88 52.7898 409.35 51.2198C409.82 49.6598 410.06 47.9898 410.06 46.2098V1.33984H426.41L426.39 1.31995Z" fill="#7B89BB"/>
<path d="M488.72 1.31995V50.2799C488.72 53.8199 488 57.0399 486.57 59.9299C485.13 62.8199 483.15 65.3099 480.63 67.3999C478.12 69.4699 475.15 71.0899 471.72 72.2499C468.29 73.3899 464.56 73.9698 460.55 73.9698C456.54 73.9698 453.07 73.2999 449.73 71.9799C446.41 70.6599 443.52 68.8199 441.07 66.4799C438.62 64.1199 436.71 61.3598 435.35 58.1998C433.99 55.0398 433.31 51.5899 433.31 47.8499C433.31 43.9099 434 40.3399 435.41 37.1399C436.81 33.9499 438.71 31.2299 441.13 28.9899C443.54 26.7399 446.36 25.0099 449.58 23.7899C452.81 22.5599 456.23 21.9399 459.85 21.9399C461.68 21.9399 463.24 22.0599 464.54 22.2899C465.83 22.5299 466.88 22.8199 467.7 23.1599V38.2499C467.3 37.9799 466.54 37.6799 465.41 37.3499C464.28 37.0099 462.8 36.8298 460.97 36.8298C459.34 36.8298 457.82 37.0999 456.42 37.6499C455.04 38.1899 453.85 38.9599 452.85 39.9399C451.87 40.9199 451.09 42.0898 450.51 43.4498C449.92 44.8098 449.64 46.3098 449.64 47.9498C449.64 51.2198 450.69 53.8898 452.8 55.9598C454.93 58.0298 457.61 59.0699 460.86 59.0699C462.84 59.0699 464.54 58.7399 465.96 58.0599C467.39 57.3699 468.58 56.4499 469.53 55.3099C470.49 54.1499 471.21 52.7898 471.68 51.2198C472.15 49.6598 472.39 47.9898 472.39 46.2098V1.33984H488.74L488.72 1.31995Z" fill="#7B89BB"/>
<path d="M512.68 23.1499V52.1399C512.68 54.0299 513.12 55.6299 513.99 56.9399C514.88 58.2299 516.41 58.8699 518.59 58.8699C519.8 58.8699 520.77 58.6699 521.48 58.2699C522.2 57.8499 522.75 57.2898 523.11 56.5798C523.49 55.8598 523.74 55.0698 523.87 54.2098C524.01 53.3598 524.09 52.4599 524.09 51.5099V23.1499H539.81V55.3799C539.81 59.7399 538.7 63.4398 536.49 66.4698C534.27 69.4898 531.02 71.7099 526.74 73.1499V94.1599H510.42V73.1499C501.44 70.4299 496.96 64.5099 496.96 55.3899V23.1599H512.68V23.1499Z" fill="#7B89BB"/>
<path d="M596.43 1.31995V25.8999C597.64 25.8999 598.62 25.7999 599.37 25.5999C600.11 25.3999 600.66 25.1599 601 24.8899C601.42 24.5499 601.79 24.0899 602.12 23.4999C602.46 22.9199 602.84 22.1899 603.24 21.3199L612.86 1.31995H633.16L623.87 20.4999C622.51 23.4299 621.2 25.6899 619.95 27.2799C618.7 28.8799 617.48 30.0499 616.33 30.7899C620.61 31.9299 623.84 33.8298 626 36.4598C628.18 39.0798 629.27 42.2199 629.27 45.8899V72.7299H610.72V49.7599C610.72 48.0699 610.49 46.7799 610.04 45.8599C609.6 44.9299 608.94 44.2299 608.05 43.7299C607.65 43.5299 607.16 43.3499 606.58 43.1899C605.99 43.0099 605.26 42.8799 604.37 42.7799C603.5 42.6699 602.42 42.5899 601.13 42.5299C599.84 42.4599 598.28 42.4199 596.44 42.4199V72.7198H578.68V1.30994H596.44L596.43 1.31995Z" fill="#7B89BB"/>
<path d="M662.32 54.6699L656.08 44.8899L669.46 36.1199C668.3 35.4299 667.21 34.9699 666.19 34.7299C665.17 34.4999 664.15 34.3799 663.14 34.3799C661.56 34.3799 660.14 34.7498 658.89 35.4698C657.64 36.1798 656.55 37.1298 655.62 38.3298C654.71 39.5198 654 40.8599 653.49 42.3899C652.98 43.9199 652.73 45.4999 652.73 47.1299C652.73 48.8899 653.03 50.5299 653.63 52.0299C654.24 53.5199 655.06 54.8499 656.08 56.0099C657.09 57.1499 658.27 58.0498 659.59 58.7098C660.91 59.3598 662.29 59.6899 663.73 59.6899C666.58 59.6899 669.37 58.6498 672.09 56.5798C674.81 54.4998 676.89 51.8099 678.33 48.5399L690.05 54.5599C688.83 57.4899 687.27 60.1499 685.36 62.5399C683.45 64.9199 681.31 66.9699 678.93 68.6699C676.55 70.3599 673.98 71.6698 671.22 72.5898C668.47 73.4998 665.61 73.9498 662.61 73.9498C659.14 73.9498 655.85 73.2499 652.75 71.8499C649.66 70.4499 646.95 68.5499 644.6 66.1599C642.26 63.7499 640.4 60.9799 639.04 57.8499C637.68 54.7099 637 51.4099 637 47.9299C637 44.4499 637.68 41.1699 639.04 38.0399C640.4 34.8999 642.26 32.1399 644.6 29.7599C646.94 27.3799 649.65 25.4799 652.75 24.0699C655.86 22.6399 659.14 21.9199 662.61 21.9199C668.31 21.9199 673.11 23.3598 677.02 26.2198C680.94 29.0698 684.23 32.9098 686.88 37.7198L662.3 54.6699H662.32Z" fill="#7B89BB"/>
<path d="M738.11 72.7299H722.39V44.0699C722.39 42.1599 721.91 40.5798 720.95 39.3298C720 38.0598 718.61 37.4199 716.78 37.4199C714.95 37.4199 713.54 38.0598 712.58 39.3298C711.63 40.5798 711.16 42.1599 711.16 44.0699V72.7299H695.47V43.9598C695.47 40.7698 695.94 37.8199 696.89 35.1299C697.83 32.4499 699.22 30.1199 701.06 28.1499C702.91 26.1699 705.15 24.6399 707.76 23.5499C710.38 22.4599 713.38 21.9199 716.78 21.9199C720.18 21.9199 723.2 22.4899 725.85 23.6099C728.52 24.7399 730.75 26.2698 732.55 28.2098C734.35 30.1398 735.72 32.4599 736.66 35.1899C737.62 37.9099 738.1 40.8398 738.1 43.9598V72.7299H738.11Z" fill="#7B89BB"/>
<path d="M789.12 72.7299H773.4V44.0699C773.4 42.1599 772.92 40.5798 771.96 39.3298C771.01 38.0598 769.62 37.4199 767.79 37.4199C765.96 37.4199 764.55 38.0598 763.59 39.3298C762.64 40.5798 762.17 42.1599 762.17 44.0699V72.7299H746.48V43.9598C746.48 40.7698 746.95 37.8199 747.9 35.1299C748.84 32.4499 750.23 30.1199 752.07 28.1499C753.92 26.1699 756.16 24.6399 758.77 23.5499C761.39 22.4599 764.39 21.9199 767.79 21.9199C771.19 21.9199 774.21 22.4899 776.86 23.6099C779.53 24.7399 781.76 26.2698 783.56 28.2098C785.36 30.1398 786.73 32.4599 787.67 35.1899C788.63 37.9099 789.11 40.8398 789.11 43.9598V72.7299H789.12Z" fill="#7B89BB"/>
<path d="M821.05 54.6699L814.81 44.8899L828.19 36.1199C827.03 35.4299 825.94 34.9699 824.92 34.7299C823.9 34.4999 822.88 34.3799 821.87 34.3799C820.29 34.3799 818.87 34.7498 817.62 35.4698C816.37 36.1798 815.28 37.1298 814.35 38.3298C813.44 39.5198 812.73 40.8599 812.22 42.3899C811.71 43.9199 811.46 45.4999 811.46 47.1299C811.46 48.8899 811.76 50.5299 812.36 52.0299C812.97 53.5199 813.79 54.8499 814.81 56.0099C815.82 57.1499 817 58.0498 818.32 58.7098C819.64 59.3598 821.02 59.6899 822.46 59.6899C825.31 59.6899 828.1 58.6498 830.82 56.5798C833.54 54.4998 835.62 51.8099 837.06 48.5399L848.78 54.5599C847.56 57.4899 846 60.1499 844.09 62.5399C842.18 64.9199 840.04 66.9699 837.66 68.6699C835.28 70.3599 832.71 71.6698 829.95 72.5898C827.2 73.4998 824.34 73.9498 821.34 73.9498C817.87 73.9498 814.58 73.2499 811.48 71.8499C808.39 70.4499 805.68 68.5499 803.33 66.1599C800.99 63.7499 799.13 60.9799 797.77 57.8499C796.41 54.7099 795.73 51.4099 795.73 47.9299C795.73 44.4499 796.41 41.1699 797.77 38.0399C799.13 34.8999 800.99 32.1399 803.33 29.7599C805.67 27.3799 808.38 25.4799 811.48 24.0699C814.59 22.6399 817.87 21.9199 821.34 21.9199C827.04 21.9199 831.84 23.3598 835.75 26.2198C839.67 29.0698 842.96 32.9098 845.61 37.7198L821.03 54.6699H821.05Z" fill="#7B89BB"/>
<path d="M872.34 1.31995V72.7299H856.02V1.31995H872.34Z" fill="#7B89BB"/>
<path d="M912.85 23.1499V36.4199H899.88C899.13 36.4199 898.42 36.6399 897.73 37.0699C897.06 37.5099 896.72 38.0699 896.72 38.7599C896.72 39.8499 898.76 41.2099 902.85 42.8499C906.92 44.4799 910.08 46.4299 912.36 48.6799C914.65 50.9099 915.79 53.7299 915.79 57.1299C915.79 62.3099 914.29 66.1999 911.29 68.8199C908.31 71.4399 904.27 72.7399 899.17 72.7399H880.51V58.8699H896.42C897.16 58.8699 897.79 58.6799 898.3 58.2999C898.8 57.9199 899.06 57.3599 899.06 56.6099C899.06 55.7399 898.55 55.0698 897.53 54.5898C896.51 54.0998 895.01 53.4499 893.03 52.6299C891.12 51.8099 889.42 50.9699 887.93 50.0999C886.44 49.2099 885.18 48.1799 884.14 46.9899C883.12 45.7899 882.34 44.4199 881.8 42.8499C881.26 41.2899 880.98 39.4199 880.98 37.2399C880.98 35.0599 881.4 33.1099 882.26 31.3799C883.11 29.6399 884.26 28.1599 885.72 26.9399C887.19 25.7099 888.86 24.7699 890.73 24.1299C892.6 23.4799 894.55 23.1499 896.59 23.1499H912.83H912.85Z" fill="#7B89BB"/>
</svg>
