<svg width="948" height="276" viewBox="0 0 948 276" fill="none" xmlns="http://www.w3.org/2000/svg">
<path d="M98.1101 2.42004V37.5601H117.92V2.42004H142.87V102.86H117.92V61.66H98.1101V102.86H73.1201V2.42004H98.1101Z" fill="#931E1F"/>
<path d="M233.71 102.86H210.72V70.13C210.72 64.38 209.38 59.99 206.7 56.95C204.04 53.88 199.97 52.35 194.51 52.35C192.41 52.35 190.41 52.76 188.49 53.58C186.57 54.38 184.9 55.45 183.47 56.8C182.03 58.13 180.88 59.73 180.02 61.59C179.15 63.46 178.72 65.4501 178.72 67.5701C178.72 72.4601 180.18 76.35 183.09 79.26C186.02 82.17 189.69 83.63 194.09 83.63C196.18 83.63 198.13 83.4401 199.95 83.0601C201.79 82.6801 203.48 82.21 205.01 81.64V100.57C202.81 102.1 200.46 103.15 197.96 103.71C195.48 104.29 192.65 104.59 189.49 104.59C185.2 104.59 181 103.71 176.92 101.95C172.86 100.17 169.27 97.68 166.15 94.48C163.06 91.26 160.56 87.43 158.64 82.98C156.72 78.53 155.77 73.59 155.77 68.15C155.77 62.71 156.73 58.15 158.64 53.7C160.56 49.25 163.18 45.38 166.53 42.09C169.87 38.79 173.89 36.19 178.56 34.27C183.25 32.35 188.43 31.4 194.08 31.4C200.11 31.4 205.56 32.2401 210.44 33.9301C215.32 35.6001 219.48 37.91 222.93 40.87C226.38 43.84 229.03 47.37 230.9 51.45C232.76 55.51 233.7 59.94 233.7 64.71V102.88L233.71 102.86Z" fill="#931E1F"/>
<path d="M305.43 102.86H283.32V62.55C283.32 59.87 282.64 57.64 281.29 55.88C279.96 54.1 278 53.2 275.43 53.2C272.86 53.2 270.88 54.1 269.53 55.88C268.2 57.64 267.54 59.87 267.54 62.55V102.86H245.47V62.39C245.47 57.9 246.13 53.76 247.46 49.97C248.78 46.2 250.74 42.92 253.32 40.16C255.93 37.38 259.07 35.2201 262.75 33.6801C266.43 32.1401 270.65 31.38 275.43 31.38C280.21 31.38 284.45 32.18 288.19 33.76C291.95 35.35 295.09 37.51 297.62 40.24C300.15 42.95 302.07 46.22 303.41 50.05C304.76 53.88 305.44 58 305.44 62.39V102.86H305.43Z" fill="#931E1F"/>
<path d="M339.27 33.12V73.4301C339.27 76.1101 339.93 78.35 341.26 80.14C342.61 81.9 344.57 82.78 347.16 82.78C349.75 82.78 351.69 81.9 353.02 80.14C354.37 78.36 355.05 76.1201 355.05 73.4301V33.12H377.16V73.59C377.16 78.09 376.48 82.23 375.13 86.01C373.8 89.79 371.87 93.05 369.34 95.78C366.81 98.49 363.67 100.64 359.91 102.22C356.17 103.8 351.92 104.6 347.15 104.6C342.38 104.6 338.12 103.83 334.39 102.3C330.65 100.77 327.51 98.62 324.96 95.86C322.43 93.08 320.5 89.8 319.17 86.01C317.84 82.24 317.18 78.1 317.18 73.59V33.12H339.25H339.27Z" fill="#931E1F"/>
<path d="M499.82 30.55C499.82 43.18 494.13 50.06 482.77 51.21V51.48C483.43 51.69 484.43 51.93 485.76 52.21C487.11 52.5 488.17 52.7401 488.94 52.9401C492.85 54.1701 495.67 55.65 497.41 57.39C500.09 59.98 501.43 63.56 501.43 68.16V102.88H476.14V72.3C476.14 69.9201 475.3 68.1001 473.61 66.8201C471.94 65.5201 468.64 64.7701 463.68 64.5601H461.07V41.87C465.67 41.87 469.06 41.21 471.26 39.88C473.45 38.56 474.56 35.88 474.56 31.83C474.56 29.07 473.57 27.0701 471.61 25.8101C469.67 24.5601 467.68 23.9301 465.67 23.9301C462.42 23.9301 460.09 24.99 458.7 27.11C457.32 29.21 456.63 32.55 456.63 37.15V102.87H430.49V37.15C430.49 31.69 431.3 26.71 432.94 22.2C434.57 17.71 436.91 13.88 439.95 10.74C443.02 7.57999 446.74 5.10997 451.14 3.33997C455.56 1.57997 460.59 0.699951 466.24 0.699951C471.01 0.699951 475.46 1.35002 479.58 2.65002C483.69 3.93002 487.25 5.81003 490.27 8.28003C493.28 10.76 495.62 13.87 497.28 17.63C498.97 21.37 499.81 25.67 499.81 30.54L499.82 30.55Z" fill="#931E1F"/>
<path d="M549.62 77.46L540.84 63.7L559.66 51.36C558.02 50.39 556.49 49.74 555.06 49.41C553.62 49.08 552.2 48.91 550.77 48.91C548.55 48.91 546.55 49.4301 544.79 50.4401C543.03 51.4401 541.49 52.78 540.19 54.46C538.91 56.13 537.91 58.02 537.2 60.17C536.48 62.32 536.13 64.54 536.13 66.84C536.13 69.32 536.55 71.62 537.39 73.74C538.25 75.84 539.4 77.71 540.84 79.33C542.27 80.94 543.92 82.2 545.78 83.12C547.64 84.04 549.58 84.5 551.6 84.5C555.6 84.5 559.53 83.04 563.36 80.13C567.19 77.2 570.11 73.42 572.14 68.83L588.62 77.3C586.91 81.42 584.71 85.16 582.03 88.53C579.35 91.88 576.33 94.76 572.99 97.15C569.64 99.53 566.03 101.37 562.15 102.67C558.29 103.94 554.26 104.59 550.04 104.59C545.15 104.59 540.54 103.6 536.17 101.64C531.82 99.68 528.01 97 524.71 93.63C521.41 90.24 518.81 86.3401 516.89 81.9401C514.97 77.5201 514.02 72.88 514.02 67.99C514.02 63.1 514.98 58.48 516.89 54.08C518.81 49.66 521.41 45.7801 524.71 42.4301C528.01 39.0901 531.82 36.41 536.17 34.42C540.54 32.41 545.16 31.39 550.04 31.39C558.06 31.39 564.81 33.4101 570.31 37.4401C575.83 41.4501 580.45 46.85 584.18 53.61L549.61 77.45L549.62 77.46Z" fill="#931E1F"/>
<path d="M672.16 2.42004V71.28C672.16 76.26 671.14 80.78 669.13 84.85C667.11 88.91 664.32 92.42 660.78 95.35C657.25 98.26 653.08 100.54 648.25 102.17C643.42 103.78 638.18 104.58 632.54 104.58C626.9 104.58 622.02 103.64 617.33 101.78C612.65 99.92 608.59 97.33 605.14 94.04C601.69 90.73 599.01 86.84 597.09 82.39C595.17 77.94 594.22 73.1 594.22 67.83C594.22 62.29 595.2 57.27 597.17 52.77C599.13 48.28 601.82 44.4501 605.22 41.3101C608.61 38.1501 612.58 35.71 617.1 33.99C621.64 32.26 626.46 31.38 631.55 31.38C634.13 31.38 636.32 31.55 638.14 31.88C639.95 32.22 641.44 32.63 642.59 33.11V54.34C642.02 53.96 640.95 53.54 639.37 53.08C637.78 52.6 635.7 52.35 633.12 52.35C630.82 52.35 628.68 52.73 626.72 53.5C624.78 54.27 623.1 55.34 621.7 56.72C620.32 58.1 619.22 59.75 618.4 61.66C617.58 63.58 617.17 65.68 617.17 67.98C617.17 72.58 618.65 76.33 621.62 79.25C624.61 82.16 628.38 83.62 632.96 83.62C635.74 83.62 638.13 83.1499 640.13 82.2C642.14 81.2299 643.82 79.94 645.15 78.33C646.5 76.7 647.51 74.79 648.18 72.58C648.84 70.39 649.18 68.04 649.18 65.53V2.41003H672.17L672.16 2.42004Z" fill="#931E1F"/>
<path d="M759.82 2.42004V71.28C759.82 76.26 758.8 80.78 756.79 84.85C754.77 88.91 751.98 92.42 748.44 95.35C744.91 98.26 740.74 100.54 735.91 102.17C731.08 103.78 725.84 104.58 720.2 104.58C714.56 104.58 709.68 103.64 704.99 101.78C700.31 99.92 696.25 97.33 692.8 94.04C689.35 90.73 686.67 86.84 684.75 82.39C682.83 77.94 681.88 73.1 681.88 67.83C681.88 62.29 682.86 57.27 684.83 52.77C686.79 48.28 689.48 44.4501 692.88 41.3101C696.27 38.1501 700.24 35.71 704.76 33.99C709.3 32.26 714.12 31.38 719.21 31.38C721.79 31.38 723.98 31.55 725.8 31.88C727.61 32.22 729.1 32.63 730.25 33.11V54.34C729.68 53.96 728.61 53.54 727.03 53.08C725.44 52.6 723.36 52.35 720.78 52.35C718.48 52.35 716.34 52.73 714.38 53.5C712.44 54.27 710.76 55.34 709.36 56.72C707.98 58.1 706.88 59.75 706.06 61.66C705.24 63.58 704.83 65.68 704.83 67.98C704.83 72.58 706.31 76.33 709.28 79.25C712.27 82.16 716.04 83.62 720.62 83.62C723.4 83.62 725.79 83.1499 727.79 82.2C729.8 81.2299 731.48 79.94 732.81 78.33C734.16 76.7 735.17 74.79 735.84 72.58C736.5 70.39 736.84 68.04 736.84 65.53V2.41003H759.83L759.82 2.42004Z" fill="#931E1F"/>
<path d="M793.52 33.12V73.89C793.52 76.55 794.13 78.8 795.36 80.63C796.61 82.45 798.77 83.35 801.84 83.35C803.55 83.35 804.91 83.07 805.9 82.51C806.92 81.93 807.68 81.13 808.2 80.13C808.74 79.11 809.09 78 809.27 76.8C809.47 75.6 809.58 74.34 809.58 73.01V33.12H831.69V78.45C831.69 84.58 830.13 89.78 827.01 94.05C823.89 98.29 819.32 101.43 813.29 103.44V132.99H790.34V103.44C777.71 99.6101 771.41 91.28 771.41 78.45V33.12H793.52Z" fill="#931E1F"/>
<path d="M69.49 201.78C69.49 203.42 69.2199 205.14 68.6899 206.95C68.1699 208.77 67.46 210.51 66.54 212.2C65.64 213.87 64.62 215.4 63.47 216.8C62.32 218.18 61.1101 219.25 59.8701 220.02C65.0201 222.5 68.7601 225.95 71.0601 230.37C73.3601 234.77 74.51 239.68 74.51 245.12C74.51 249.52 73.74 253.49 72.21 257.04C70.68 260.57 68.5401 263.58 65.8101 266.08C63.1001 268.56 59.8899 270.48 56.1899 271.83C52.5099 273.16 48.4701 273.82 44.0801 273.82H31.01V250.56C37.14 250.56 41.4101 249.95 43.8501 248.72C46.3001 247.47 47.53 245.12 47.53 241.67C47.53 238.05 46.08 235.61 43.2 234.35C40.34 233.1 36.27 232.47 31.01 232.47V211.55C35.04 211.55 38.11 210.84 40.21 209.4C42.3 207.94 43.3501 206.12 43.3501 203.92C43.3501 202.88 43.24 201.83 43.01 200.78C42.78 199.74 42.34 198.78 41.71 197.91C41.1 197.05 40.26 196.33 39.22 195.76C38.17 195.18 36.82 194.88 35.2 194.88C31.75 194.88 29.34 195.9 27.96 197.91C26.58 199.93 25.8899 202.18 25.8899 204.65V273.82H0.900024V208.1C0.900024 202.74 1.70006 197.81 3.31006 193.31C4.94006 188.82 7.29999 184.98 10.36 181.78C13.43 178.56 17.15 176.07 21.55 174.31C25.97 172.55 30.9901 171.67 36.6101 171.67C46.2901 171.67 53.9501 174.07 59.6001 178.84C62.7401 181.52 65.1699 184.84 66.8799 188.77C68.6099 192.68 69.49 197.03 69.49 201.8V201.78Z" fill="#931E1F"/>
<path d="M108.06 204.08V244.39C108.06 247.07 108.72 249.31 110.05 251.1C111.4 252.86 113.36 253.74 115.95 253.74C118.54 253.74 120.48 252.86 121.81 251.1C123.16 249.32 123.84 247.08 123.84 244.39V204.08H145.95V244.55C145.95 249.05 145.27 253.19 143.92 256.97C142.59 260.75 140.66 264.01 138.13 266.74C135.6 269.45 132.46 271.6 128.7 273.18C124.96 274.76 120.71 275.56 115.94 275.56C111.17 275.56 106.91 274.79 103.18 273.26C99.4399 271.73 96.3 269.58 93.75 266.82C91.22 264.04 89.29 260.76 87.96 256.97C86.63 253.2 85.97 249.06 85.97 244.55V204.08H108.04H108.06Z" fill="#931E1F"/>
<path d="M200.34 204.08V222.74H182.1C181.05 222.74 180.04 223.05 179.07 223.66C178.12 224.27 177.65 225.07 177.65 226.04C177.65 227.57 180.52 229.49 186.27 231.79C191.99 234.09 196.44 236.83 199.64 239.99C202.86 243.13 204.47 247.1 204.47 251.87C204.47 259.15 202.36 264.63 198.15 268.31C193.95 271.99 188.27 273.83 181.1 273.83H154.85V254.32H177.23C178.27 254.32 179.16 254.05 179.87 253.52C180.58 252.98 180.94 252.2 180.94 251.14C180.94 249.91 180.22 248.97 178.79 248.3C177.35 247.61 175.25 246.69 172.47 245.54C169.79 244.39 167.39 243.2 165.3 241.98C163.2 240.73 161.43 239.28 159.97 237.61C158.53 235.92 157.44 233.99 156.67 231.79C155.9 229.6 155.52 226.96 155.52 223.9C155.52 220.84 156.11 218.09 157.32 215.66C158.52 213.21 160.14 211.13 162.19 209.41C164.26 207.68 166.61 206.36 169.24 205.46C171.87 204.54 174.61 204.08 177.48 204.08H200.32H200.34Z" fill="#931E1F"/>
<path d="M240.63 184.69C240.63 188.43 239.37 191.54 236.84 194.04C234.31 196.52 231.23 197.76 227.6 197.76C223.97 197.76 220.86 196.52 218.33 194.04C215.8 191.54 214.54 188.43 214.54 184.69C214.54 180.95 215.8 177.86 218.33 175.38C220.86 172.91 223.94 171.66 227.6 171.66C231.26 171.66 234.31 172.91 236.84 175.38C239.37 177.86 240.63 180.97 240.63 184.69ZM239.06 204.08V273.82H216.11V204.08H239.06Z" fill="#931E1F"/>
<path d="M313.39 273.82H291.28V233.51C291.28 230.83 290.6 228.6 289.25 226.84C287.92 225.06 285.96 224.16 283.39 224.16C280.82 224.16 278.84 225.06 277.49 226.84C276.16 228.6 275.5 230.83 275.5 233.51V273.82H253.43V233.35C253.43 228.86 254.09 224.72 255.42 220.93C256.74 217.16 258.7 213.88 261.28 211.12C263.89 208.34 267.03 206.18 270.71 204.64C274.39 203.11 278.61 202.34 283.39 202.34C288.17 202.34 292.41 203.14 296.15 204.72C299.91 206.31 303.05 208.47 305.58 211.2C308.11 213.91 310.03 217.18 311.37 221.01C312.72 224.84 313.4 228.96 313.4 233.35V273.82H313.39Z" fill="#931E1F"/>
<path d="M358.3 248.42L349.52 234.66L368.34 222.32C366.7 221.35 365.17 220.7 363.74 220.37C362.3 220.04 360.88 219.87 359.45 219.87C357.23 219.87 355.23 220.39 353.47 221.4C351.71 222.4 350.17 223.74 348.87 225.42C347.59 227.09 346.59 228.98 345.88 231.13C345.16 233.28 344.81 235.5 344.81 237.8C344.81 240.28 345.23 242.58 346.07 244.7C346.93 246.8 348.08 248.67 349.52 250.29C350.95 251.9 352.6 253.16 354.46 254.08C356.32 255 358.26 255.46 360.28 255.46C364.28 255.46 368.21 254 372.04 251.09C375.87 248.16 378.79 244.38 380.82 239.79L397.3 248.26C395.59 252.38 393.39 256.12 390.71 259.49C388.03 262.84 385.01 265.72 381.67 268.11C378.32 270.49 374.71 272.33 370.83 273.63C366.97 274.9 362.94 275.55 358.72 275.55C353.83 275.55 349.22 274.56 344.85 272.6C340.5 270.64 336.69 267.96 333.39 264.59C330.09 261.2 327.49 257.3 325.57 252.9C323.65 248.48 322.7 243.84 322.7 238.95C322.7 234.06 323.66 229.44 325.57 225.04C327.49 220.62 330.09 216.74 333.39 213.39C336.69 210.05 340.5 207.37 344.85 205.38C349.22 203.37 353.84 202.35 358.72 202.35C366.74 202.35 373.49 204.37 378.99 208.4C384.51 212.41 389.13 217.81 392.86 224.57L358.29 248.41L358.3 248.42Z" fill="#931E1F"/>
<path d="M447.54 204.08V222.74H429.3C428.25 222.74 427.24 223.05 426.27 223.66C425.32 224.27 424.85 225.07 424.85 226.04C424.85 227.57 427.72 229.49 433.47 231.79C439.19 234.09 443.64 236.83 446.84 239.99C450.06 243.13 451.67 247.1 451.67 251.87C451.67 259.15 449.56 264.63 445.35 268.31C441.15 271.99 435.47 273.83 428.3 273.83H402.05V254.32H424.43C425.47 254.32 426.36 254.05 427.07 253.52C427.78 252.98 428.14 252.2 428.14 251.14C428.14 249.91 427.42 248.97 425.99 248.3C424.55 247.61 422.45 246.69 419.67 245.54C416.99 244.39 414.59 243.2 412.5 241.98C410.4 240.73 408.63 239.28 407.17 237.61C405.73 235.92 404.64 233.99 403.87 231.79C403.1 229.6 402.72 226.96 402.72 223.9C402.72 220.84 403.31 218.09 404.52 215.66C405.72 213.21 407.34 211.13 409.39 209.41C411.46 207.68 413.81 206.36 416.44 205.46C419.07 204.54 421.81 204.08 424.68 204.08H447.52H447.54Z" fill="#931E1F"/>
<path d="M503.35 204.08V222.74H485.11C484.06 222.74 483.05 223.05 482.08 223.66C481.13 224.27 480.66 225.07 480.66 226.04C480.66 227.57 483.53 229.49 489.28 231.79C495 234.09 499.45 236.83 502.65 239.99C505.87 243.13 507.48 247.1 507.48 251.87C507.48 259.15 505.37 264.63 501.16 268.31C496.96 271.99 491.28 273.83 484.11 273.83H457.86V254.32H480.24C481.28 254.32 482.17 254.05 482.88 253.52C483.59 252.98 483.95 252.2 483.95 251.14C483.95 249.91 483.23 248.97 481.8 248.3C480.36 247.61 478.26 246.69 475.48 245.54C472.8 244.39 470.4 243.2 468.31 241.98C466.21 240.73 464.44 239.28 462.98 237.61C461.54 235.92 460.45 233.99 459.68 231.79C458.91 229.6 458.53 226.96 458.53 223.9C458.53 220.84 459.12 218.09 460.33 215.66C461.53 213.21 463.15 211.13 465.2 209.41C467.27 207.68 469.62 206.36 472.25 205.46C474.88 204.54 477.62 204.08 480.49 204.08H503.33H503.35Z" fill="#931E1F"/>
<path d="M616.82 173.38V197.48H606.05C598.69 197.48 592.73 199.7 588.19 204.15C583.64 208.6 581.37 215.07 581.37 223.58C581.37 232.09 583.67 238.6 588.27 243.05C592.87 247.5 598.75 249.72 605.94 249.72H616.82V273.82H601.18C594.67 273.82 588.61 272.51 583.02 269.87C577.43 267.24 572.57 263.65 568.46 259.1C564.34 254.56 561.11 249.25 558.76 243.2C556.43 237.13 555.27 230.58 555.27 223.58C555.27 216.58 556.43 210.21 558.76 204.07C561.11 197.94 564.34 192.6 568.46 188.05C572.57 183.51 577.43 179.93 583.02 177.32C588.61 174.69 594.67 173.37 601.18 173.37H616.82V173.38Z" fill="#931E1F"/>
<path d="M661.31 248.42L652.53 234.66L671.35 222.32C669.71 221.35 668.18 220.7 666.75 220.37C665.31 220.04 663.89 219.87 662.46 219.87C660.24 219.87 658.24 220.39 656.48 221.4C654.72 222.4 653.18 223.74 651.88 225.42C650.6 227.09 649.6 228.98 648.89 231.13C648.17 233.28 647.82 235.5 647.82 237.8C647.82 240.28 648.24 242.58 649.08 244.7C649.94 246.8 651.09 248.67 652.53 250.29C653.96 251.9 655.61 253.16 657.47 254.08C659.33 255 661.27 255.46 663.29 255.46C667.29 255.46 671.22 254 675.05 251.09C678.88 248.16 681.8 244.38 683.83 239.79L700.31 248.26C698.6 252.38 696.4 256.12 693.72 259.49C691.04 262.84 688.02 265.72 684.68 268.11C681.33 270.49 677.72 272.33 673.84 273.63C669.98 274.9 665.95 275.55 661.73 275.55C656.84 275.55 652.23 274.56 647.86 272.6C643.51 270.64 639.7 267.96 636.4 264.59C633.1 261.2 630.5 257.3 628.58 252.9C626.66 248.48 625.71 243.84 625.71 238.95C625.71 234.06 626.67 229.44 628.58 225.04C630.5 220.62 633.1 216.74 636.4 213.39C639.7 210.05 643.51 207.37 647.86 205.38C652.23 203.37 656.85 202.35 661.73 202.35C669.75 202.35 676.5 204.37 682 208.4C687.52 212.41 692.14 217.81 695.87 224.57L661.3 248.41L661.31 248.42Z" fill="#931E1F"/>
<path d="M767.91 273.82H745.8V233.51C745.8 230.83 745.12 228.6 743.77 226.84C742.44 225.06 740.48 224.16 737.91 224.16C735.34 224.16 733.36 225.06 732.01 226.84C730.68 228.6 730.02 230.83 730.02 233.51V273.82H707.95V233.35C707.95 228.86 708.61 224.72 709.94 220.93C711.26 217.16 713.22 213.88 715.8 211.12C718.41 208.34 721.55 206.18 725.23 204.64C728.91 203.11 733.13 202.34 737.91 202.34C742.69 202.34 746.93 203.14 750.67 204.72C754.43 206.31 757.57 208.47 760.1 211.2C762.63 213.91 764.55 217.18 765.89 221.01C767.24 224.84 767.92 228.96 767.92 233.35V273.82H767.91Z" fill="#931E1F"/>
<path d="M801.48 186.87V203.5H817.69V224.46H801.33V243.12C801.33 246.75 802.12 249.28 803.71 250.71C805.29 252.15 808.42 252.86 813.1 252.86C813.87 252.86 814.63 252.84 815.4 252.78C816.17 252.73 817.02 252.67 817.97 252.59V273.82H804.48C800.57 273.82 797.06 273.23 793.94 272.02C790.82 270.82 788.19 269.13 786.05 266.92C783.9 264.73 782.23 262.09 781.03 259.03C779.82 255.96 779.23 252.57 779.23 248.84V186.87H801.49H801.48Z" fill="#931E1F"/>
<path d="M846.8 204.08V215.69H847.11C848.54 211.47 850.71 208.49 853.62 206.72C856.53 204.96 861.05 204.08 867.19 204.08V225.04C863.45 225.33 860.46 225.68 858.22 226.11C855.97 226.55 854.22 227.29 852.97 228.33C851.71 229.38 850.87 230.86 850.44 232.78C850.03 234.7 849.83 237.23 849.83 240.37V273.82H826.88V204.08H846.81H846.8Z" fill="#931E1F"/>
<path d="M908.37 248.42L899.59 234.66L918.41 222.32C916.77 221.35 915.24 220.7 913.81 220.37C912.37 220.04 910.95 219.87 909.52 219.87C907.3 219.87 905.3 220.39 903.54 221.4C901.78 222.4 900.24 223.74 898.94 225.42C897.66 227.09 896.66 228.98 895.95 231.13C895.23 233.28 894.88 235.5 894.88 237.8C894.88 240.28 895.3 242.58 896.14 244.7C897 246.8 898.15 248.67 899.59 250.29C901.02 251.9 902.67 253.16 904.53 254.08C906.39 255 908.33 255.46 910.35 255.46C914.35 255.46 918.28 254 922.11 251.09C925.94 248.16 928.86 244.38 930.89 239.79L947.37 248.26C945.66 252.38 943.46 256.12 940.78 259.49C938.1 262.84 935.08 265.72 931.74 268.11C928.39 270.49 924.78 272.33 920.9 273.63C917.04 274.9 913.01 275.55 908.79 275.55C903.9 275.55 899.29 274.56 894.92 272.6C890.57 270.64 886.76 267.96 883.46 264.59C880.16 261.2 877.56 257.3 875.64 252.9C873.72 248.48 872.77 243.84 872.77 238.95C872.77 234.06 873.73 229.44 875.64 225.04C877.56 220.62 880.16 216.74 883.46 213.39C886.76 210.05 890.57 207.37 894.92 205.38C899.29 203.37 903.91 202.35 908.79 202.35C916.81 202.35 923.56 204.37 929.06 208.4C934.58 212.41 939.2 217.81 942.93 224.57L908.36 248.41L908.37 248.42Z" fill="#931E1F"/>
</svg>
