<svg width="939" height="219" viewBox="0 0 939 219" fill="none" xmlns="http://www.w3.org/2000/svg">
<path d="M148.67 81.3202H147.34C145.32 81.3202 143.77 81.1902 142.57 80.9102C141.31 80.6402 140.45 80.0501 139.8 78.9901C139.06 77.7801 138.68 75.6502 138.68 72.6602V46.2201H169.5V72.7701C169.5 76.5201 168.9 78.2002 168.42 78.9302C167.67 80.0102 166.77 80.6502 165.59 80.9202C164.39 81.2002 162.92 81.3202 160.95 81.3202H159.52V85.4001H211.21V81.3202H209.88C208.08 81.3202 206.04 81.3202 205.41 80.4302C205.1 79.9902 204.75 78.7901 205.86 75.6501L212.34 58.2001L213.99 53.7001C226.91 54.0201 237.43 61.0801 242.26 72.7701C242.38 73.0401 245.2 79.3001 247.04 81.7201C249.63 84.9801 253.37 86.5001 258.83 86.5001C265.61 86.5001 269.81 80.2302 269.81 74.4202V73.4102L265.95 72.3601V74.1001C265.95 76.3601 264.92 78.8002 263.38 80.1902C262.16 81.0502 261.5 80.9801 261.11 80.8501C260.08 80.5101 258.44 78.8402 256.47 72.8102L231.11 4.30017H227.84L201.52 75.6101C199.37 81.3201 197.53 81.3401 193.56 81.3401H192.23C190.21 81.3401 188.66 81.2102 187.46 80.9302C186.2 80.6602 185.34 80.0701 184.69 79.0101C183.95 77.8001 183.57 75.6702 183.57 72.6802V17.8102C183.57 14.7502 183.95 12.5801 184.69 11.3701C185.33 10.3201 186.18 9.73008 187.42 9.46008C188.75 9.26008 190.41 9.15015 192.23 9.15015H193.56V5.07019H159.52V9.15015H160.95C162.72 9.15015 164.29 9.25008 165.64 9.46008C166.79 9.73008 167.67 10.3501 168.4 11.4001C169.13 12.6201 169.5 14.7401 169.5 17.7001V42.1602H138.68V17.8102C138.68 14.7502 139.06 12.5801 139.8 11.3701C140.44 10.3201 141.29 9.73008 142.53 9.46008C143.86 9.26008 145.52 9.15015 147.34 9.15015H148.67V5.07019H114.74V9.15015H116.07C117.84 9.15015 119.41 9.25008 120.76 9.46008C121.91 9.73008 122.79 10.3501 123.52 11.4001C124.25 12.6101 124.62 14.7301 124.62 17.7001V72.7902C124.62 76.5402 124.02 78.2201 123.54 78.9501C122.79 80.0301 121.89 80.6602 120.71 80.9402C119.51 81.2202 118.04 81.3401 116.07 81.3401H114.74V85.4202H148.67V81.3401V81.3202ZM237.14 58.5702C236.87 58.3202 236.59 58.0702 236.31 57.8202C230.57 52.9302 223.4 50.1302 215.48 49.6702L224.49 24.9001L237.14 58.5702Z" fill="#83D0CF"/>
<path d="M276.44 9.45007C278.26 9.65007 278.93 10.3502 279.21 10.7802V72.7701C279.21 76.5201 278.61 78.2002 278.13 78.9302C277.38 80.0102 276.48 80.6402 275.3 80.9202C274.1 81.2002 272.63 81.3202 270.66 81.3202H269.33V85.4001H293.05V81.3202H291.72C289.85 81.3202 288.37 81.1902 287.17 80.9102C285.91 80.6402 285.05 80.0501 284.4 78.9901L284.33 78.8901C283.56 77.8601 283.17 75.8001 283.17 72.7701V16.5001L331.57 85.3901L332.32 86.1702H335.84V17.8002C335.84 14.6702 336.23 12.5802 337.03 11.4202L337.07 11.3601C337.71 10.3101 338.56 9.72007 339.8 9.45007C341.15 9.25007 342.73 9.14014 344.5 9.14014H346.68C348.44 9.14014 350.01 9.24007 351.48 9.45007C352.63 9.73007 353.5 10.3501 354.24 11.3901C354.97 12.6001 355.34 14.7602 355.34 17.8002V58.7301C355.34 68.7401 358.01 75.8201 363.49 80.3701C368.26 84.4401 375.53 86.5101 385.09 86.5101C393.61 86.5101 400.35 84.0902 405.12 79.3202C409.89 74.5502 412.31 67.7702 412.31 59.1802V17.8102C412.31 14.7502 412.69 12.5801 413.43 11.3701C414.07 10.3201 414.92 9.73008 416.16 9.46008C417.49 9.26008 419.15 9.15015 420.97 9.15015H422.3V5.07019H398.36V9.15015H399.69C401.46 9.15015 403.03 9.25008 404.38 9.46008C405.53 9.74008 406.41 10.3501 407.14 11.4001C407.87 12.6101 408.24 14.7301 408.24 17.7001V59.1802C408.24 66.5802 406.35 72.1601 402.46 76.2601C398.64 80.2801 393.17 82.3202 386.19 82.3202C380.14 82.3202 375.94 80.4301 373.34 76.5201C370.73 72.7601 369.41 66.7801 369.41 58.7301V17.6902C369.41 14.7002 369.79 12.5701 370.53 11.3601C371.18 10.3101 372.02 9.72007 373.26 9.45007C374.61 9.25007 376.19 9.14014 377.96 9.14014H379.29V5.06018H322.11V9.14014H323.44C325.1 9.14014 326.68 9.24007 328.13 9.45007C329.26 9.72007 330.13 10.3201 330.77 11.2701C331.51 12.4801 331.88 14.6001 331.88 17.5801V61.7301L291.82 5.72009L291.18 5.06018H269.33V9.14014H270.66C272.58 9.14014 274.52 9.25008 276.44 9.46008V9.45007Z" fill="#83D0CF"/>
<path d="M531.71 73.2201L527.96 72.4701V74.0901C527.96 77.3001 525.63 81.2101 522.92 81.2101C520.96 81.2101 520.18 80.6302 519.68 78.8102C519.08 76.6102 519.08 72.8001 519.08 67.5302V66.8401C519.08 58.6401 516.78 52.6501 512.02 48.4901C509.54 46.4101 506.47 44.8502 502.71 43.7802C505.16 42.9102 507.31 41.7601 509.13 40.3401C513.47 36.9401 515.67 32.2301 515.67 26.3501C515.67 19.0901 512.85 13.5501 507.29 9.88013C502.48 6.68013 495.59 5.05017 486.8 5.05017H454.75V9.13013H456.08C461.59 9.13013 464.63 9.13016 464.63 17.7902V72.6602C464.63 81.3202 461.59 81.3202 456.08 81.3202H454.75V85.4001H488.57V81.3202H487.24C481.84 81.3202 478.58 81.3202 478.58 72.6602V46.1101H486.03C497.22 46.1101 504.02 47.1702 504.02 61.7902C504.02 71.7302 505.4 78.1302 508.36 81.9202L508.4 81.9701C511.74 85.8601 516.44 86.3901 520.6 86.3901C527.84 86.3901 531.69 79.3702 531.69 74.3102V73.2201H531.71ZM498.74 14.3202C500.91 17.7802 501.19 22.5701 501.19 26.3501C501.19 37.0501 497.15 42.0402 488.47 42.0402H478.6V9.14014H486.93C492.69 9.14014 496.55 10.8401 498.74 14.3301V14.3202Z" fill="#83D0CF"/>
<path d="M578.01 60.7101V25.3601H573.93V26.9801C573.3 37.1101 569.39 41.0602 560 41.0602H558.24V45.1401H560C564.86 45.1401 568.4 46.3202 570.54 48.6602C572.5 50.8202 573.61 54.2001 573.93 59.0101V60.7301H578.01V60.7101Z" fill="#83D0CF"/>
<path d="M595.64 58.2701H591.51L591.22 59.1902C590.62 61.0602 588.34 67.5901 583.98 73.1401C579.71 78.5701 574.9 81.3202 569.66 81.3202H555.07V9.13013H569C579.83 9.13013 585.61 14.7102 586.66 26.1902V27.8901H590.74V5.05017H531.24V9.13013H532.57C537.9 9.13013 541.12 9.13018 541.12 17.6802V72.7701C541.12 81.3201 537.9 81.3202 532.57 81.3202H531.24V85.4001H588.23L595.65 58.2802L595.64 58.2701Z" fill="#83D0CF"/>
<path d="M665.34 72.3301C673.06 63.7101 674.68 52.8301 674.68 45.2201C674.68 37.6101 673.06 26.6201 665.34 18.0001C657.65 9.41012 645.65 5.05017 629.67 5.05017H595.86V9.13013H597.19C602.78 9.13013 605.85 9.13016 605.85 17.7902V72.6602C605.85 81.3202 602.77 81.3202 597.19 81.3202H595.86V85.4001H629.67C645.58 85.4001 657.58 81.0101 665.34 72.3401V72.3301ZM619.8 9.13013H629.67C641.67 9.13013 650.19 13.2001 654.99 21.2301C658.4 26.8201 660.06 34.6701 660.06 45.2301C660.06 55.7901 658.4 63.5301 654.98 69.1301C650.15 77.2201 641.63 81.3202 629.67 81.3202H619.8V9.13013Z" fill="#83D0CF"/>
<path d="M746.97 72.3301C754.69 63.7101 756.31 52.8301 756.31 45.2201C756.31 37.6101 754.69 26.6201 746.97 18.0001C739.28 9.41012 727.28 5.05017 711.31 5.05017H677.5V9.13013H678.83C684.42 9.13013 687.49 9.13016 687.49 17.7902V72.6602C687.49 81.3202 684.41 81.3202 678.83 81.3202H677.5V85.4001H711.31C727.22 85.4001 739.22 81.0101 746.97 72.3401V72.3301ZM701.43 9.13013H711.3C723.3 9.13013 731.82 13.2001 736.62 21.2301C740.03 26.8201 741.69 34.6701 741.69 45.2301C741.69 55.7901 740.03 63.5301 736.61 69.1301C731.78 77.2201 723.26 81.3202 711.3 81.3202H701.43V9.13013Z" fill="#83D0CF"/>
<path d="M756.46 9.34009C757.63 9.53009 758.83 10.0901 760.04 11.0101C761.39 12.2601 762.69 13.9801 763.91 16.1401L783.93 51.2802V72.6602C783.93 75.6502 783.55 77.7801 782.81 78.9901C782.16 80.0501 781.3 80.6402 780.04 80.9102C778.72 81.1902 777.25 81.3202 775.27 81.3202H773.94V85.4001H807.87V81.3202H806.54C804.57 81.3202 803.1 81.1902 801.88 80.9102C800.62 80.6402 799.76 80.0501 799.11 78.9901L799.07 78.9302C798.27 77.7702 797.88 75.7202 797.88 72.6602V47.8601L814.72 16.1401C816.05 13.7901 817.38 12.0201 818.58 11.0201L818.62 10.9801C819.63 10.0701 820.68 9.53009 821.83 9.34009C823.29 9.23009 824.74 9.13013 826.4 9.13013H827.73V5.05017H805.55V9.13013H806.88C808.19 9.13013 809.46 9.23019 810.83 9.44019C811.91 9.62019 812.18 10.1001 812.29 10.4601C812.49 11.1901 811.93 12.8202 810.64 15.3102L795.75 43.3601L779.62 15.0801C777.86 11.8301 777.88 10.7901 777.97 10.5001C778.13 9.98012 778.42 9.60007 779.35 9.45007C780.47 9.25007 781.72 9.14014 783.06 9.14014H784.39V5.06018H750.35V9.14014H751.68C753.45 9.14014 755.02 9.2401 756.46 9.3501V9.34009Z" fill="#83D0CF"/>
<path d="M172.98 205.07L169.12 204.02V205.76C169.12 208.02 168.09 210.46 166.55 211.85C165.33 212.71 164.67 212.64 164.28 212.51C163.25 212.17 161.61 210.5 159.64 204.47L134.28 135.96H131.01L104.69 207.27C102.53 213 100.7 212.99 96.7 213H95.41C93.43 213 91.96 212.87 90.64 212.59C89.38 212.32 88.52 211.73 87.87 210.67C87.13 209.46 86.75 207.33 86.75 204.34V149.47C86.75 146.41 87.13 144.24 87.87 143.03C88.51 141.98 89.35 141.39 90.6 141.12C92.07 140.91 93.65 140.81 95.41 140.81H96.74V136.73H73.1L50.52 196.45L27.95 137.8L27.42 136.73H4.19995V140.81H5.52995C7.28995 140.81 8.85995 140.91 10.33 141.12C11.49 141.4 12.33 142.01 12.96 143.03C13.7 144.24 14.08 146.37 14.08 149.36V204.45C14.08 208.2 13.48 209.88 12.99 210.63L12.96 210.67C12.32 211.71 11.47 212.32 10.3 212.59C8.97995 212.87 7.50995 213 5.52995 213H4.19995V217.08H28.03V213H26.7C24.73 213 23.26 212.87 22.04 212.59C20.78 212.32 19.92 211.73 19.27 210.67L19.24 210.63C18.74 209.88 18.15 208.2 18.15 204.45V149.56L43.7799 217.08H47.04L72.67 149.17V204.46C72.67 208.21 72.08 209.89 71.58 210.64L71.56 210.68C70.92 211.72 70.07 212.33 68.9 212.6C67.58 212.88 66.1099 213.01 64.1299 213.01H62.7999V217.09H114.38V213.01H113.05C111.25 213.01 109.21 213.01 108.58 212.12C108.27 211.68 107.92 210.48 109.03 207.34L115.51 189.89L117.16 185.39C130.08 185.71 140.6 192.77 145.43 204.46C145.55 204.73 148.37 210.99 150.21 213.41C152.8 216.67 156.54 218.19 162 218.19C168.78 218.19 172.98 211.92 172.98 206.11V205.1V205.07ZM140.32 190.24C140.05 189.99 139.77 189.74 139.49 189.49C133.75 184.6 126.58 181.8 118.66 181.34L127.67 156.57L140.32 190.24Z" fill="#83D0CF"/>
<path d="M249.01 136.72H225.29V140.8H226.62C228.28 140.8 229.86 140.9 231.31 141.11C232.45 141.38 233.31 141.98 233.95 142.93C234.69 144.14 235.06 146.26 235.06 149.24V193.39L195 137.38L194.36 136.72H172.51V140.8H173.84C175.76 140.8 177.7 140.91 179.62 141.12C181.44 141.32 182.11 142.02 182.39 142.45V204.44C182.39 208.19 181.79 209.87 181.31 210.6C180.56 211.68 179.66 212.31 178.48 212.59C177.28 212.87 175.81 212.99 173.84 212.99H172.51V217.07H196.23V212.99H194.9C193.03 212.99 191.55 212.86 190.35 212.58C189.09 212.31 188.23 211.72 187.58 210.66L187.51 210.56C186.74 209.53 186.35 207.47 186.35 204.44V148.17L234.75 217.06L235.5 217.84H239.02V149.47C239.02 146.34 239.41 144.25 240.21 143.09L240.25 143.03C240.89 141.98 241.74 141.39 242.98 141.12C244.33 140.92 245.91 140.81 247.68 140.81H249.01V136.73V136.72Z" fill="#83D0CF"/>
<path d="M292.22 186.34H304.08C305.65 186.34 306.92 187.62 306.92 189.19C306.92 201.48 303.96 208.95 297.87 212.05C295.78 213.14 293.22 213.78 290.06 213.99C289.98 213.99 289.85 214 289.7 214.02C289.36 214.05 288.72 214.1 288.39 214.1C287.07 214.1 284.75 213.79 284.72 213.78C265.96 211.37 263.16 189.64 263.16 176.91C263.16 171.4 263.83 160.87 268.28 152.28C272.66 143.83 279.24 139.72 288.39 139.72C297.54 139.72 302.91 145.05 304.69 149.62C306.3 153.75 305.49 157.84 302.53 160.57L301.21 161.79L314.56 169.56L315.26 168.57C316.96 166.17 317.48 161.66 316.57 157.06C315.75 152.9 313.03 145.07 304 139.34C300.49 137.19 293.93 135.63 288.38 135.63C277.13 135.63 266.84 140.03 259.42 148.02C252.4 155.71 248.54 165.97 248.54 176.9C248.54 187.83 252.25 198.15 258.98 205.55C266.34 213.73 276.01 218.06 286.96 218.06C300.07 218.06 307.84 212.02 312.05 206.95C316.75 201.29 319.56 193.85 319.86 186.34H326.69V182.26H292.22V186.34Z" fill="#83D0CF"/>
<path d="M368.27 135.62C357.02 135.62 346.73 140.02 339.31 148.01C332.29 155.7 328.43 165.96 328.43 176.89C328.43 187.82 332.3 197.97 339.31 205.55C346.76 213.68 357.04 218.16 368.27 218.16C379.5 218.16 389.68 213.68 397.12 205.55C404.21 197.89 408.12 187.71 408.12 176.89C408.12 166.07 404.22 155.79 397.12 148.01C389.7 140.02 379.46 135.62 368.28 135.62H368.27ZM348.26 152.26C352.58 143.92 359.31 139.7 368.26 139.7C377.21 139.7 383.94 143.93 388.27 152.28C392.81 160.84 393.49 171.38 393.49 176.9C393.49 186.89 391.44 195.96 387.71 202.45C383.28 210.17 376.73 214.09 368.26 214.09C349.74 214.09 343.14 194.88 343.14 176.9C343.14 171.39 343.81 160.86 348.26 152.27V152.26Z" fill="#83D0CF"/>
<path d="M443.85 160.66H447.93V158.98L447.95 158.86C448.68 152.96 449.26 148.31 451.74 145.33C454.36 142.19 459.28 140.8 467.67 140.8H471.72V204.33C471.72 212.99 468.46 212.99 463.06 212.99H461.73V217.07H495.77V212.99H494.44C489.04 212.99 485.78 212.99 485.78 204.33V140.8H489.83C507.45 140.8 508.15 146.78 509.54 158.69L509.58 159.05L509.97 160.66H513.65V136.72H443.84V160.66H443.85Z" fill="#83D0CF"/>
<path d="M556.33 135.62C545.08 135.62 534.79 140.02 527.37 148.01C520.35 155.7 516.49 165.96 516.49 176.89C516.49 187.82 520.36 197.97 527.37 205.55C534.82 213.68 545.1 218.16 556.33 218.16C567.56 218.16 577.74 213.68 585.18 205.55C592.27 197.89 596.18 187.71 596.18 176.89C596.18 166.07 592.28 155.79 585.18 148.01C577.76 140.02 567.52 135.62 556.34 135.62H556.33ZM536.32 152.26C540.64 143.92 547.37 139.7 556.32 139.7C565.27 139.7 572 143.93 576.33 152.28C580.87 160.84 581.55 171.38 581.55 176.9C581.55 186.89 579.5 195.96 575.77 202.45C571.34 210.17 564.79 214.09 556.32 214.09C537.8 214.09 531.2 194.88 531.2 176.9C531.2 171.39 531.87 160.86 536.32 152.27V152.26Z" fill="#83D0CF"/>
<path d="M750.21 204.88L746.46 204.13V205.75C746.46 208.96 744.13 212.87 741.42 212.87C739.46 212.87 738.68 212.29 738.18 210.47C737.58 208.27 737.58 204.46 737.58 199.19V198.5C737.58 190.3 735.28 184.31 730.52 180.15C728.04 178.07 724.96 176.51 721.21 175.44C723.66 174.57 725.81 173.42 727.63 172C731.97 168.6 734.17 163.89 734.17 158.01C734.17 150.75 731.35 145.21 725.79 141.54C720.98 138.34 714.09 136.71 705.3 136.71H649.78V140.79H651.11C652.88 140.79 654.45 140.89 655.8 141.1C656.95 141.37 657.83 141.99 658.56 143.04C659.29 144.25 659.66 146.37 659.66 149.34V190.82C659.66 198.22 657.77 203.81 653.88 207.9C650.06 211.92 644.59 213.96 637.61 213.96C631.56 213.96 627.37 212.07 624.76 208.16C622.15 204.4 620.83 198.42 620.83 190.37V149.33C620.83 146.34 621.21 144.21 621.95 143C622.59 141.95 623.44 141.36 624.68 141.09C626.03 140.89 627.61 140.78 629.38 140.78H630.71V136.7H596.78V140.78H598.11C599.87 140.78 601.44 140.88 602.91 141.09C604.05 141.37 604.93 141.98 605.67 143.03C606.4 144.25 606.77 146.4 606.77 149.44V190.37C606.77 200.38 609.44 207.46 614.92 212.01C619.69 216.08 626.96 218.15 636.52 218.15C645.04 218.15 651.78 215.73 656.55 210.96C661.32 206.18 663.74 199.41 663.74 190.82V149.45C663.74 146.39 664.12 144.22 664.86 143.01C665.51 141.96 666.35 141.37 667.59 141.1C668.92 140.9 670.58 140.79 672.4 140.79H674.58C680.09 140.79 683.13 140.79 683.13 149.45V204.32C683.13 212.98 680.09 212.98 674.58 212.98H673.25V217.06H707.07V212.98H705.74C700.34 212.98 697.08 212.98 697.08 204.32V177.77H704.53C715.72 177.77 722.52 178.83 722.52 193.45C722.52 203.39 723.9 209.79 726.86 213.58L726.9 213.63C730.23 217.52 734.94 218.05 739.1 218.05C746.34 218.05 750.19 211.03 750.19 205.97V204.88H750.21ZM717.24 145.99C719.41 149.45 719.69 154.23 719.69 158.02C719.69 168.72 715.65 173.7 706.97 173.7H697.1V140.8H705.43C711.19 140.8 715.05 142.5 717.24 145.99Z" fill="#83D0CF"/>
<path d="M749.75 140.8H751.08C752.84 140.8 754.41 140.9 755.88 141.11C757.03 141.39 757.9 142.01 758.64 143.05C759.37 144.26 759.74 146.42 759.74 149.46V204.33C759.74 207.3 759.37 209.42 758.64 210.63C757.89 211.69 757 212.32 755.85 212.58C754.53 212.86 753.06 212.99 751.08 212.99H749.75V217.07H783.57V212.99H782.24C780.37 212.99 778.89 212.86 777.69 212.58C776.43 212.31 775.57 211.72 774.92 210.66L774.85 210.56C774.08 209.53 773.69 207.47 773.69 204.44V149.35C773.69 146.29 774.08 144.24 774.88 143.08L774.92 143.02C775.57 141.97 776.41 141.38 777.65 141.11C778.99 140.91 780.54 140.8 782.24 140.8H783.57V136.72H749.75V140.8Z" fill="#83D0CF"/>
<path d="M816.4 167.09C800.38 160.94 799.03 155.67 799.03 151.21C799.03 145.9 802.91 139.7 813.84 139.7C819.66 139.7 824.05 142 825.87 146C827.24 149 826.89 152.59 825.02 154.73L823.92 155.99L837.58 163.16L838.23 162.11C840.82 157.92 839.9 151.94 838.66 148.95C835.21 140.6 825.93 135.62 813.84 135.62C806.91 135.62 800.5 137.71 795.78 141.51C790.86 145.49 788.16 151 788.16 157.03C788.16 163.06 790 167.58 793.96 171.46C797.29 174.72 802.22 177.63 810.47 181.18C811.97 181.82 813.53 182.49 814.94 183.14L814.98 183.16C826.73 188.11 833.37 191.31 833.37 199.39C833.37 208.73 826.85 214.09 815.49 214.09C809.67 214.09 805.5 212.16 803.12 208.35C800.61 204.35 800.92 199.5 801.3 198.55L802.32 197.43L788.35 189.21L787.8 190.7C786.81 193.39 786.51 199.49 789.75 205.3C794.47 213.84 803.13 218.16 815.49 218.16C824.27 218.16 831.73 215.9 837.07 211.6C842.34 207.27 845.12 201.33 845.12 194.45C845.12 183.75 840.68 176.58 816.4 167.09Z" fill="#83D0CF"/>
<path d="M929.41 143.02C930.05 141.97 930.89 141.38 932.14 141.11C933.61 140.9 935.19 140.8 936.95 140.8H938.28V136.72H914.64L892.06 196.44L869.49 137.79L868.96 136.72H845.75V140.8H847.08C848.84 140.8 850.41 140.9 851.88 141.11C853.04 141.39 853.88 142 854.51 143.02C855.25 144.23 855.63 146.36 855.63 149.35V204.44C855.63 208.19 855.03 209.87 854.54 210.62L854.51 210.66C853.87 211.7 853.02 212.31 851.85 212.58C850.53 212.86 849.06 212.99 847.08 212.99H845.75V217.07H869.58V212.99H868.25C866.28 212.99 864.81 212.86 863.59 212.58C862.33 212.31 861.47 211.72 860.82 210.66L860.8 210.62C860.3 209.87 859.71 208.19 859.71 204.44V149.55L885.34 217.07H888.6L914.23 149.16V204.45C914.23 208.2 913.64 209.88 913.14 210.63L913.12 210.67C912.48 211.71 911.63 212.32 910.46 212.59C909.14 212.87 907.67 213 905.69 213H904.36V217.08H938.28V213H936.95C934.97 213 933.5 212.87 932.18 212.59C930.92 212.32 930.06 211.73 929.41 210.67C928.67 209.46 928.29 207.33 928.29 204.34V149.47C928.29 146.41 928.67 144.24 929.41 143.03V143.02Z" fill="#83D0CF"/>
<path d="M255.65 84.3501C249.85 84.3501 245.85 82.7102 243.05 79.1802C241.17 76.7102 238.44 70.6901 238.14 70.0101C233.58 58.9701 223.66 52.1302 211.52 51.5702L210.12 55.3701L203.64 72.8301C202.56 75.8901 203.07 76.6602 203.07 76.6602C203.39 77.1202 205.63 77.1201 206.7 77.1201H209.05V83.2501H155.31V77.1201H157.77C159.66 77.1201 161.06 77.0001 162.18 76.7401C163.11 76.5301 163.79 76.0402 164.4 75.1702C164.66 74.7802 165.3 73.4101 165.3 69.6001V44.0801H136.53V69.4901C136.53 72.9801 137.06 74.5602 137.5 75.2802C138.01 76.1002 138.62 76.5201 139.61 76.7401C140.74 77.0001 142.23 77.1301 144.17 77.1301H146.52V83.2601H110.54V77.1301H112.89C114.78 77.1301 116.18 77.0101 117.3 76.7501C118.23 76.5401 118.91 76.0502 119.52 75.1802C119.78 74.7802 120.42 73.4201 120.42 69.6101V14.5201C120.42 11.0601 119.9 9.47012 119.46 8.75012C118.91 7.96012 118.24 7.49014 117.34 7.27014C116.13 7.09014 114.61 6.99011 112.89 6.99011H110.54V0.860107H146.52V6.99011H144.17C142.4 6.99011 140.79 7.09016 139.52 7.29016C138.61 7.49016 138.01 7.9101 137.51 8.7301C137.07 9.4501 136.54 11.0501 136.54 14.6301V37.9601H165.31V14.5201C165.31 11.0601 164.79 9.47012 164.35 8.75012C163.8 7.96012 163.13 7.49014 162.23 7.27014C161.03 7.09014 159.5 6.99011 157.78 6.99011H155.32V0.860107H191.41V6.99011H189.06C187.29 6.99011 185.68 7.09016 184.41 7.29016C183.5 7.49016 182.9 7.9101 182.4 8.7301C181.96 9.4501 181.43 11.0601 181.43 14.6301V69.5001C181.43 72.9901 181.96 74.5702 182.4 75.2902C182.91 76.1102 183.52 76.5301 184.51 76.7501C185.64 77.0101 187.13 77.1401 189.07 77.1401H190.36C194.19 77.1401 195.48 77.1401 197.39 72.0801L223.96 0.110107H228.66L254.26 69.2902C256.38 75.8002 257.96 76.6201 258.26 76.7101C258.6 76.8201 259.21 76.4701 259.57 76.2201C260.88 75.0001 261.76 72.8902 261.76 70.9302V67.8501L267.67 69.4601V71.2601C267.67 77.5601 263.08 84.3701 255.66 84.3701L255.65 84.3501ZM210.1 49.4801L210.83 49.5001C224.15 49.8301 235.06 57.1901 240.02 69.2001C240.13 69.4301 242.91 75.6102 244.67 77.9202C247.03 80.9002 250.53 82.3002 255.65 82.3002C261.8 82.3002 265.61 76.5601 265.61 71.2401V71.0101L263.81 70.5201V70.9102C263.81 73.4802 262.67 76.1701 260.9 77.7701L260.8 77.8501C259.58 78.7001 258.57 78.9601 257.62 78.6501C255.77 78.0401 254.03 75.1901 252.33 69.9501L227.23 2.14014H225.39L199.31 72.7802C197 78.9202 194.77 79.1802 190.39 79.1802H189.07C186.98 79.1802 185.34 79.0401 184.07 78.7401C182.55 78.4101 181.46 77.6601 180.66 76.3601C179.8 74.9701 179.39 72.7201 179.39 69.4901V14.6201C179.39 11.3201 179.81 9.04014 180.66 7.64014C181.45 6.35014 182.53 5.60013 184.05 5.26013C185.49 5.04013 187.21 4.93018 189.08 4.93018H189.38V2.90015H157.4V4.93018H157.81C159.63 4.93018 161.26 5.04012 162.65 5.25012C164.12 5.60012 165.22 6.37012 166.1 7.62012C166.98 9.08012 167.39 11.3101 167.39 14.5101V40.0001H134.52V14.6201C134.52 11.3201 134.94 9.04014 135.79 7.64014C136.58 6.35014 137.66 5.60013 139.18 5.26013C140.62 5.04013 142.34 4.93018 144.21 4.93018H144.51V2.90015H112.64V4.93018H112.94C114.76 4.93018 116.39 5.04012 117.78 5.25012C119.25 5.60012 120.35 6.37012 121.23 7.62012C122.11 9.07012 122.52 11.3101 122.52 14.5101V69.6001C122.52 72.8201 122.1 75.0801 121.27 76.3301C120.37 77.6301 119.24 78.4201 117.82 78.7501C116.54 79.0401 115 79.1802 112.95 79.1802H112.65V81.2101H144.52V79.1802H144.22C142.13 79.1802 140.49 79.0401 139.22 78.7401C137.7 78.4101 136.61 77.6601 135.81 76.3601C134.95 74.9701 134.54 72.7201 134.54 69.4901V42.0302H167.41V69.6001C167.41 72.8101 166.99 75.0801 166.16 76.3301C165.25 77.6301 164.13 78.4201 162.71 78.7501C161.43 79.0401 159.89 79.1802 157.84 79.1802H157.43V81.2101H207.07V79.1802H206.77C204.62 79.1802 202.4 79.1801 201.46 77.8501C200.71 76.7901 200.81 74.8601 201.78 72.1301L210.17 49.4801H210.1ZM236.45 59.0702L233.28 56.1602C233.01 55.9102 232.74 55.6702 232.46 55.4202C226.93 50.7102 219.94 47.9801 212.25 47.5201L210.88 47.4402L221.31 18.7701L236.45 59.0602V59.0702ZM213.74 45.5801C220.4 46.2001 226.53 48.4601 231.68 52.2001L221.35 24.6902L213.75 45.5801H213.74Z" fill="#30302D"/>
<path d="M381.94 84.3501C372.12 84.3501 364.63 82.2001 359.67 77.9701C353.95 73.2301 351.16 65.8902 351.16 55.5502V14.6201C351.16 11.0701 350.64 9.46011 350.2 8.74011C349.65 7.95011 348.98 7.48013 348.08 7.26013C346.75 7.08013 345.23 6.9801 343.52 6.9801H341.34C339.62 6.9801 338.09 7.08015 336.8 7.28015C335.89 7.48015 335.29 7.90009 334.79 8.72009L334.73 8.81018C334.05 9.80018 333.71 11.7501 333.71 14.6301V84.0302H328.73L327.57 82.8102L281.04 16.5801V69.6101C281.04 73.2901 281.64 74.6401 282 75.1101L282.1 75.2501C282.63 76.1101 283.24 76.5301 284.24 76.7401C285.37 77.0001 286.79 77.1301 288.58 77.1301H290.93V83.2601H265.16V77.1301H267.51C269.4 77.1301 270.8 77.0101 271.92 76.7501C272.85 76.5401 273.53 76.0502 274.14 75.1802C274.4 74.7802 275.04 73.4201 275.04 69.6001V7.97009C274.69 7.63009 274.04 7.40017 273.18 7.30017C271.3 7.09017 269.39 6.99011 267.51 6.99011H265.16V0.860107H288.47L289.51 1.95007L327.71 55.3601V14.4001C327.71 10.9301 327.19 9.34012 326.75 8.62012C326.28 7.92012 325.63 7.47013 324.75 7.26013C323.44 7.08013 321.91 6.9801 320.3 6.9801H317.95V0.850098H377.18V6.9801H374.83C373.11 6.9801 371.58 7.08015 370.29 7.28015C369.38 7.48015 368.78 7.90009 368.28 8.72009C367.84 9.44009 367.31 11.0301 367.31 14.5101V55.5502C367.31 63.3802 368.57 69.1701 371.06 72.7501C373.47 76.3601 377.39 78.1101 383.07 78.1101C389.75 78.1101 394.98 76.1801 398.59 72.3701C402.29 68.4701 404.09 63.1101 404.09 55.9901V14.5101C404.09 11.0501 403.57 9.46011 403.13 8.74011C402.58 7.95011 401.91 7.48013 401.01 7.26013C399.8 7.08013 398.28 6.9801 396.56 6.9801H394.21V0.850098H420.2V6.9801H417.85C416.08 6.9801 414.47 7.08015 413.2 7.28015C412.29 7.48015 411.69 7.90009 411.19 8.72009C410.75 9.44009 410.22 11.0501 410.22 14.6201V55.9901C410.22 64.8601 407.7 71.8801 402.73 76.8601C397.76 81.8301 390.77 84.3501 381.97 84.3501H381.94ZM341.35 4.93018H343.53C345.34 4.93018 346.96 5.03012 348.48 5.25012C349.96 5.60012 351.06 6.37012 351.93 7.62012C352.81 9.07012 353.22 11.3401 353.22 14.6201V55.5502C353.22 65.2402 355.76 72.0602 360.99 76.4001C365.58 80.3201 372.62 82.3002 381.94 82.3002C390.17 82.3002 396.67 79.9802 401.25 75.4102C405.82 70.8402 408.14 64.3001 408.14 55.9901V14.6201C408.14 11.3201 408.56 9.04014 409.41 7.64014C410.2 6.35014 411.28 5.60013 412.8 5.26013C414.24 5.04013 415.96 4.93018 417.83 4.93018H418.13V2.90015H396.24V4.93018H396.54C398.36 4.93018 399.99 5.04012 401.38 5.25012C402.85 5.60012 403.95 6.37012 404.83 7.62012C405.71 9.07012 406.12 11.3001 406.12 14.5101V55.9901C406.12 63.6601 404.14 69.4801 400.06 73.7802C396.04 78.0102 390.32 80.1602 383.05 80.1602C376.63 80.1602 372.15 78.1102 369.35 73.9102C366.63 69.9902 365.24 63.8102 365.24 55.5502V14.5101C365.24 11.2801 365.66 9.04015 366.51 7.65015C367.3 6.36015 368.38 5.60014 369.9 5.27014C371.36 5.05014 373 4.94019 374.82 4.94019H375.12V2.91016H319.99V4.94019H320.29C322 4.94019 323.62 5.05013 325.12 5.26013C326.6 5.61013 327.69 6.37015 328.47 7.53015C329.34 8.96015 329.75 11.2002 329.75 14.4102V61.7601L287.87 3.21008L287.59 2.91016H267.2V4.94019H267.5C269.45 4.94019 271.44 5.05014 273.39 5.27014C275.08 5.46014 276.27 6.06018 276.91 7.06018L277.07 7.31018V69.6001C277.07 72.8201 276.65 75.0801 275.82 76.3301C274.92 77.6301 273.79 78.4201 272.37 78.7501C271.09 79.0401 269.55 79.1802 267.5 79.1802H267.2V81.2101H288.87V79.1802H288.57C286.62 79.1802 285.06 79.0401 283.79 78.7401C282.27 78.4101 281.18 77.6601 280.38 76.3601L280.34 76.3002C279.45 75.1102 279 72.9101 279 69.6101V10.0901L329.22 81.5702L329.62 81.9801H331.68V14.6301C331.68 11.2301 332.12 9.02017 333.05 7.67017C333.85 6.37017 334.93 5.61015 336.45 5.28015C337.91 5.06015 339.55 4.95007 341.37 4.95007L341.35 4.93018Z" fill="#30302D"/>
<path d="M517.44 84.2401C513.04 84.2401 508.06 83.6701 504.46 79.4701L504.39 79.3901C501.28 75.4101 499.83 68.8101 499.83 58.6301C499.83 44.6501 493.7 43.9701 482.87 43.9701H476.44V69.4901C476.44 77.1201 478.68 77.1201 484.08 77.1201H486.43V83.2501H450.56V77.1201H452.91C458.39 77.1201 460.44 77.1201 460.44 69.4901V14.6201C460.44 6.99012 458.39 6.99011 452.91 6.99011H450.56V0.860107H483.64C492.63 0.860107 499.72 2.54011 504.7 5.86011C510.56 9.73011 513.54 15.5502 513.54 23.1802C513.54 29.4002 511.21 34.3701 506.6 37.9801C505.37 38.9401 503.99 39.7801 502.49 40.5001C505.21 41.5301 507.52 42.8602 509.52 44.5302C514.52 48.9102 516.95 55.1602 516.95 63.6702V64.3601C516.95 69.5501 516.95 73.3001 517.51 75.3701C517.88 76.7301 518.26 77.0101 519.76 77.0101C521.67 77.0101 523.77 73.8202 523.77 70.9102V68.0402L529.57 69.2001V71.1301C529.57 76.6301 525.36 84.2401 517.45 84.2401H517.44ZM474.4 41.9102H482.88C494.37 41.9102 501.89 43.0701 501.89 58.6201C501.89 68.3201 503.2 74.5201 506.01 78.1201C509.08 81.7101 513.51 82.1902 517.44 82.1902C524.01 82.1902 527.5 75.7701 527.5 71.1301V70.8801L525.81 70.5402V70.9102C525.81 74.6002 523.1 79.0602 519.74 79.0602C517.32 79.0602 516.13 78.1802 515.51 75.9102C514.88 73.5702 514.88 69.7101 514.88 64.3701V63.6702C514.88 55.7902 512.69 50.0401 508.17 46.0901C505.8 44.1001 502.88 42.6301 499.26 41.6001L496.18 40.7201L499.2 39.6501C501.54 38.8201 503.6 37.7101 505.33 36.3701C509.41 33.1801 511.48 28.7402 511.48 23.1902C511.48 16.3002 508.82 11.0501 503.56 7.58008C498.92 4.49008 492.22 2.92017 483.64 2.92017H452.62V4.95007H452.92C458.48 4.95007 462.5 4.95013 462.5 14.6301V69.5001C462.5 79.1801 458.48 79.1802 452.92 79.1802H452.62V81.2101H484.39V79.1802H484.09C478.68 79.1802 474.4 79.1801 474.4 69.5001V41.9302V41.9102ZM485.29 39.8901H474.4V4.93018H483.76C489.9 4.93018 494.05 6.7901 496.44 10.6001C498.75 14.2801 499.04 19.2502 499.04 23.1702C499.04 34.4202 494.54 39.8801 485.29 39.8801V39.8901ZM476.45 37.8401H485.29C493.38 37.8401 496.99 33.3202 496.99 23.1802C496.99 19.5402 496.73 14.9401 494.7 11.7001C492.71 8.53007 489.14 6.99011 483.76 6.99011H476.45V37.8401Z" fill="#30302D"/>
<path d="M575.86 58.5602H569.73V55.8102C569.43 51.3102 568.41 48.1301 566.61 46.1501C564.68 44.0401 561.38 42.9701 556.83 42.9701H554.04V36.8401H556.83C565.64 36.8401 569.14 33.2901 569.74 23.7301V21.1501H575.87V58.5602H575.86ZM571.78 56.5101H573.81V23.2101H571.78V23.8002C571.11 34.5502 566.78 38.9001 556.83 38.9001H556.09V40.9302H556.83C561.98 40.9302 565.79 42.2202 568.13 44.7802C570.26 47.1202 571.45 50.7101 571.78 55.7501V56.5101Z" fill="#30302D"/>
<path d="M585.84 83.2501H527.04V77.1201H529.39C534.71 77.1201 536.92 77.1201 536.92 69.6001V14.5101C536.92 6.99013 534.72 6.99011 529.39 6.99011H527.04V0.860107H588.59V25.7501H582.46V23.0201C581.46 12.1101 576.17 6.99011 565.83 6.99011H552.93V77.1301H566.49C571.39 77.1301 575.94 74.5101 580 69.3401C584.26 63.9301 586.49 57.5401 587.07 55.7201L587.59 54.0801H593.81L585.83 83.2501H585.84ZM529.09 81.2001H584.27L591.13 56.1301H589.09L589.02 56.3401C588.41 58.2501 586.08 64.9201 581.61 70.6101C577.14 76.3001 572.05 79.1802 566.48 79.1802H550.87V4.94019H565.82C577.12 4.94019 583.41 10.9902 584.5 22.9302V23.7001H586.53V2.91016H529.09V4.94019H529.39C534.74 4.94019 538.97 4.94014 538.97 14.5201V69.6101C538.97 79.1901 534.74 79.1902 529.39 79.1902H529.09V81.2201V81.2001Z" fill="#30302D"/>
<path d="M626.5 83.2501H591.67V77.1201H594.02C599.58 77.1201 601.66 77.1201 601.66 69.4901V14.6201C601.66 6.99012 599.58 6.99011 594.02 6.99011H591.67V0.860107H626.5C642.78 0.860107 655.04 5.33015 662.93 14.1501C670.86 23.0201 672.53 34.2202 672.53 42.0502C672.53 49.8802 670.87 60.9801 662.93 69.8401C654.97 78.7301 642.72 83.2401 626.5 83.2401V83.2501ZM593.72 81.2001H626.5C642.11 81.2001 653.85 76.9201 661.4 68.4801C668.9 60.1001 670.47 49.4802 670.47 42.0502C670.47 34.6202 668.9 23.9001 661.4 15.5101C653.91 7.14013 642.17 2.90015 626.5 2.90015H593.72V4.93018H594.02C599.64 4.93018 603.71 4.93011 603.71 14.6101V69.4801C603.71 79.1601 599.65 79.1602 594.02 79.1602H593.72V81.1902V81.2001ZM626.5 79.1702H615.61V4.93018H626.5C638.89 4.93018 647.7 9.17014 652.7 17.5201C656.21 23.2601 657.92 31.2902 657.92 42.0502C657.92 52.8102 656.21 60.7301 652.69 66.4901C647.66 74.9001 638.85 79.1702 626.51 79.1702H626.5ZM617.66 77.1201H626.5C638.07 77.1201 646.29 73.1902 650.93 65.4302C654.25 59.9902 655.86 52.3502 655.86 42.0502C655.86 31.7502 654.25 24.0001 650.94 18.5901C646.34 10.8901 638.12 6.99011 626.5 6.99011H617.66V77.1301V77.1201Z" fill="#30302D"/>
<path d="M708.13 83.2501H673.3V77.1201H675.65C681.21 77.1201 683.29 77.1201 683.29 69.4901V14.6201C683.29 6.99012 681.21 6.99011 675.65 6.99011H673.3V0.860107H708.13C724.41 0.860107 736.67 5.33015 744.56 14.1501C752.49 23.0201 754.16 34.2202 754.16 42.0502C754.16 49.8802 752.49 60.9801 744.56 69.8501C736.6 78.7401 724.35 83.2501 708.13 83.2501ZM675.35 81.2001H708.13C723.74 81.2001 735.48 76.9201 743.03 68.4801C750.53 60.1001 752.11 49.4802 752.11 42.0502C752.11 34.6202 750.54 23.9001 743.03 15.5101C735.54 7.14013 723.8 2.90015 708.13 2.90015H675.35V4.93018H675.65C681.27 4.93018 685.34 4.93011 685.34 14.6101V69.4801C685.34 79.1601 681.28 79.1602 675.65 79.1602H675.35V81.1902V81.2001ZM708.13 79.1702H697.24V4.93018H708.13C720.52 4.93018 729.33 9.17014 734.33 17.5201C737.84 23.2601 739.55 31.2902 739.55 42.0502C739.55 52.8102 737.84 60.7201 734.32 66.4901C729.29 74.9001 720.48 79.1702 708.14 79.1702H708.13ZM699.29 77.1201H708.13C719.7 77.1201 727.92 73.1902 732.56 65.4302C735.88 59.9902 737.49 52.3502 737.49 42.0502C737.49 31.7502 735.88 24.0001 732.57 18.5901C727.97 10.8901 719.75 6.99011 708.13 6.99011H699.29V77.1301V77.1201Z" fill="#30302D"/>
<path d="M805.72 83.2501H769.74V77.1201H772.09C773.99 77.1201 775.4 77.0001 776.65 76.7301C777.64 76.5201 778.25 76.1001 778.76 75.2701C779.2 74.5501 779.73 72.9701 779.73 69.4801V48.3701L759.85 13.4701C758.68 11.4101 757.45 9.77009 756.17 8.59009C755.19 7.85009 754.15 7.35018 753.16 7.18018C751.76 7.07018 750.22 6.9801 748.5 6.9801H746.15V0.850098H782.24V6.9801H779.89C778.61 6.9801 777.42 7.08014 776.36 7.27014C775.85 7.35014 775.83 7.44011 775.78 7.61011C775.78 7.61011 775.75 8.45016 777.35 11.4102L792.55 38.0502L806.57 11.6401C808.24 8.42014 808.15 7.62016 808.13 7.54016C808.1 7.44016 807.88 7.34014 807.49 7.27014C806.17 7.07014 804.97 6.97009 803.71 6.97009H801.36V0.840088H825.6V6.97009H823.25C821.61 6.97009 820.19 7.07018 818.76 7.18018C817.89 7.32018 817.01 7.78017 816.16 8.55017L816.08 8.62012C814.98 9.54012 813.72 11.2101 812.45 13.4501L795.74 44.9202V69.4701C795.74 72.2801 796.08 74.1901 796.75 75.1501L796.81 75.2401C797.33 76.0801 797.94 76.5001 798.93 76.7101C800.08 76.9701 801.49 77.1001 803.38 77.1001H805.73V83.2301L805.72 83.2501ZM771.8 81.2001H803.67V79.1702H803.37C801.32 79.1702 799.77 79.0301 798.48 78.7301C796.96 78.4001 795.87 77.6501 795.07 76.3501C794.12 74.9801 793.69 72.8101 793.69 69.4801V44.4202L793.81 44.1902L810.65 12.4701C812.05 9.99009 813.47 8.12016 814.76 7.04016C815.93 5.98016 817.15 5.36014 818.51 5.14014C820.01 5.02014 821.53 4.92017 823.24 4.92017H823.54V2.89014H803.41V4.92017H803.71C805.08 4.92017 806.38 5.02011 807.82 5.24011C809.06 5.45011 809.82 6.03009 810.11 6.97009C810.32 7.73009 810.27 8.97009 808.39 12.5901L792.62 42.3002L775.57 12.4001C773.63 8.82015 773.65 7.61013 773.83 7.01013C774.13 6.00013 774.83 5.44011 776.02 5.24011C777.19 5.03011 778.5 4.92017 779.9 4.92017H780.2V2.89014H748.22V4.92017H748.52C750.33 4.92017 751.93 5.02013 753.38 5.13013H753.47C754.81 5.36013 756.17 5.99013 757.51 7.01013C759.01 8.39013 760.38 10.2001 761.65 12.4501L781.8 47.8202V69.4701C781.8 72.7001 781.38 74.9401 780.53 76.3301C779.73 77.6301 778.64 78.3901 777.1 78.7201C775.7 79.0201 774.17 79.1501 772.11 79.1501H771.81V81.1802L771.8 81.2001Z" fill="#30302D"/>
<path d="M158.82 216.02C153.02 216.02 149.02 214.38 146.22 210.85C144.28 208.3 141.43 201.95 141.31 201.68C136.75 190.64 126.84 183.8 114.69 183.24L113.29 187.04L106.81 204.5C105.73 207.56 106.24 208.32 106.24 208.33C106.57 208.79 108.8 208.79 109.87 208.79H112.22V214.92H58.59V208.79H60.94C62.85 208.79 64.25 208.67 65.5 208.4C66.38 208.2 67.01 207.74 67.5 206.94C67.82 206.46 68.46 205.08 68.46 201.26V151.6L44.56 214.92H39.89L15.99 151.97V201.27C15.99 205.08 16.64 206.46 16.91 206.88C17.46 207.77 18.07 208.2 19.07 208.41C20.22 208.67 21.63 208.8 23.52 208.8H25.87V214.93H0V208.8H2.35C4.26 208.8 5.66 208.68 6.91 208.41C7.8 208.21 8.42 207.75 8.91 206.95C9.23 206.46 9.88 205.08 9.88 201.27V146.18C9.88 142.69 9.35 141.11 8.91 140.39C8.42 139.6 7.81 139.15 6.92 138.94C5.59 138.76 4.07 138.66 2.36 138.66H0V132.53H24.87L25.68 134.17L47.32 190.4L69.2 132.54H94.58V138.67H92.23C90.52 138.67 88.99 138.77 87.56 138.97C86.66 139.17 86.06 139.59 85.56 140.4C85.12 141.12 84.59 142.73 84.59 146.3V201.17C84.59 204.66 85.12 206.24 85.56 206.96C86.07 207.78 86.68 208.2 87.67 208.42C88.92 208.69 90.32 208.81 92.23 208.81H93.52C97.36 208.81 98.65 208.81 100.55 203.75L127.12 131.78H131.82L157.42 200.96C159.54 207.47 161.12 208.28 161.42 208.38C161.77 208.49 162.37 208.14 162.73 207.89C164.04 206.67 164.92 204.56 164.92 202.6V199.52L170.83 201.13V202.93C170.83 209.23 166.24 216.04 158.82 216.04V216.02ZM113.28 181.15L114.01 181.17C127.33 181.5 138.24 188.87 143.2 200.87C143.22 200.91 146.06 207.24 147.85 209.59C150.21 212.57 153.71 213.97 158.83 213.97C164.98 213.97 168.79 208.23 168.79 202.91V202.68L166.99 202.19V202.58C166.99 205.14 165.85 207.84 164.08 209.44L163.98 209.52C162.76 210.38 161.75 210.63 160.8 210.31C158.95 209.7 157.22 206.86 155.51 201.61L130.41 133.8H128.57L102.49 204.44C100.18 210.56 97.96 210.83 93.56 210.84H92.25C90.19 210.84 88.66 210.71 87.26 210.41C85.72 210.08 84.63 209.32 83.83 208.02C82.97 206.63 82.56 204.38 82.56 201.15V146.28C82.56 142.98 82.98 140.7 83.83 139.3C84.62 138.01 85.69 137.26 87.21 136.92C88.81 136.69 90.43 136.59 92.25 136.59H92.55V134.56H70.64L47.36 196.13L23.62 134.56H2.05V136.59H2.35C4.16 136.59 5.77 136.69 7.3 136.91C8.82 137.27 9.89 138.05 10.66 139.3C11.52 140.69 11.93 142.94 11.93 146.17V201.26C11.93 204.48 11.5 206.75 10.66 208.01C9.87 209.29 8.79 210.07 7.35 210.4C5.94 210.7 4.4 210.83 2.35 210.83H2.05V212.86H23.83V210.83H23.53C21.48 210.83 19.93 210.69 18.64 210.4C17.12 210.08 16.03 209.32 15.23 208.02C14.38 206.75 13.96 204.48 13.96 201.26V140.78L41.33 212.86H43.17L70.54 140.35V201.26C70.54 204.48 70.11 206.75 69.28 208.01C68.49 209.29 67.41 210.07 65.97 210.4C64.56 210.7 63.03 210.83 60.97 210.83H60.67V212.86H110.2V210.83H109.9C107.75 210.83 105.53 210.83 104.59 209.5C103.84 208.44 103.94 206.51 104.91 203.79L113.3 181.14L113.28 181.15ZM139.61 190.72L136.45 187.83C136.18 187.59 135.91 187.34 135.63 187.09C130.1 182.38 123.11 179.65 115.42 179.19L114.05 179.11L124.48 150.44L139.61 190.72ZM116.91 177.25C123.57 177.87 129.7 180.14 134.85 183.87L124.52 156.36L116.92 177.25H116.91Z" fill="#30302D"/>
<path d="M236.88 215.68H231.9L230.74 214.46L184.21 148.23V201.26C184.21 204.94 184.81 206.29 185.17 206.76L185.27 206.9C185.8 207.76 186.41 208.18 187.41 208.39C188.54 208.65 189.96 208.78 191.74 208.78H194.09V214.91H168.32V208.78H170.67C172.56 208.78 173.96 208.66 175.08 208.4C176.01 208.19 176.69 207.7 177.3 206.83C177.56 206.44 178.2 205.07 178.2 201.26V139.63C177.85 139.29 177.2 139.06 176.34 138.96C174.46 138.75 172.55 138.65 170.67 138.65H168.32V132.52H191.63L192.67 133.61L230.87 187.02V146.06C230.87 142.59 230.35 141 229.91 140.28C229.44 139.58 228.79 139.13 227.91 138.92C226.6 138.74 225.07 138.64 223.46 138.64H221.11V132.51H246.88V138.64H244.53C242.81 138.64 241.28 138.74 239.99 138.94C239.08 139.14 238.48 139.56 237.98 140.38L237.92 140.47C237.24 141.45 236.9 143.4 236.9 146.28V215.68H236.88ZM232.77 213.63H234.83V146.28C234.83 142.88 235.27 140.67 236.2 139.32C237 138.02 238.08 137.26 239.59 136.93C241.06 136.71 242.69 136.6 244.51 136.6H244.81V134.57H223.14V136.6H223.44C225.15 136.6 226.77 136.71 228.27 136.92C229.75 137.27 230.84 138.03 231.62 139.19C232.49 140.62 232.9 142.86 232.9 146.07V193.42L191.02 134.87L190.74 134.57H170.35V136.6H170.65C172.61 136.6 174.59 136.71 176.54 136.93C178.23 137.12 179.42 137.72 180.06 138.72L180.22 138.97V201.26C180.22 204.48 179.8 206.74 178.97 207.99C178.07 209.29 176.94 210.08 175.52 210.41C174.25 210.7 172.7 210.84 170.65 210.84H170.35V212.87H192.02V210.84H191.72C189.78 210.84 188.21 210.7 186.94 210.41C185.41 210.08 184.33 209.33 183.53 208.03L183.49 207.97C182.6 206.78 182.15 204.58 182.15 201.28V141.76L232.37 213.24L232.77 213.65V213.63Z" fill="#30302D"/>
<path d="M283.79 215.91C272.54 215.91 262.6 211.47 255.05 203.06C248.15 195.47 244.35 185.05 244.35 173.72C244.35 162.39 248.31 152.04 255.5 144.15C263.12 135.94 273.68 131.42 285.22 131.42C290.93 131.42 297.73 133.04 301.37 135.28C310.74 141.22 313.56 149.35 314.41 153.67C315.36 158.53 314.78 163.35 312.92 165.97L311.68 167.72L296.31 158.78L298.66 156.62C301.3 154.19 302.01 150.52 300.56 146.79C298.9 142.52 293.88 137.54 285.21 137.54C276.54 137.54 270.2 141.47 266.01 149.55C261.66 157.94 261.01 168.29 261.01 173.71C261.01 186.11 263.69 207.26 281.67 209.57C282.08 209.62 284.07 209.88 285.21 209.88C285.51 209.88 286.11 209.83 286.44 209.8L286.82 209.77C289.84 209.57 292.26 208.97 294.22 207.95C299.94 205.04 302.72 197.86 302.72 186C302.72 185 301.9 184.18 300.9 184.18H288.01V178.05H324.54V184.18H317.66C317.15 191.55 314.27 198.88 309.67 204.42C305.32 209.66 297.29 215.9 283.79 215.9V215.91ZM285.22 133.47C274.25 133.47 264.24 137.76 257.01 145.54C250.17 153.04 246.4 163.05 246.4 173.72C246.4 184.39 250.01 194.47 256.57 201.68C263.73 209.65 273.14 213.86 283.79 213.86C296.5 213.86 304.02 208.02 308.09 203.12C312.62 197.68 315.38 190.39 315.66 183.13L315.7 182.14H322.49V180.12H290.07V182.14H300.9C303.03 182.14 304.77 183.88 304.77 186.01C304.77 198.72 301.63 206.5 295.16 209.78C292.95 210.93 290.26 211.61 286.95 211.83L286.61 211.85C286.24 211.88 285.56 211.93 285.21 211.93C283.98 211.93 282 211.68 281.42 211.61C261.87 209.1 258.95 186.79 258.95 173.72C258.95 168.11 259.63 157.4 264.18 148.62C268.76 139.79 275.63 135.5 285.2 135.5C294.77 135.5 300.56 141.18 302.46 146.05C304.23 150.59 303.32 155.1 300.04 158.13L299.74 158.4L311.08 165L311.24 164.78C312.76 162.63 313.22 158.33 312.38 154.06C311.59 150.06 308.98 142.53 300.27 137.01C296.92 134.96 290.58 133.46 285.2 133.46L285.22 133.47Z" fill="#30302D"/>
<path d="M365.09 216.02C353.57 216.02 343.02 211.42 335.37 203.08C328.18 195.31 324.22 184.89 324.22 173.73C324.22 162.57 328.18 152.05 335.37 144.16C342.99 135.95 353.55 131.43 365.09 131.43C376.63 131.43 387.07 135.95 394.69 144.14C401.96 152.11 405.96 162.62 405.96 173.72C405.96 184.82 401.96 195.23 394.69 203.08C387.05 211.42 376.54 216.01 365.09 216.01V216.02ZM365.09 133.47C354.12 133.47 344.11 137.76 336.88 145.54C330.04 153.04 326.27 163.05 326.27 173.72C326.27 184.39 330.04 194.29 336.88 201.68C344.13 209.6 354.15 213.96 365.09 213.96C376.03 213.96 385.93 209.6 393.18 201.69C400.1 194.21 403.91 184.28 403.91 173.72C403.91 163.16 400.1 153.12 393.18 145.53C385.97 137.76 375.99 133.48 365.09 133.48V133.47ZM365.09 211.94C345.81 211.94 338.94 192.2 338.94 173.72C338.94 168.12 339.62 157.4 344.17 148.62C348.68 139.92 355.72 135.5 365.08 135.5C374.44 135.5 381.48 139.92 386 148.63C390.64 157.37 391.34 168.1 391.34 173.72C391.34 183.89 389.24 193.14 385.43 199.78C380.8 207.85 373.96 211.93 365.09 211.93V211.94ZM365.09 137.55C356.55 137.55 350.13 141.59 346 149.56C341.65 157.95 341 168.3 341 173.72C341 191.2 347.33 209.89 365.1 209.89C373.18 209.89 379.43 206.15 383.66 198.77C387.3 192.43 389.3 183.54 389.3 173.73C389.3 168.31 388.64 157.96 384.2 149.59C380.06 141.6 373.63 137.56 365.1 137.56L365.09 137.55Z" fill="#30302D"/>
<path d="M493.62 214.92H457.53V208.79H459.88C465.28 208.79 467.52 208.79 467.52 201.16V138.66H464.49C456.43 138.66 451.75 139.94 449.34 142.83C447.05 145.57 446.49 150.09 445.78 155.82V155.88V158.52H439.65V132.53H511.51V158.52H506L505.35 155.64C503.94 143.63 503.36 138.66 486.66 138.66H483.63V201.16C483.63 208.79 485.87 208.79 491.27 208.79H493.62V214.92ZM459.59 212.87H491.57V210.84H491.27C485.86 210.84 481.58 210.84 481.58 201.16V136.61H486.66C505.19 136.61 505.97 143.29 507.39 155.41L507.43 155.71L507.62 156.48H509.47V134.59H441.71V156.48H443.74L443.76 155.58C444.51 149.51 445.11 144.73 447.79 141.52C450.63 138.13 455.78 136.62 464.51 136.62H469.59V201.17C469.59 210.85 465.32 210.85 459.9 210.85H459.6V212.88L459.59 212.87Z" fill="#30302D"/>
<path d="M553.15 216.02C541.63 216.02 531.07 211.42 523.43 203.08C516.24 195.31 512.28 184.89 512.28 173.73C512.28 162.57 516.24 152.05 523.43 144.16C531.06 135.95 541.61 131.43 553.15 131.43C564.69 131.43 575.13 135.95 582.75 144.14C590.02 152.11 594.02 162.62 594.02 173.72C594.02 184.82 590.02 195.23 582.75 203.08C575.11 211.42 564.6 216.01 553.15 216.01V216.02ZM553.15 133.47C542.18 133.47 532.17 137.76 524.94 145.54C518.1 153.04 514.33 163.05 514.33 173.72C514.33 184.39 518.1 194.29 524.94 201.68C532.19 209.6 542.21 213.96 553.15 213.96C564.09 213.96 573.99 209.6 581.24 201.69C588.16 194.21 591.97 184.28 591.97 173.72C591.97 163.16 588.16 153.11 581.24 145.53C574.03 137.76 564.05 133.48 553.15 133.48V133.47ZM553.15 211.94C533.87 211.94 527 192.2 527 173.72C527 168.12 527.68 157.4 532.23 148.62C536.74 139.92 543.78 135.5 553.14 135.5C562.5 135.5 569.54 139.92 574.06 148.63C578.7 157.38 579.4 168.1 579.4 173.72C579.4 183.89 577.3 193.14 573.49 199.78C568.86 207.85 562.02 211.93 553.15 211.93V211.94ZM553.15 137.55C544.61 137.55 538.19 141.59 534.06 149.56C529.71 157.96 529.06 168.3 529.06 173.72C529.06 191.2 535.39 209.89 553.16 209.89C561.24 209.89 567.49 206.15 571.72 198.77C575.36 192.43 577.36 183.54 577.36 173.73C577.36 168.31 576.7 157.96 572.26 149.59C568.12 141.6 561.69 137.56 553.16 137.56L553.15 137.55Z" fill="#30302D"/>
<path d="M633.36 216.02C623.54 216.02 616.05 213.87 611.09 209.64C605.37 204.89 602.58 197.56 602.58 187.22V146.29C602.58 142.74 602.06 141.13 601.62 140.41C601.07 139.63 600.4 139.15 599.5 138.94C598.17 138.76 596.65 138.66 594.94 138.66H592.59V132.53H628.57V138.66H626.22C624.5 138.66 622.97 138.76 621.68 138.96C620.77 139.16 620.17 139.58 619.67 140.4C619.23 141.12 618.7 142.71 618.7 146.19V187.23C618.7 195.06 619.96 200.85 622.45 204.43C624.86 208.04 628.78 209.79 634.45 209.79C641.13 209.79 646.36 207.86 649.97 204.05C653.67 200.15 655.47 194.79 655.47 187.67V146.19C655.47 142.73 654.95 141.14 654.51 140.42C653.96 139.63 653.29 139.16 652.39 138.94C651.18 138.76 649.66 138.66 647.94 138.66H645.59V132.53H702.14C711.13 132.53 718.21 134.21 723.2 137.53C729.06 141.4 732.04 147.22 732.04 154.85C732.04 161.06 729.71 166.04 725.1 169.65C723.87 170.61 722.49 171.45 720.99 172.17C723.71 173.2 726.03 174.53 728.02 176.2C733.02 180.57 735.44 186.83 735.44 195.34V196.03C735.44 201.22 735.44 204.97 736 207.04C736.37 208.4 736.75 208.68 738.25 208.68C740.16 208.68 742.26 205.49 742.26 202.58V199.71L748.06 200.87V202.8C748.06 208.3 743.85 215.91 735.94 215.91C731.55 215.91 726.57 215.34 722.96 211.14L722.89 211.06C719.78 207.08 718.33 200.48 718.33 190.3C718.33 176.32 712.2 175.64 701.37 175.64H694.94V201.16C694.94 208.79 697.17 208.79 702.58 208.79H704.93V214.92H669.06V208.79H671.41C676.89 208.79 678.94 208.79 678.94 201.16V146.29C678.94 138.66 676.89 138.66 671.41 138.66H669.23C667.46 138.66 665.86 138.76 664.58 138.96C663.67 139.16 663.07 139.58 662.57 140.4C662.13 141.12 661.6 142.72 661.6 146.3V187.67C661.6 196.54 659.08 203.56 654.11 208.54C649.14 213.51 642.15 216.03 633.35 216.03L633.36 216.02ZM594.65 136.6H594.95C596.76 136.6 598.37 136.7 599.9 136.92C601.38 137.27 602.48 138.04 603.35 139.29C604.23 140.75 604.64 143.02 604.64 146.29V187.22C604.64 196.91 607.18 203.73 612.42 208.07C617.01 211.99 624.05 213.97 633.37 213.97C641.61 213.97 648.1 211.65 652.68 207.08C657.25 202.5 659.57 195.97 659.57 187.66V146.29C659.57 142.99 659.99 140.71 660.84 139.32C661.64 138.03 662.71 137.28 664.23 136.94C665.68 136.72 667.39 136.61 669.26 136.61H671.44C677 136.61 681.02 136.61 681.02 146.29V201.16C681.02 210.84 677 210.84 671.44 210.84H671.14V212.87H702.91V210.84H702.61C697.2 210.84 692.92 210.84 692.92 201.16V173.59H701.4C712.89 173.59 720.42 174.75 720.42 190.3C720.42 200 721.73 206.2 724.55 209.8C727.62 213.39 732.05 213.87 735.98 213.87C742.55 213.87 746.05 207.45 746.05 202.81V202.56L744.35 202.22V202.59C744.35 206.28 741.64 210.74 738.28 210.74C735.85 210.74 734.67 209.86 734.05 207.58C733.41 205.24 733.42 201.38 733.42 196.04V195.34C733.42 187.46 731.23 181.71 726.71 177.76C724.34 175.77 721.42 174.3 717.79 173.27L714.71 172.39L717.73 171.32C720.07 170.49 722.13 169.38 723.86 168.04C727.94 164.84 730.01 160.41 730.01 154.86C730.01 147.97 727.35 142.71 722.09 139.25C717.45 136.16 710.75 134.59 702.17 134.59H647.67V136.62H647.97C649.79 136.62 651.42 136.73 652.81 136.94C654.28 137.29 655.38 138.06 656.26 139.31C657.14 140.76 657.55 143 657.55 146.2V187.68C657.55 195.35 655.57 201.17 651.49 205.47C647.47 209.7 641.75 211.85 634.48 211.85C628.06 211.85 623.58 209.8 620.78 205.6C618.06 201.68 616.67 195.5 616.67 187.24V146.2C616.67 142.97 617.09 140.72 617.94 139.33C618.73 138.04 619.81 137.29 621.32 136.95C622.79 136.73 624.42 136.62 626.24 136.62H626.54V134.59H594.67V136.62L594.65 136.6ZM703.8 171.56H692.91V136.6H702.27C708.41 136.6 712.56 138.46 714.95 142.27C717.26 145.95 717.55 150.92 717.55 154.84C717.55 166.08 713.05 171.55 703.8 171.55V171.56ZM694.95 169.5H703.79C711.88 169.5 715.49 164.98 715.49 154.84C715.49 151.2 715.23 146.6 713.2 143.36C711.21 140.19 707.64 138.65 702.26 138.65H694.95V169.5Z" fill="#30302D"/>
<path d="M781.42 214.92H745.55V208.79H747.9C749.81 208.79 751.21 208.67 752.46 208.4C753.35 208.19 754.02 207.72 754.62 206.86C755.02 206.2 755.54 204.61 755.54 201.15V146.28C755.54 142.73 755.02 141.12 754.58 140.4C754.03 139.62 753.36 139.14 752.46 138.92C751.13 138.74 749.61 138.64 747.9 138.64H745.55V132.51H781.42V138.64H779.07C777.42 138.64 775.93 138.74 774.64 138.94C773.73 139.14 773.13 139.56 772.63 140.38L772.56 140.48C771.89 141.45 771.55 143.36 771.55 146.17V201.26C771.55 204.94 772.15 206.29 772.51 206.76L772.6 206.89C773.13 207.75 773.75 208.18 774.74 208.39C775.87 208.65 777.29 208.78 779.08 208.78H781.43V214.91L781.42 214.92ZM747.6 212.87H779.37V210.84H779.07C777.12 210.84 775.56 210.7 774.29 210.41C772.77 210.09 771.68 209.33 770.88 208.03L770.84 207.97C769.95 206.78 769.5 204.57 769.5 201.27V146.18C769.5 142.86 769.94 140.68 770.87 139.33C771.67 138.03 772.75 137.27 774.26 136.94C775.72 136.72 777.32 136.61 779.07 136.61H779.37V134.58H747.6V136.61H747.9C749.71 136.61 751.32 136.71 752.85 136.93C754.33 137.28 755.43 138.05 756.3 139.3C757.18 140.75 757.59 143.02 757.59 146.3V201.17C757.59 204.37 757.18 206.61 756.34 208C755.41 209.33 754.3 210.1 752.9 210.42C751.49 210.72 749.96 210.85 747.9 210.85H747.6V212.88V212.87Z" fill="#30302D"/>
<path d="M812.31 216.02C799.55 216.02 790.59 211.51 785.67 202.63C782.26 196.52 782.6 190.04 783.66 187.18L784.63 184.54L800.74 194.02L799.02 195.91C798.78 196.91 798.59 201.11 800.8 204.64C802.99 208.13 806.86 209.89 812.3 209.89C823.17 209.89 829.15 205.03 829.15 196.22C829.15 188.77 823.06 185.86 811.38 180.94C809.91 180.26 808.36 179.6 806.87 178.96C798.5 175.35 793.47 172.38 790.05 169.02C785.88 164.93 783.94 160.11 783.94 153.86C783.94 147.61 786.78 141.72 791.94 137.54C796.85 133.59 803.49 131.42 810.65 131.42C823.17 131.42 832.8 136.64 836.41 145.38C837.74 148.57 838.7 154.95 835.91 159.47L834.76 161.34L819.1 153.12L821.06 150.88C822.67 149.04 822.95 145.9 821.75 143.25C820.1 139.63 816.06 137.55 810.65 137.55C800.48 137.55 796.87 143.2 796.87 148.04C796.87 152.16 798.16 157.05 813.58 162.96C838.41 172.66 842.96 180.11 842.96 191.27C842.96 198.48 840.04 204.68 834.53 209.22C829 213.66 821.32 216.01 812.3 216.01L812.31 216.02ZM785.71 187.55L785.59 187.89C784.66 190.4 784.4 196.13 787.47 201.63C792 209.82 800.36 213.97 812.32 213.97C820.87 213.97 828.11 211.78 833.26 207.64C838.28 203.51 840.93 197.86 840.93 191.28C840.93 181.05 836.59 174.15 812.86 164.88C796.23 158.49 794.84 152.84 794.84 148.04C794.84 142.26 798.99 135.5 810.67 135.5C816.91 135.5 821.64 138.02 823.63 142.4C825.16 145.76 824.74 149.8 822.62 152.23L822.37 152.52L834.04 158.64L834.19 158.4C836.58 154.53 835.71 148.97 834.54 146.17C831.25 138.22 822.33 133.47 810.67 133.47C803.98 133.47 797.79 135.48 793.25 139.13C788.58 142.91 786.01 148.14 786.01 153.85C786.01 159.56 787.76 163.87 791.5 167.55C794.73 170.72 799.58 173.56 807.7 177.06C809.2 177.7 810.76 178.37 812.19 179.03C823.99 184 831.22 187.49 831.22 196.21C831.22 206.2 824.33 211.93 812.32 211.93C806.12 211.93 801.67 209.84 799.08 205.71C796.42 201.47 796.64 196.32 797.17 194.98L797.24 194.81L797.54 194.49L785.72 187.54L785.71 187.55Z" fill="#30302D"/>
<path d="M936.13 214.92H900.15V208.79H902.5C904.41 208.79 905.81 208.67 907.06 208.4C907.95 208.2 908.57 207.74 909.06 206.94C909.38 206.46 910.02 205.07 910.02 201.26V151.6L886.12 214.92H881.45L881.2 214.26L857.55 151.97V201.27C857.55 205.09 858.19 206.47 858.47 206.88C859.02 207.77 859.63 208.19 860.63 208.41C861.78 208.67 863.19 208.8 865.08 208.8H867.43V214.93H841.55V208.8H843.9C845.81 208.8 847.21 208.68 848.46 208.41C849.35 208.21 849.97 207.75 850.46 206.95C850.78 206.46 851.43 205.08 851.43 201.27V146.18C851.43 142.69 850.9 141.11 850.46 140.39C849.97 139.6 849.36 139.15 848.47 138.93C847.14 138.75 845.62 138.65 843.91 138.65H841.56V132.52H866.44L867.25 134.16L888.89 190.38L910.77 132.52H936.14V138.65H933.79C932.07 138.65 930.55 138.75 929.12 138.95C928.22 139.15 927.62 139.57 927.13 140.38C926.69 141.1 926.16 142.7 926.16 146.28V201.15C926.16 204.64 926.69 206.22 927.13 206.94C927.63 207.76 928.25 208.18 929.24 208.4C930.48 208.67 931.89 208.79 933.79 208.79H936.14V214.92H936.13ZM902.21 212.87H934.08V210.84H933.78C931.72 210.84 930.19 210.71 928.8 210.41C927.26 210.08 926.17 209.32 925.37 208.02C924.51 206.63 924.1 204.39 924.1 201.15V146.28C924.1 142.98 924.52 140.69 925.37 139.3C926.16 138.01 927.23 137.26 928.75 136.93C930.35 136.7 931.97 136.6 933.78 136.6H934.08V134.57H912.18L888.9 196.14L865.16 134.57H843.61V136.6H843.91C845.72 136.6 847.33 136.7 848.86 136.92C850.38 137.28 851.45 138.06 852.22 139.31C853.08 140.7 853.49 142.95 853.49 146.18V201.27C853.49 204.49 853.06 206.76 852.22 208.02C851.43 209.3 850.35 210.08 848.91 210.41C847.5 210.71 845.96 210.84 843.91 210.84H843.61V212.87H865.39V210.84H865.09C863.04 210.84 861.49 210.7 860.2 210.41C858.68 210.08 857.59 209.33 856.79 208.03C855.95 206.76 855.52 204.49 855.52 201.27V140.79L882.89 212.87H884.73L912.1 140.36V201.27C912.1 204.48 911.67 206.75 910.84 208.02C910.05 209.3 908.97 210.08 907.53 210.41C906.12 210.71 904.58 210.84 902.53 210.84H902.23V212.87H902.21Z" fill="#30302D"/>
</svg>
