<svg width="928" height="94" viewBox="0 0 928 94" fill="none" xmlns="http://www.w3.org/2000/svg">
<path d="M18.1699 1.45996V26.15H32.0898V1.45996H49.6201V72.03H32.0898V43.08H18.1699V72.03H0.609863V1.45996H18.1699Z" fill="#7B89BB"/>
<path d="M113.45 72.03H97.29V49.03C97.29 44.99 96.35 41.91 94.46 39.77C92.59 37.62 89.7299 36.54 85.8999 36.54C84.4299 36.54 83.0199 36.83 81.6699 37.4C80.3199 37.96 79.1501 38.71 78.1401 39.66C77.1301 40.6 76.3202 41.72 75.7202 43.03C75.1102 44.34 74.7998 45.74 74.7998 47.23C74.7998 50.66 75.8201 53.4001 77.8701 55.4401C79.9301 57.4901 82.5101 58.51 85.6001 58.51C87.0701 58.51 88.4402 58.38 89.7202 58.11C91.0102 57.84 92.2 57.51 93.27 57.11V70.41C91.72 71.49 90.0698 72.22 88.3198 72.62C86.5798 73.03 84.5901 73.24 82.3701 73.24C79.3501 73.24 76.41 72.62 73.54 71.38C70.69 70.13 68.1602 68.38 65.9702 66.13C63.8002 63.87 62.0399 61.18 60.6899 58.05C59.3399 54.92 58.6699 51.45 58.6699 47.63C58.6699 43.81 59.3399 40.6 60.6899 37.48C62.0399 34.36 63.8802 31.6401 66.2402 29.3201C68.5902 27.0001 71.4099 25.17 74.6899 23.83C77.9899 22.48 81.6201 21.8101 85.6001 21.8101C89.8301 21.8101 93.6601 22.4 97.1001 23.59C100.53 24.76 103.45 26.38 105.88 28.46C108.3 30.55 110.17 33.02 111.48 35.89C112.79 38.74 113.45 41.85 113.45 45.21V72.03Z" fill="#7B89BB"/>
<path d="M163.84 72.03H148.3V43.7C148.3 41.82 147.82 40.25 146.87 39.01C145.93 37.76 144.56 37.13 142.75 37.13C140.94 37.13 139.55 37.76 138.6 39.01C137.66 40.25 137.2 41.81 137.2 43.7V72.03H121.69V43.6C121.69 40.44 122.15 37.53 123.09 34.88C124.02 32.23 125.39 29.93 127.21 27.99C129.04 26.04 131.25 24.5201 133.83 23.4401C136.41 22.3601 139.38 21.8201 142.74 21.8201C146.1 21.8201 149.08 22.38 151.71 23.49C154.35 24.61 156.56 26.12 158.33 28.04C160.11 29.95 161.46 32.2401 162.4 34.9301C163.35 37.6201 163.83 40.52 163.83 43.6V72.03H163.84Z" fill="#7B89BB"/>
<path d="M187.62 23.02V51.35C187.62 53.23 188.08 54.8101 189.02 56.0601C189.97 57.3001 191.35 57.92 193.17 57.92C194.99 57.92 196.35 57.3001 197.29 56.0601C198.24 54.8101 198.72 53.23 198.72 51.35V23.02H214.26V51.45C214.26 54.61 213.78 57.52 212.83 60.17C211.89 62.83 210.54 65.12 208.76 67.04C206.98 68.95 204.77 70.4501 202.14 71.5601C199.51 72.6701 196.53 73.23 193.17 73.23C189.81 73.23 186.82 72.69 184.2 71.61C181.57 70.53 179.37 69.03 177.58 67.09C175.8 65.14 174.44 62.83 173.51 60.17C172.57 57.52 172.11 54.61 172.11 51.45V23.02H187.62Z" fill="#7B89BB"/>
<path d="M300.43 21.22C300.43 30.09 296.43 34.93 288.45 35.73V35.92C288.91 36.07 289.61 36.2401 290.55 36.4301C291.5 36.6301 292.25 36.8001 292.78 36.9401C295.53 37.8001 297.51 38.8501 298.73 40.0601C300.61 41.8801 301.56 44.4 301.56 47.63V72.03H283.79V50.54C283.79 48.87 283.2 47.5901 282.01 46.6901C280.84 45.7701 278.52 45.25 275.04 45.1H273.21V29.16C276.44 29.16 278.82 28.7 280.37 27.76C281.91 26.83 282.69 24.95 282.69 22.11C282.69 20.17 282 18.76 280.62 17.88C279.25 17 277.86 16.5601 276.45 16.5601C274.17 16.5601 272.53 17.31 271.55 18.79C270.58 20.26 270.1 22.61 270.1 25.84V72.02H251.74V25.84C251.74 22 252.31 18.5 253.46 15.34C254.6 12.18 256.25 9.50004 258.39 7.29004C260.54 5.07004 263.16 3.32997 266.25 2.08997C269.35 0.849966 272.89 0.22998 276.86 0.22998C280.21 0.22998 283.34 0.689976 286.23 1.59998C289.12 2.49998 291.62 3.82006 293.74 5.56006C295.85 7.30006 297.5 9.49 298.67 12.13C299.85 14.76 300.45 17.78 300.45 21.2L300.43 21.22Z" fill="#7B89BB"/>
<path d="M335.42 54.1801L329.25 44.51L342.47 35.84C341.32 35.16 340.24 34.7 339.24 34.47C338.23 34.24 337.23 34.12 336.22 34.12C334.66 34.12 333.26 34.48 332.02 35.2C330.78 35.9 329.7 36.84 328.79 38.03C327.89 39.2 327.19 40.53 326.69 42.04C326.19 43.55 325.94 45.11 325.94 46.73C325.94 48.47 326.24 50.09 326.83 51.58C327.44 53.05 328.24 54.37 329.25 55.51C330.25 56.64 331.41 57.5301 332.72 58.1801C334.03 58.8301 335.39 59.15 336.81 59.15C339.62 59.15 342.38 58.13 345.08 56.08C347.77 54.02 349.83 51.37 351.25 48.14L362.83 54.09C361.63 56.98 360.08 59.61 358.2 61.98C356.32 64.34 354.19 66.36 351.85 68.04C349.49 69.71 346.96 71 344.23 71.92C341.52 72.82 338.68 73.27 335.72 73.27C332.29 73.27 329.04 72.58 325.97 71.2C322.91 69.82 320.23 67.9401 317.92 65.5701C315.6 63.1901 313.77 60.45 312.43 57.36C311.08 54.26 310.41 50.9901 310.41 47.5601C310.41 44.1301 311.08 40.88 312.43 37.79C313.78 34.69 315.61 31.96 317.92 29.6C320.24 27.25 322.91 25.37 325.97 23.97C329.04 22.56 332.28 21.84 335.72 21.84C341.35 21.84 346.1 23.26 349.96 26.09C353.84 28.91 357.08 32.7 359.71 37.45L335.42 54.2V54.1801Z" fill="#7B89BB"/>
<path d="M421.52 1.45996V49.85C421.52 53.35 420.81 56.53 419.39 59.38C417.97 62.23 416.01 64.7 413.52 66.76C411.04 68.81 408.11 70.41 404.72 71.55C401.33 72.68 397.65 73.25 393.68 73.25C389.71 73.25 386.29 72.59 382.99 71.28C379.7 69.97 376.85 68.16 374.43 65.84C372.01 63.51 370.12 60.78 368.78 57.65C367.43 54.53 366.76 51.12 366.76 47.42C366.76 43.53 367.45 40 368.83 36.84C370.21 33.68 372.09 31 374.48 28.79C376.86 26.57 379.65 24.85 382.83 23.65C386.02 22.43 389.41 21.8201 392.98 21.8201C394.79 21.8201 396.33 21.94 397.61 22.17C398.88 22.41 399.93 22.7 400.73 23.03V37.95C400.33 37.68 399.58 37.3801 398.47 37.0601C397.35 36.7201 395.89 36.55 394.08 36.55C392.46 36.55 390.96 36.82 389.58 37.36C388.21 37.9 387.04 38.65 386.05 39.62C385.08 40.59 384.31 41.75 383.73 43.09C383.15 44.44 382.87 45.92 382.87 47.53C382.87 50.76 383.91 53.4 385.99 55.45C388.09 57.5 390.74 58.52 393.96 58.52C395.91 58.52 397.6 58.19 399 57.52C400.41 56.84 401.59 55.93 402.53 54.8C403.48 53.66 404.19 52.31 404.66 50.76C405.12 49.22 405.36 47.5701 405.36 45.8101V1.45996H421.52Z" fill="#7B89BB"/>
<path d="M483.12 1.45996V49.85C483.12 53.35 482.41 56.53 480.99 59.38C479.57 62.23 477.61 64.7 475.12 66.76C472.64 68.81 469.71 70.41 466.32 71.55C462.93 72.68 459.25 73.25 455.28 73.25C451.31 73.25 447.89 72.59 444.59 71.28C441.3 69.97 438.45 68.16 436.03 65.84C433.61 63.51 431.72 60.78 430.38 57.65C429.04 54.52 428.36 51.12 428.36 47.42C428.36 43.53 429.05 40 430.43 36.84C431.81 33.68 433.69 31 436.08 28.79C438.46 26.57 441.25 24.85 444.43 23.65C447.62 22.43 451.01 21.8201 454.58 21.8201C456.39 21.8201 457.93 21.94 459.21 22.17C460.48 22.41 461.53 22.7 462.33 23.03V37.95C461.93 37.68 461.18 37.3801 460.07 37.0601C458.95 36.7201 457.49 36.55 455.68 36.55C454.06 36.55 452.56 36.82 451.18 37.36C449.81 37.9 448.64 38.65 447.65 39.62C446.68 40.59 445.91 41.75 445.33 43.09C444.75 44.44 444.47 45.92 444.47 47.53C444.47 50.76 445.51 53.4 447.59 55.45C449.69 57.5 452.34 58.52 455.56 58.52C457.51 58.52 459.2 58.19 460.6 57.52C462.01 56.84 463.19 55.93 464.13 54.8C465.08 53.66 465.79 52.31 466.26 50.76C466.72 49.22 466.96 47.5701 466.96 45.8101V1.45996H483.12Z" fill="#7B89BB"/>
<path d="M506.8 23.02V51.67C506.8 53.54 507.23 55.12 508.09 56.41C508.97 57.69 510.49 58.3201 512.64 58.3201C513.84 58.3201 514.79 58.12 515.49 57.73C516.2 57.32 516.74 56.7601 517.11 56.0601C517.49 55.3501 517.74 54.57 517.86 53.72C518 52.88 518.08 51.99 518.08 51.05V23.02H533.62V54.87C533.62 59.18 532.52 62.83 530.33 65.83C528.14 68.81 524.92 71.0101 520.69 72.4301V93.1901H504.56V72.4301C495.69 69.7401 491.26 63.89 491.26 54.87V23.02H506.8Z" fill="#7B89BB"/>
<path d="M640.78 36.73C640.78 41.78 639.84 46.52 637.95 50.95C636.07 55.3899 633.49 59.2601 630.22 62.5601C626.97 65.8501 623.15 68.45 618.78 70.37C614.42 72.29 609.79 73.25 604.89 73.25C599.99 73.25 595.13 72.28 590.75 70.34C586.39 68.39 582.59 65.75 579.36 62.42C576.14 59.08 573.61 55.2201 571.77 50.8101C569.92 46.3901 569 41.7 569 36.73C569 31.76 569.93 26.95 571.8 22.51C573.68 18.08 576.26 14.2201 579.53 10.9301C582.79 7.63005 586.61 5.02999 590.97 3.12C595.33 1.2 599.97 0.23999 604.89 0.23999C609.81 0.23999 614.72 1.23998 619.08 3.22998C623.46 5.20998 627.27 7.85004 630.5 11.17C633.73 14.5 636.25 18.38 638.07 22.83C639.88 27.27 640.79 31.9 640.79 36.72L640.78 36.73ZM604.89 55.28C607.51 55.28 609.93 54.78 612.13 53.77C614.35 52.77 616.28 51.41 617.89 49.7C619.51 47.9799 620.76 46 621.66 43.75C622.58 41.49 623.03 39.15 623.03 36.72C623.03 34.29 622.59 31.98 621.71 29.77C620.85 27.55 619.61 25.58 617.99 23.87C616.37 22.15 614.44 20.77 612.17 19.72C609.92 18.68 607.46 18.16 604.77 18.16C602.08 18.16 599.72 18.69 597.5 19.72C595.29 20.76 593.39 22.14 591.82 23.87C590.24 25.58 588.99 27.55 588.08 29.77C587.18 31.98 586.73 34.29 586.73 36.72C586.73 39.15 587.17 41.49 588.08 43.75C589 46 590.26 47.9799 591.88 49.7C593.5 51.41 595.41 52.76 597.62 53.77C599.84 54.78 602.26 55.28 604.89 55.28Z" fill="#7B89BB"/>
<path d="M690.37 72.03H674.83V43.7C674.83 41.82 674.35 40.25 673.4 39.01C672.46 37.76 671.09 37.13 669.28 37.13C667.47 37.13 666.08 37.76 665.13 39.01C664.19 40.25 663.73 41.81 663.73 43.7V72.03H648.22V43.6C648.22 40.44 648.68 37.53 649.62 34.88C650.55 32.23 651.92 29.93 653.74 27.99C655.57 26.04 657.78 24.5201 660.36 23.4401C662.94 22.3601 665.91 21.8201 669.27 21.8201C672.63 21.8201 675.61 22.38 678.24 23.49C680.88 24.61 683.09 26.12 684.86 28.04C686.64 29.95 687.99 32.2401 688.93 34.9301C689.88 37.6201 690.36 40.52 690.36 43.6V72.03H690.37Z" fill="#7B89BB"/>
<path d="M746.51 67.4C746.51 76 744.31 82.57 739.91 87.14C735.51 91.72 728.53 94.01 718.99 94.01C716.44 94.01 713.88 93.8201 711.32 93.4401C708.77 93.0801 706.28 92.5001 703.86 91.6901V76.58C706.21 77.44 708.5 78.1001 710.73 78.5701C712.95 79.0501 715.51 79.3 718.4 79.3C722.61 79.3 725.76 78.5101 727.85 76.9301C729.95 75.3501 731 73.1401 731 70.3101V46.91C731 45.51 730.81 44.19 730.43 42.95C730.05 41.7 729.47 40.6 728.71 39.66C727.94 38.71 726.95 37.96 725.75 37.4C724.55 36.83 723.1 36.54 721.41 36.54C720.13 36.54 718.91 36.8 717.72 37.29C716.55 37.79 715.53 38.5 714.65 39.42C713.77 40.32 713.07 41.4 712.58 42.65C712.08 43.89 711.83 45.21 711.83 46.61C711.83 49.5 712.66 52.01 714.33 54.12C716.01 56.24 718.41 57.3 721.52 57.3C723.65 57.3 725.77 56.84 727.87 55.9V71.11C726.52 71.45 725.16 71.7 723.78 71.84C722.39 71.97 720.83 72.03 719.09 72.03C715.93 72.03 712.98 71.36 710.26 70.01C707.53 68.66 705.17 66.87 703.18 64.62C701.2 62.36 699.66 59.74 698.55 56.76C697.45 53.76 696.91 50.6101 696.91 47.3101C696.91 44.0101 697.49 40.65 698.66 37.59C699.84 34.54 701.49 31.84 703.61 29.49C705.72 27.14 708.3 25.28 711.31 23.89C714.34 22.51 717.67 21.8201 721.3 21.8201C725.19 21.8201 728.68 22.48 731.77 23.79C734.87 25.1 737.51 26.95 739.69 29.34C741.88 31.73 743.55 34.5901 744.73 37.9301C745.91 41.2601 746.51 44.9201 746.51 48.9401V67.41V67.4Z" fill="#7B89BB"/>
<path d="M803.88 47.53C803.88 50.96 803.21 54.23 801.86 57.33C800.51 60.42 798.68 63.16 796.37 65.54C794.05 67.91 791.36 69.79 788.29 71.17C785.23 72.55 782 73.24 778.57 73.24C775.14 73.24 771.89 72.55 768.82 71.17C765.76 69.79 763.08 67.91 760.77 65.54C758.45 63.16 756.62 60.42 755.28 57.33C753.93 54.23 753.26 50.96 753.26 47.53C753.26 44.1 753.93 40.85 755.28 37.76C756.63 34.66 758.46 31.9301 760.77 29.5701C763.09 27.2201 765.76 25.3401 768.82 23.9401C771.89 22.5301 775.13 21.8101 778.57 21.8101C782.01 21.8101 785.34 22.5201 788.4 23.9401C791.47 25.3401 794.14 27.24 796.42 29.62C798.7 32.01 800.51 34.76 801.86 37.86C803.21 40.95 803.88 44.17 803.88 47.53ZM778.57 57.92C779.98 57.92 781.3 57.6401 782.5 57.0601C783.72 56.4901 784.76 55.71 785.62 54.74C786.5 53.76 787.17 52.64 787.64 51.4C788.1 50.16 788.34 48.87 788.34 47.52C788.34 46.17 788.1 44.88 787.64 43.64C787.17 42.4 786.52 41.3 785.67 40.33C784.82 39.35 783.79 38.57 782.55 37.99C781.31 37.42 779.94 37.13 778.46 37.13C777.06 37.13 775.77 37.42 774.58 37.99C773.41 38.57 772.39 39.35 771.51 40.33C770.63 41.3 769.96 42.4 769.49 43.64C769.02 44.88 768.79 46.17 768.79 47.52C768.79 48.87 769.02 50.16 769.49 51.4C769.95 52.64 770.63 53.76 771.51 54.74C772.39 55.71 773.43 56.4801 774.63 57.0601C775.83 57.6401 777.14 57.92 778.56 57.92H778.57Z" fill="#7B89BB"/>
<path d="M828.67 1.45996V72.03H812.54V1.45996H828.67Z" fill="#7B89BB"/>
<path d="M862.05 54.1801L855.88 44.51L869.1 35.84C867.95 35.16 866.87 34.7 865.87 34.47C864.86 34.24 863.86 34.12 862.85 34.12C861.29 34.12 859.89 34.48 858.65 35.2C857.41 35.9 856.33 36.84 855.42 38.03C854.52 39.2 853.82 40.53 853.32 42.04C852.82 43.55 852.57 45.11 852.57 46.73C852.57 48.47 852.87 50.09 853.46 51.58C854.07 53.05 854.87 54.37 855.88 55.51C856.88 56.64 858.04 57.5301 859.35 58.1801C860.66 58.8301 862.02 59.15 863.44 59.15C866.25 59.15 869.01 58.13 871.71 56.08C874.4 54.02 876.46 51.37 877.88 48.14L889.46 54.09C888.26 56.98 886.71 59.61 884.83 61.98C882.95 64.34 880.82 66.36 878.48 68.04C876.12 69.71 873.59 71 870.86 71.92C868.15 72.82 865.31 73.27 862.35 73.27C858.92 73.27 855.67 72.58 852.6 71.2C849.54 69.82 846.86 67.9401 844.55 65.5701C842.23 63.1901 840.4 60.45 839.06 57.36C837.71 54.26 837.04 50.9901 837.04 47.5601C837.04 44.1301 837.71 40.88 839.06 37.79C840.41 34.69 842.24 31.96 844.55 29.6C846.87 27.25 849.54 25.37 852.6 23.97C855.67 22.56 858.91 21.84 862.35 21.84C867.98 21.84 872.73 23.26 876.59 26.09C880.47 28.91 883.71 32.7 886.34 37.45L862.05 54.2V54.1801Z" fill="#7B89BB"/>
<path d="M924.75 23.02V36.13H911.93C911.19 36.13 910.48 36.35 909.8 36.78C909.13 37.21 908.8 37.77 908.8 38.45C908.8 39.53 910.82 40.87 914.86 42.49C918.88 44.11 922.01 46.03 924.26 48.25C926.52 50.46 927.65 53.24 927.65 56.6C927.65 61.72 926.17 65.57 923.21 68.15C920.26 70.73 916.27 72.03 911.23 72.03H892.79V58.3201H908.52C909.25 58.3201 909.87 58.13 910.38 57.75C910.88 57.37 911.13 56.82 911.13 56.08C911.13 55.22 910.63 54.56 909.62 54.09C908.61 53.61 907.13 52.96 905.18 52.15C903.3 51.34 901.61 50.51 900.14 49.65C898.67 48.77 897.42 47.75 896.4 46.58C895.39 45.4 894.62 44.04 894.08 42.49C893.54 40.95 893.27 39.1001 893.27 36.9401C893.27 34.7801 893.69 32.86 894.54 31.15C895.38 29.43 896.52 27.97 897.96 26.76C899.41 25.54 901.06 24.62 902.91 23.99C904.75 23.34 906.69 23.02 908.7 23.02H924.75Z" fill="#7B89BB"/>
</svg>
