<svg width="928" height="91" viewBox="0 0 928 91" fill="none" xmlns="http://www.w3.org/2000/svg">
<path d="M17.5601 1.16998V25H30.9902V1.16998H47.9102V69.28H30.9902V41.35H17.5601V69.28H0.620117V1.16998H17.5601Z" fill="#FEBB19"/>
<path d="M109.51 69.27H93.9199V47.08C93.9199 43.18 93.0099 40.21 91.1899 38.14C89.3799 36.06 86.6302 35.02 82.9302 35.02C81.5102 35.02 80.1501 35.3 78.8501 35.85C77.5501 36.39 76.4102 37.12 75.4502 38.03C74.4802 38.93 73.6999 40.02 73.1099 41.28C72.5199 42.55 72.23 43.9 72.23 45.33C72.23 48.64 73.2199 51.28 75.1899 53.26C77.1799 55.23 79.6699 56.22 82.6499 56.22C84.0699 56.22 85.3899 56.09 86.6299 55.83C87.8799 55.57 89.0201 55.25 90.0601 54.87V67.71C88.5701 68.75 86.9698 69.46 85.2798 69.84C83.5998 70.24 81.68 70.44 79.54 70.44C76.63 70.44 73.78 69.84 71.02 68.65C68.27 67.44 65.8302 65.75 63.7202 63.58C61.6202 61.4 59.9299 58.8 58.6299 55.78C57.3299 52.76 56.6802 49.41 56.6802 45.72C56.6802 42.03 57.3299 38.94 58.6299 35.92C59.9299 32.9 61.71 30.28 63.98 28.05C66.25 25.82 68.9701 24.05 72.1401 22.75C75.3201 21.45 78.8302 20.8 82.6602 20.8C86.7502 20.8 90.4398 21.37 93.7598 22.52C97.0698 23.65 99.89 25.22 102.23 27.22C104.57 29.23 106.37 31.62 107.63 34.39C108.89 37.14 109.53 40.15 109.53 43.38V69.26L109.51 69.27Z" fill="#FEBB19"/>
<path d="M158.14 69.27H143.15V41.93C143.15 40.11 142.69 38.6 141.77 37.41C140.87 36.2 139.54 35.59 137.79 35.59C136.04 35.59 134.7 36.2 133.79 37.41C132.89 38.61 132.44 40.11 132.44 41.93V69.27H117.47V41.83C117.47 38.78 117.92 35.98 118.82 33.41C119.72 30.85 121.04 28.63 122.8 26.76C124.57 24.88 126.7 23.41 129.19 22.37C131.68 21.33 134.55 20.81 137.79 20.81C141.03 20.81 143.91 21.35 146.44 22.42C148.99 23.5 151.12 24.96 152.83 26.81C154.55 28.65 155.85 30.86 156.75 33.46C157.67 36.06 158.13 38.85 158.13 41.83V69.27H158.14Z" fill="#FEBB19"/>
<path d="M181.08 21.98V49.32C181.08 51.14 181.53 52.66 182.43 53.87C183.35 55.07 184.68 55.66 186.43 55.66C188.18 55.66 189.5 55.06 190.41 53.87C191.33 52.66 191.79 51.14 191.79 49.32V21.98H206.78V49.42C206.78 52.47 206.32 55.28 205.4 57.84C204.5 60.41 203.19 62.61 201.48 64.47C199.76 66.31 197.63 67.76 195.09 68.84C192.56 69.91 189.67 70.45 186.44 70.45C183.21 70.45 180.31 69.93 177.79 68.89C175.26 67.85 173.13 66.4 171.4 64.52C169.68 62.64 168.37 60.41 167.48 57.84C166.58 55.28 166.13 52.47 166.13 49.42V21.98H181.1H181.08Z" fill="#FEBB19"/>
<path d="M289.96 20.24C289.96 28.8 286.1 33.47 278.4 34.25V34.43C278.85 34.57 279.52 34.74 280.43 34.92C281.35 35.11 282.07 35.28 282.59 35.41C285.24 36.24 287.15 37.25 288.33 38.42C290.15 40.17 291.06 42.6 291.06 45.72V69.26H273.91V48.52C273.91 46.91 273.34 45.67 272.19 44.8C271.06 43.92 268.82 43.41 265.46 43.27H263.69V27.89C266.81 27.89 269.11 27.44 270.6 26.54C272.09 25.64 272.83 23.82 272.83 21.08C272.83 19.21 272.16 17.85 270.83 17C269.51 16.16 268.17 15.73 266.8 15.73C264.6 15.73 263.02 16.45 262.07 17.89C261.13 19.31 260.67 21.58 260.67 24.7V69.26H242.95V24.7C242.95 21 243.5 17.62 244.61 14.57C245.71 11.52 247.3 8.92999 249.37 6.79999C251.45 4.65999 253.98 2.98 256.96 1.78C259.95 0.579999 263.37 -0.0100098 267.2 -0.0100098C270.44 -0.0100098 273.45 0.429992 276.24 1.31999C279.03 2.18999 281.44 3.46 283.49 5.14C285.53 6.82 287.11 8.93 288.25 11.48C289.39 14.01 289.97 16.93 289.97 20.24H289.96Z" fill="#FEBB19"/>
<path d="M323.72 52.05L317.77 42.72L330.53 34.35C329.42 33.69 328.38 33.25 327.41 33.02C326.44 32.8 325.47 32.68 324.5 32.68C322.99 32.68 321.64 33.03 320.45 33.72C319.25 34.4 318.22 35.31 317.33 36.45C316.46 37.58 315.78 38.87 315.3 40.32C314.81 41.78 314.57 43.28 314.57 44.84C314.57 46.52 314.86 48.08 315.43 49.52C316.01 50.94 316.79 52.21 317.77 53.31C318.74 54.4 319.86 55.26 321.12 55.88C322.38 56.5 323.7 56.82 325.07 56.82C327.79 56.82 330.45 55.83 333.05 53.86C335.65 51.87 337.63 49.31 339 46.19L350.17 51.93C349.01 54.72 347.52 57.26 345.7 59.54C343.88 61.81 341.83 63.76 339.57 65.39C337.3 67 334.85 68.25 332.22 69.13C329.6 69.99 326.87 70.43 324.01 70.43C320.7 70.43 317.57 69.76 314.6 68.43C311.65 67.1 309.07 65.29 306.83 63C304.6 60.7 302.83 58.06 301.53 55.07C300.23 52.08 299.58 48.92 299.58 45.61C299.58 42.3 300.23 39.16 301.53 36.18C302.83 33.19 304.6 30.55 306.83 28.28C309.06 26.01 311.65 24.2 314.6 22.85C317.56 21.49 320.69 20.8 324.01 20.8C329.45 20.8 334.03 22.17 337.76 24.91C341.5 27.63 344.63 31.29 347.17 35.88L323.73 52.04L323.72 52.05Z" fill="#FEBB19"/>
<path d="M406.82 1.16998V47.87C406.82 51.25 406.13 54.31 404.77 57.07C403.4 59.82 401.51 62.2 399.11 64.19C396.72 66.16 393.89 67.71 390.61 68.82C387.34 69.91 383.78 70.46 379.96 70.46C376.14 70.46 372.83 69.82 369.64 68.56C366.47 67.3 363.72 65.55 361.38 63.31C359.04 61.06 357.22 58.42 355.92 55.41C354.62 52.4 353.97 49.11 353.97 45.54C353.97 41.79 354.63 38.38 355.97 35.33C357.3 32.28 359.12 29.69 361.43 27.56C363.73 25.42 366.42 23.76 369.49 22.6C372.57 21.42 375.84 20.83 379.29 20.83C381.04 20.83 382.53 20.95 383.76 21.17C384.99 21.4 385.99 21.68 386.77 22V36.4C386.39 36.14 385.66 35.85 384.59 35.54C383.51 35.22 382.1 35.05 380.35 35.05C378.79 35.05 377.34 35.31 376.01 35.83C374.69 36.35 373.55 37.08 372.61 38.01C371.67 38.95 370.93 40.06 370.38 41.36C369.82 42.66 369.55 44.09 369.55 45.65C369.55 48.77 370.55 51.31 372.56 53.29C374.59 55.26 377.15 56.25 380.25 56.25C382.13 56.25 383.76 55.93 385.11 55.29C386.47 54.63 387.61 53.76 388.51 52.67C389.43 51.57 390.11 50.27 390.56 48.77C391.01 47.28 391.24 45.69 391.24 43.99V1.18997H406.83L406.82 1.16998Z" fill="#FEBB19"/>
<path d="M466.26 1.16998V47.87C466.26 51.25 465.57 54.31 464.21 57.07C462.84 59.82 460.95 62.2 458.55 64.19C456.16 66.16 453.33 67.71 450.05 68.82C446.78 69.91 443.22 70.46 439.4 70.46C435.58 70.46 432.27 69.82 429.08 68.56C425.91 67.3 423.16 65.55 420.82 63.31C418.48 61.06 416.66 58.42 415.36 55.41C414.06 52.4 413.41 49.11 413.41 45.54C413.41 41.79 414.07 38.38 415.41 35.33C416.74 32.28 418.56 29.69 420.87 27.56C423.17 25.42 425.86 23.76 428.93 22.6C432.01 21.42 435.28 20.83 438.73 20.83C440.48 20.83 441.97 20.95 443.2 21.17C444.43 21.4 445.43 21.68 446.21 22V36.4C445.83 36.14 445.1 35.85 444.03 35.54C442.95 35.22 441.54 35.05 439.79 35.05C438.23 35.05 436.78 35.31 435.45 35.83C434.13 36.35 432.99 37.08 432.05 38.01C431.11 38.95 430.37 40.06 429.82 41.36C429.26 42.66 428.99 44.09 428.99 45.65C428.99 48.77 429.99 51.31 432 53.29C434.03 55.26 436.59 56.25 439.69 56.25C441.57 56.25 443.2 55.93 444.55 55.29C445.91 54.63 447.05 53.76 447.95 52.67C448.87 51.57 449.55 50.27 450 48.77C450.45 47.28 450.68 45.69 450.68 43.99V1.18997H466.27L466.26 1.16998Z" fill="#FEBB19"/>
<path d="M489.11 21.98V49.63C489.11 51.44 489.53 52.96 490.36 54.2C491.2 55.43 492.67 56.04 494.75 56.04C495.91 56.04 496.83 55.85 497.5 55.47C498.19 55.07 498.71 54.53 499.06 53.86C499.42 53.17 499.66 52.42 499.79 51.6C499.93 50.79 500 49.93 500 49.03V21.98H514.99V52.72C514.99 56.88 513.93 60.41 511.82 63.3C509.7 66.18 506.6 68.3 502.52 69.67V89.7H486.95V69.67C478.39 67.07 474.11 61.43 474.11 52.73V21.99H489.1L489.11 21.98Z" fill="#FEBB19"/>
<path d="M583.48 45.24H583.95L588.84 13.02C589.22 10.56 589.76 8.51002 590.48 6.86002C591.19 5.20002 592.08 3.85001 593.16 2.81001C594.23 1.77001 595.43 1.04 596.77 0.630005C598.1 0.210005 599.58 0.0100098 601.19 0.0100098C603.07 0.0100098 604.76 0.210016 606.26 0.610016C607.75 0.990016 609.04 1.69 610.13 2.69C611.23 3.7 612.13 5.11001 612.81 6.93001C613.5 8.74001 614.01 11.1 614.34 14.02L619.87 69.29H603.73L600.69 13.81H600.51C599.92 18.61 598.88 24.91 597.39 32.7C595.9 40.48 594.15 50.15 592.14 61.7C591.69 64.16 590.7 66.24 589.18 67.94C587.65 69.62 585.81 70.46 583.67 70.46C581.66 70.46 579.86 69.68 578.27 68.12C576.67 66.56 575.59 64.09 575.02 60.71L566.83 15.37H566.65L563.71 69.29H547.57L553.1 13.73C553.36 10.87 553.84 8.55 554.56 6.77C555.27 4.99 556.18 3.59001 557.29 2.59001C558.39 1.59001 559.69 0.910013 561.19 0.560013C562.68 0.200013 564.37 0.0100098 566.26 0.0100098C573.19 0.0100098 577.28 4.13001 578.53 12.35L583.49 45.25L583.48 45.24Z" fill="#FEBB19"/>
<path d="M677.08 69.27H661.49V47.08C661.49 43.18 660.58 40.21 658.76 38.14C656.95 36.06 654.2 35.02 650.5 35.02C649.08 35.02 647.72 35.3 646.42 35.85C645.12 36.39 643.98 37.12 643.02 38.03C642.05 38.93 641.27 40.02 640.68 41.28C640.09 42.55 639.8 43.9 639.8 45.33C639.8 48.64 640.79 51.28 642.76 53.26C644.75 55.23 647.24 56.22 650.22 56.22C651.64 56.22 652.96 56.09 654.2 55.83C655.45 55.57 656.59 55.25 657.63 54.87V67.71C656.14 68.75 654.54 69.46 652.85 69.84C651.17 70.24 649.25 70.44 647.11 70.44C644.2 70.44 641.35 69.84 638.59 68.65C635.84 67.44 633.4 65.75 631.29 63.58C629.19 61.4 627.5 58.8 626.2 55.78C624.9 52.76 624.25 49.41 624.25 45.72C624.25 42.03 624.9 38.94 626.2 35.92C627.5 32.9 629.28 30.28 631.55 28.05C633.82 25.82 636.54 24.05 639.71 22.75C642.89 21.45 646.4 20.8 650.23 20.8C654.32 20.8 658.01 21.37 661.33 22.52C664.64 23.65 667.46 25.22 669.8 27.22C672.14 29.23 673.94 31.62 675.2 34.39C676.46 37.14 677.1 40.15 677.1 43.38V69.26L677.08 69.27Z" fill="#FEBB19"/>
<path d="M725.71 69.27H710.72V41.93C710.72 40.11 710.26 38.6 709.34 37.41C708.44 36.2 707.11 35.59 705.36 35.59C703.61 35.59 702.27 36.2 701.36 37.41C700.46 38.61 700.01 40.11 700.01 41.93V69.27H685.04V41.83C685.04 38.78 685.49 35.98 686.39 33.41C687.29 30.85 688.61 28.63 690.37 26.76C692.14 24.88 694.27 23.41 696.76 22.37C699.25 21.33 702.12 20.81 705.36 20.81C708.6 20.81 711.48 21.35 714.01 22.42C716.56 23.5 718.69 24.96 720.4 26.81C722.12 28.65 723.42 30.86 724.32 33.46C725.24 36.06 725.7 38.85 725.7 41.83V69.27H725.71Z" fill="#FEBB19"/>
<path d="M779.89 64.8C779.89 73.1 777.77 79.44 773.52 83.85C769.27 88.27 762.54 90.48 753.33 90.48C750.87 90.48 748.4 90.3 745.92 89.93C743.46 89.58 741.06 89.02 738.72 88.24V73.66C740.99 74.49 743.2 75.13 745.35 75.58C747.49 76.05 749.96 76.28 752.76 76.28C756.83 76.28 759.87 75.51 761.88 73.99C763.91 72.46 764.92 70.33 764.92 67.6V45.02C764.92 43.67 764.74 42.4 764.37 41.2C764.01 39.99 763.45 38.93 762.71 38.03C761.96 37.11 761.01 36.39 759.85 35.85C758.69 35.3 757.29 35.02 755.67 35.02C754.44 35.02 753.25 35.27 752.11 35.75C750.98 36.24 749.99 36.92 749.15 37.8C748.3 38.67 747.63 39.71 747.15 40.92C746.66 42.12 746.42 43.39 746.42 44.74C746.42 47.53 747.23 49.95 748.84 51.99C750.46 54.04 752.78 55.06 755.78 55.06C757.84 55.06 759.89 54.61 761.91 53.71V68.39C760.61 68.72 759.29 68.96 757.96 69.09C756.62 69.21 755.11 69.27 753.44 69.27C750.39 69.27 747.55 68.62 744.92 67.32C742.28 66.02 740.01 64.29 738.09 62.12C736.18 59.94 734.69 57.41 733.62 54.53C732.56 51.64 732.03 48.6 732.03 45.41C732.03 42.22 732.59 38.98 733.72 36.03C734.86 33.09 736.45 30.48 738.5 28.21C740.54 25.94 743.02 24.14 745.93 22.81C748.85 21.48 752.07 20.81 755.57 20.81C759.32 20.81 762.7 21.45 765.68 22.71C768.67 23.98 771.22 25.76 773.32 28.06C775.43 30.37 777.05 33.13 778.18 36.35C779.32 39.56 779.9 43.1 779.9 46.98V64.81L779.89 64.8Z" fill="#FEBB19"/>
<path d="M835.25 45.63C835.25 48.94 834.6 52.09 833.3 55.09C832 58.07 830.23 60.72 828 63.02C825.77 65.31 823.17 67.12 820.2 68.45C817.25 69.78 814.13 70.45 810.82 70.45C807.51 70.45 804.38 69.78 801.41 68.45C798.46 67.12 795.88 65.31 793.64 63.02C791.41 60.72 789.64 58.08 788.34 55.09C787.04 52.1 786.39 48.94 786.39 45.63C786.39 42.32 787.04 39.18 788.34 36.2C789.64 33.21 791.41 30.57 793.64 28.3C795.87 26.03 798.46 24.22 801.41 22.87C804.37 21.51 807.5 20.82 810.82 20.82C814.14 20.82 817.36 21.51 820.3 22.87C823.26 24.22 825.84 26.05 828.04 28.35C830.24 30.66 831.99 33.31 833.29 36.3C834.59 39.28 835.24 42.39 835.24 45.63H835.25ZM810.83 55.66C812.19 55.66 813.46 55.39 814.62 54.83C815.8 54.28 816.8 53.53 817.63 52.6C818.47 51.65 819.12 50.57 819.58 49.38C820.03 48.18 820.26 46.94 820.26 45.64C820.26 44.34 820.03 43.09 819.58 41.9C819.13 40.7 818.5 39.64 817.68 38.7C816.86 37.75 815.86 37 814.67 36.44C813.47 35.89 812.16 35.61 810.72 35.61C809.37 35.61 808.12 35.89 806.98 36.44C805.85 37 804.86 37.75 804.02 38.7C803.17 39.64 802.52 40.7 802.07 41.9C801.62 43.1 801.39 44.34 801.39 45.64C801.39 46.94 801.61 48.19 802.07 49.38C802.52 50.58 803.17 51.65 804.02 52.6C804.86 53.54 805.87 54.28 807.03 54.83C808.19 55.39 809.45 55.66 810.82 55.66H810.83Z" fill="#FEBB19"/>
<path d="M864.35 52.05L858.4 42.72L871.16 34.35C870.05 33.69 869.01 33.25 868.04 33.02C867.07 32.8 866.1 32.68 865.13 32.68C863.62 32.68 862.27 33.03 861.08 33.72C859.88 34.4 858.85 35.31 857.96 36.45C857.09 37.58 856.41 38.87 855.93 40.32C855.44 41.78 855.2 43.28 855.2 44.84C855.2 46.52 855.49 48.08 856.06 49.52C856.64 50.94 857.42 52.21 858.4 53.31C859.37 54.4 860.49 55.26 861.75 55.88C863.01 56.5 864.33 56.82 865.7 56.82C868.42 56.82 871.08 55.83 873.68 53.86C876.28 51.87 878.26 49.31 879.63 46.19L890.8 51.93C889.64 54.72 888.15 57.26 886.33 59.54C884.51 61.81 882.46 63.76 880.2 65.39C877.93 67 875.48 68.25 872.85 69.13C870.23 69.99 867.5 70.43 864.64 70.43C861.33 70.43 858.2 69.76 855.23 68.43C852.28 67.1 849.7 65.29 847.46 63C845.23 60.7 843.46 58.06 842.16 55.07C840.86 52.08 840.21 48.92 840.21 45.61C840.21 42.3 840.86 39.16 842.16 36.18C843.46 33.19 845.23 30.55 847.46 28.28C849.69 26.01 852.28 24.2 855.23 22.85C858.19 21.49 861.32 20.8 864.64 20.8C870.08 20.8 874.66 22.17 878.39 24.91C882.13 27.63 885.26 31.29 887.8 35.88L864.36 52.04L864.35 52.05Z" fill="#FEBB19"/>
<path d="M924.85 21.98V34.63H912.48C911.77 34.63 911.08 34.84 910.43 35.25C909.79 35.67 909.47 36.2 909.47 36.86C909.47 37.9 911.42 39.2 915.32 40.76C919.2 42.32 922.22 44.18 924.39 46.32C926.57 48.45 927.66 51.14 927.66 54.38C927.66 59.32 926.23 63.03 923.37 65.53C920.52 68.02 916.67 69.27 911.81 69.27H894.01V56.04H909.19C909.9 56.04 910.5 55.86 910.98 55.49C911.46 55.13 911.71 54.59 911.71 53.88C911.71 53.05 911.22 52.41 910.25 51.96C909.28 51.49 907.85 50.87 905.96 50.09C904.14 49.3099 902.52 48.5 901.1 47.67C899.68 46.83 898.48 45.84 897.49 44.71C896.52 43.57 895.77 42.25 895.26 40.76C894.74 39.27 894.48 37.49 894.48 35.41C894.48 33.33 894.88 31.47 895.7 29.82C896.51 28.16 897.61 26.75 899 25.58C900.4 24.4 901.99 23.51 903.78 22.9C905.56 22.28 907.42 21.96 909.37 21.96H924.86L924.85 21.98Z" fill="#FEBB19"/>
</svg>
