<svg width="936" height="535" viewBox="0 0 936 535" fill="none" xmlns="http://www.w3.org/2000/svg">
<path d="M258.02 109.43C264.22 100.63 268.01 90.99 267.07 80.11C266.14 69.35 263.02 59.08 257.88 49.57C248.3 31.81 233.47 19.89 215.13 12.07C194.32 3.18999 172.29 0.799995 149.99 0.299995C133.04 -0.0800048 116.26 1.75999 99.6499 5.25999C70.2399 11.46 43.7599 23.37 21.9599 44.56C16.5099 49.85 11.22 55.25 7.30002 61.85C-1.84998 77.27 -1.41998 92.9 6.05002 108.78C10.19 117.58 15.2901 125.61 23.6801 130.97C34.0501 137.58 45.58 139.01 57.56 138.12C58.26 138.07 58.9598 138 59.5898 137.34C57.8598 135.69 55.7497 134.34 54.7597 132.04C53.7597 129.72 52.8401 127.38 51.8901 125.04C51.8601 124.96 51.8198 124.88 51.7998 124.8C51.4498 123.24 50.4499 122.68 48.8999 122.32C39.7099 120.18 30.7598 117.41 22.8198 112.03C20.9898 110.79 20.4298 109.37 20.2998 107.3C19.5198 95.43 24.2699 85.51 31.3999 76.6C40.5699 65.15 52.2798 56.63 64.8198 49.29C93.8998 32.28 125.75 25.52 159.06 24.76C174.28 24.42 189.32 26.46 204.11 30.03C217.56 33.28 230.02 38.76 240.53 48C244.49 51.48 247.92 55.49 248.98 60.88C250.61 69.18 248.56 76.62 243.12 83.04C237.87 89.24 231.89 94.74 225.56 99.8C195.88 123.53 163.28 142.17 127.61 155.38C123.54 156.89 119.53 158.54 115.05 158.67C112.76 158.74 112.21 158.47 112.9 156.05C119.51 132.97 125.7 109.79 130.48 86.25C131.64 80.54 133.08 74.81 132.52 68.94C131.47 57.91 125.98 49.17 118.13 41.61C114.92 38.53 111.32 38.94 107.66 39.57C105 40.03 103.88 42.72 105.25 44.6C106.37 46.13 108.36 47.41 106.27 49.61C106.14 49.75 106.45 50.4 106.65 50.75C107.65 52.46 107.34 54.12 106.46 55.72C101.18 65.39 97.2201 75.62 94.1601 86.15C85.1201 117.24 77.6902 148.71 71.9702 180.59C65.8302 214.77 62.2002 249.18 62.4502 283.93C62.5302 294.38 64.4202 304.53 68.9902 314.04C73.8702 324.19 81.5297 331.23 92.2597 334.88C94.1097 335.51 94.7602 335.34 94.4702 333.19C94.0202 329.83 93.9399 326.41 93.4599 323.06C90.5099 302.39 91.3702 281.7 93.2202 261.04C95.1802 239.1 98.8501 217.39 103.37 195.83C103.85 193.52 104.77 192.98 106.92 192.87C118.7 192.31 130.29 190.52 141.54 186.82C168.47 177.97 193.25 164.84 216.52 148.81C232.39 137.87 246.81 125.32 258.01 109.42L258.02 109.43ZM42.8598 53.84C42.9698 53.83 43.0902 53.81 43.2002 53.8L42.8598 53.84ZM221.81 131.25C221.81 131.14 221.81 131.02 221.82 130.91C221.82 131.02 221.82 131.14 221.81 131.25ZM221.7 131.33C221.56 131.36 221.41 131.38 221.27 131.41C221.42 131.38 221.56 131.35 221.7 131.33ZM166.99 156.62C166.99 156.62 166.97 156.62 166.96 156.63C169.66 154.95 172.44 153.44 175.29 152.05C172.45 153.44 169.68 154.94 166.99 156.62ZM189.39 144.83C189.36 144.61 189.39 144.42 189.51 144.3C189.39 144.42 189.36 144.6 189.39 144.83ZM166.5 147.63C166.47 147.68 166.4 147.74 166.42 147.77C166.41 147.74 166.47 147.67 166.5 147.62V147.63Z" fill="#F8B825"/>
<path d="M544.27 167.36C539.38 163.25 534.07 159.71 528.22 157.18C522.49 154.7 516.58 154.06 510.95 157.62C493.86 168.42 478.62 181.27 466.71 197.75C462.74 203.24 458.87 208.81 454.93 214.37C454.11 213.57 454.33 212.72 454.39 211.85C454.62 208.54 455.17 205.28 455.97 202.07C458.98 190.09 462.09 178.14 465.12 166.17C471.97 139.12 478.3 111.93 486.58 85.25C490.88 71.38 495.15 57.47 496.73 42.96C497.22 38.51 498.34 33.55 495.49 29.73C491.42 24.27 486.49 19.48 479 18.94C477.92 18.86 476.87 18.6 476.07 17.94C473.74 16 472.41 17.03 471.38 19.32C471.1 19.95 470.68 20.53 470.42 21.17C462.05 42.16 452.84 62.84 446.49 84.6C441.61 101.32 438.13 118.37 434.46 135.36C428.77 161.7 422.69 187.99 418.94 214.71C415.93 236.14 414.68 257.66 416.52 279.27C417.12 286.29 418.99 292.99 423.52 298.63C428.71 305.07 435.97 307.57 443.76 308.96C448 309.72 448.05 309.69 448.88 305.44C454.12 278.72 463.06 253.31 475.62 229.15C485.87 209.44 497.48 190.85 516.15 177.8C516.76 177.38 517.26 176.34 518.08 176.84C518.96 177.37 518.21 178.25 518.01 178.95C514.04 192.57 510.52 206.29 507.99 220.25C504.92 237.21 502.88 254.31 500.47 271.37C497.73 290.83 496.96 310.33 497.38 329.96C497.69 344.35 511.86 355.41 525 354.33C528.54 354.04 529.07 353.24 528.06 349.62C527 345.84 526.34 341.99 526.2 338.05C525.68 323.21 526.52 308.41 529.1 293.82C533.35 269.85 538.18 245.98 542.74 222.06C545.23 209.01 549.49 196.28 549.55 182.8C549.58 177.01 549.08 171.42 544.23 167.34L544.27 167.36Z" fill="#F8B825"/>
<path d="M333.44 253.11C333.96 252.22 333.37 251.87 332.82 251.42C332.2 250.91 331.81 251.16 331.28 251.64C329.24 253.46 328.76 253.52 325.37 252.8C326.06 252.27 326.67 251.82 327.26 251.33C327.79 250.89 328.42 250.46 328.44 249.71C328.44 249.48 328.02 249.1 327.73 249.04C326.83 248.83 326.56 249.67 326.21 250.2C324.71 252.44 322.87 254.4 321.19 256.49C315.46 263.62 309.93 270.92 303.45 277.4C299.57 281.28 295.72 285.22 290.85 287.91C289.32 288.75 287.42 289.57 285.96 288.26C284.68 287.1 284.96 285.25 285.42 283.58C288.97 270.94 292.19 258.21 295.05 245.39C299.14 227.04 303.72 208.84 311.28 191.54C312.95 187.72 314.89 183.98 315.68 179.84C316.04 177.95 316.95 175.99 315.79 174.04C314.9 174.16 314.42 175.86 313.64 175.06C311.76 173.11 310.67 175.1 309.38 175.74C308.53 174.48 311.09 172.83 308.6 171.89C306.57 171.12 304.65 170.08 302.7 169.12C299.64 167.62 296.68 167.72 293.77 169.54C291.69 170.84 289.83 172.34 288.24 174.26C283.92 179.5 281.18 185.62 278.3 191.67C273.93 200.85 270.62 210.64 264.5 218.85C250.76 237.29 237.18 255.87 221.14 272.45C219.05 274.61 216.89 276.69 214.77 278.8C214.87 274.71 215.45 270.94 215.94 267.16C218.88 244.85 223.45 222.95 231.6 201.86C234.79 193.6 237.43 185.12 240.2 176.69C241.36 173.15 240.31 171.34 237.16 170.11C235.5 169.46 234.47 171.07 232.88 170.91C232.79 169.55 233.85 168.35 233.54 166.92C231.85 167.18 230.34 167.42 228.66 167.69C229.27 165.16 227.95 164.19 225.73 163.9C225.14 163.82 224.58 163.52 224.01 163.3C219.39 161.51 218.49 161.67 215.13 165.34C209.72 171.25 205.74 178.09 202.48 185.34C190.9 211.05 184.15 238 182.15 266.12C181.7 272.48 182.02 278.81 183.07 285.12C184.86 295.88 192.21 301.41 201.71 304.55C210.74 307.53 218.9 306.57 226.15 299.21C236.48 288.72 245.28 277.09 253.7 265.11C254.27 264.3 254.88 263.54 255.81 262.3C255.81 264.37 255.85 265.83 255.81 267.29C255.56 275.03 254.97 282.77 255.15 290.53C255.3 296.68 257.09 302.18 261.43 306.67C269.53 315.03 283.91 315.66 294 308.16C299.57 304.02 304.27 299.01 308.43 293.5C317.27 281.79 324.16 268.86 331.76 256.37C332.39 255.33 332.8 254.16 333.41 253.11H333.44Z" fill="#F8B825"/>
<path d="M391.19 217.82C395.89 211.44 401.58 206.13 408.24 201.82C412.19 199.27 415.87 196.33 419.76 192.83C416.94 191.37 414.43 190.03 411.89 188.75C402.46 184.02 393.63 185.46 385.5 191.71C381.85 194.52 378.63 197.87 375.18 200.93C373.4 202.51 371.56 204.02 369.37 205.88C369.25 197.5 370.19 189.99 373.63 182.94C376.61 176.84 379.47 170.71 383.86 165.4C387.6 160.87 392.04 159.5 397.58 161.3C398.9 161.73 400.31 161.92 401.6 162.4C403.59 163.14 404.49 161.71 405.49 160.57C406.51 159.4 405.22 158.64 404.7 157.91C398.21 148.79 388.93 143.93 378.43 141.07C371.08 139.07 364.42 140.72 358.61 145.54C343.43 158.16 329.75 186.57 341.74 213.06C344.32 218.76 346.58 224.61 349.17 230.3C350.05 232.24 349.99 233.73 348.99 235.63C340.5 251.81 332.46 268.21 326.1 285.37C321.9 296.71 317.88 308.1 316.74 320.29C316.01 328.13 317.38 335.16 322.96 341.06C327.3 345.65 332.38 349.07 338.44 350.88C355.54 355.97 370.85 351.92 384.55 341.21C395.11 332.95 401.69 322.17 402.15 308.49C402.55 296.41 400.97 284.49 396.77 273.08C392.1 260.42 386.18 248.3 380.12 236.25C379.4 234.83 379.33 233.83 380.33 232.52C384.01 227.66 387.57 222.71 391.19 217.81V217.82ZM359.33 254.13C359.69 255.03 359.3 255.76 358.91 256.47C359.3 255.76 359.68 255.03 359.33 254.13ZM365.41 178.63C368.07 174.02 370.07 169.06 372.41 164.28C370.06 169.06 368.07 174.02 365.41 178.63ZM358.8 171.6C358.8 171.6 358.74 171.62 358.72 171.63C358.74 171.61 358.78 171.61 358.81 171.6H358.8ZM340.15 268.12C340.37 266.01 341.57 264.3 342.47 262.47C341.57 264.3 340.38 266.01 340.15 268.11V268.12ZM340.02 268.33C339.84 268.33 339.62 268.32 339.83 268.64C339.62 268.32 339.83 268.34 340.02 268.33ZM353.68 331.13C351.52 332.82 349.29 334.5 346.44 335.12C344.98 335.44 344.48 334.99 343.97 333.76C341.95 328.88 342.71 323.94 343.86 319.13C348.21 300.89 355.07 283.52 362.64 266.42C362.91 265.81 363.12 265.02 364.01 265.05C364.75 265.07 364.64 265.76 364.74 266.22C366.82 275.9 369.64 285.45 369.6 295.52C369.03 309.49 365.25 322.07 353.69 331.14L353.68 331.13Z" fill="#F8B825"/>
<path d="M934.6 191.87C932.93 191.14 931.29 190.3 929.73 189.35C919.06 182.88 906.45 186.72 899.96 193.52C898.4 195.16 896.66 196.63 894.96 198.12C892.12 200.62 889.24 203.08 885.99 205.89C885.68 201.82 886.05 198.37 886.58 194.99C888.27 184.33 893.53 175.23 899.56 166.52C900.3 165.46 901.3 164.57 902.2 163.63C904.91 160.77 908.27 160.03 912.02 160.8C913.89 161.18 915.78 161.6 917.56 162.26C919.61 163.03 920.9 162.15 921.99 160.66C923.13 159.11 921.54 158.22 920.87 157.33C913.9 148.14 904.31 143.15 893.29 140.73C885.91 139.11 879.57 141.61 874.05 146.5C871.7 148.58 869.48 150.82 867.63 153.36C853.79 172.36 849.13 192.62 859.13 214.92C861.44 220.08 863.53 225.33 865.85 230.48C866.68 232.31 866.56 233.77 865.62 235.57C857.51 251.07 849.75 266.74 843.57 283.12C838.78 295.82 834.06 308.54 833.22 322.31C832.79 329.35 834.49 335.55 839.33 340.82C843.36 345.21 848.08 348.56 853.73 350.44C870.78 356.13 886.26 352.42 900.26 341.91C910.8 334 917.76 323.6 918.61 310.13C919.42 297.34 917.68 284.74 913.21 272.66C908.58 260.17 902.76 248.19 896.73 236.32C895.95 234.79 895.97 233.77 897.03 232.39C899.94 228.59 902.68 224.66 905.47 220.77C911.06 212.98 917.66 206.27 925.81 201.09C928.96 199.09 931.76 196.54 934.76 194.3C936.07 193.32 936.4 192.65 934.6 191.86V191.87ZM871.67 161.61C871.8 161.57 871.93 161.53 872.06 161.49C871.93 161.53 871.8 161.57 871.66 161.61H871.67ZM865.96 333.98C865.81 334.07 865.67 334.17 865.52 334.26C862.15 336.14 861.1 335.73 860.06 332.07C859.85 331.32 859.67 330.55 859.58 329.78C859.46 328.66 859.44 327.53 859.39 326.8C859.94 318.41 862.41 310.88 864.88 303.37C868.95 290.98 873.56 278.79 879.01 266.93C879.35 266.18 879.47 264.96 880.54 265.08C881.59 265.19 881.4 266.41 881.56 267.19C883.44 276.02 886.06 284.76 886.08 293.87C886.11 310.56 881.16 324.87 865.95 333.97L865.96 333.98Z" fill="#F8B825"/>
<path d="M821.36 254.29C821.36 254.29 821.42 254.22 821.46 254.19C821.46 254.15 821.48 254.12 821.49 254.09C821.45 254.09 821.47 254.16 821.42 254.15C821.42 254.2 821.38 254.24 821.37 254.3L821.36 254.29Z" fill="#F8B825"/>
<path d="M811.66 268.66C809.94 270.23 810.01 272.99 808.92 274.98C805.94 280.44 802.64 285.72 799.43 291.05C799.09 291.62 798.54 292.23 797.94 292.46C794.27 293.84 793.19 296.8 792.95 300.32C792.84 302.01 789.63 305.56 788.15 305.63C787.95 305.47 787.75 305.32 787.55 305.16C788.02 304.05 788.49 302.94 788.96 301.84L788.57 301.63C785.5 305.11 782.44 308.58 779.37 312.06C779.2 311.89 779.04 311.71 778.87 311.54C782.39 304.48 787.17 298.29 792.07 292.17C797.07 285.92 801.97 279.61 805.78 272.52C806.03 272.43 806.18 272.3 806.04 272.02C805.87 272.12 805.71 272.21 805.54 272.31C804.17 273.02 803.3 274.26 802.55 275.51C800.25 279.33 797.43 282.76 794.65 286.22C790.02 291.98 785.83 298.11 780.43 303.23C780.26 303.04 780.09 302.85 779.92 302.66C782.32 297.33 786.55 293.36 790.1 288.87C791.73 286.81 793.55 284.86 794.54 282.32C791.67 284.29 789.66 287.08 787.44 289.66C785.47 291.96 783.54 294.31 780.62 295.51L780.46 295.32C780.26 293.65 780.56 292.03 780.86 290.41C782.83 279.79 786.02 269.49 789.24 259.21C794.12 243.62 799.58 228.22 805.14 212.87C805.97 210.58 806.77 208.27 806.74 205.79C806.72 203.73 805.5 202.51 803.69 202.06C801.94 201.63 801.93 203.45 801.51 204.39C798.74 210.57 796.08 216.8 793.39 223.01C793.2 222.85 793.01 222.69 792.82 222.53C795.06 216.04 797.32 209.55 799.52 203.05C799.8 202.22 800.62 201.31 799.81 200.41C798.97 199.48 797.92 200.12 796.96 200.36C796.63 196.62 795.87 196.15 792.21 197.33C791.883 194.983 790.653 194.427 788.52 195.66C785.52 197.4 783.06 199.7 781.44 202.8C779.15 207.18 776.02 210.89 772.36 214.18C759 226.16 745.65 238.15 732.24 250.07C730 252.06 727.47 253.72 725.06 255.54C724.14 254.25 724.92 253.53 725.25 252.8C726.96 248.99 728.75 245.22 730.48 241.42C736.05 229.2 742.13 217.27 750.62 206.75C758 197.61 766.01 189.22 776.94 184.14C780.49 182.49 783.84 181.57 787.63 183.21C789.29 183.93 791.13 184.26 792.9 184.68C793.68 184.87 794.57 185.71 795.29 184.8C796.02 183.9 796.19 182.78 795.85 181.59C795.5 180.34 794.66 179.48 793.76 178.66C790.46 175.67 786.92 173 783.15 170.63C775.91 166.08 768.08 164.84 759.83 166.69C748.91 169.14 739.68 174.93 731.61 182.38C719.25 193.79 710.14 207.72 702.32 222.49C696.36 233.75 691.58 245.48 689.78 258.25C688.75 265.52 690.46 271.66 696.07 276.63C699.72 279.85 703.8 282.26 708.38 283.82C715.43 286.23 722.08 285.43 728.34 281.32C731.7 279.11 734.9 276.69 737.67 273.77C744.2 266.88 750.64 259.91 757.2 253.04C760.17 249.93 763.33 247.01 766.51 243.91C766.47 244.46 766.48 244.9 766.4 245.32C764.41 255.47 762.36 265.61 760.41 275.77C758.08 287.94 756.86 300.22 757.08 312.63C757.18 317.94 758.9 322.14 764.44 323.97C766.91 324.79 769.3 325.86 771.69 326.91C772.89 327.44 773.72 327.28 774.72 326.39C777.25 324.12 779.73 321.78 781.94 319.2C796.32 302.43 807.71 283.74 817.34 263.94C818.86 260.81 820.7 257.79 821.37 254.3C817.94 256.87 817.41 261.35 814.7 264.42C813.56 265.71 813.07 267.4 811.67 268.68L811.66 268.66ZM716.53 228.6C716.58 228.66 716.67 228.73 716.67 228.8C716.67 228.74 716.58 228.67 716.53 228.6ZM726.27 213.34C726.3 213.14 726.32 212.93 726.34 212.72C726.32 212.92 726.29 213.13 726.27 213.33V213.34ZM726.19 213.44C725.86 213.38 725.76 213.59 725.7 213.86C725.75 213.59 725.86 213.38 726.19 213.44ZM725.64 213.99C725.66 214.33 725.65 214.66 725.52 214.91C725.65 214.66 725.66 214.34 725.64 214V213.99ZM707.94 230C707.98 229.62 707.96 229.21 708.12 228.9C707.96 229.22 707.98 229.63 707.94 230Z" fill="#F8B825"/>
<path d="M815.58 136.91C815.59 139.24 816.64 140.53 818.93 140.72C826.6 141.38 832.77 138.81 837.02 132.22C838.78 129.49 839.95 126.51 840.8 123.39C843.9 112.07 843.51 100.48 842.99 88.92C842.99 82.14 843.1 75.36 842.94 68.58C842.87 65.3 841.58 64.09 838.5 63.45C830.36 61.77 820.65 66.93 817.49 74.62C816.99 75.84 816.71 77.1 816.79 78.43C817.05 82.68 817.29 86.94 817.53 91.19C818.11 101.52 818.66 111.83 817.39 122.17C816.79 127.08 815.54 131.91 815.56 136.9L815.58 136.91Z" fill="#F8B825"/>
<path d="M821.63 253.54C821.58 253.72 821.53 253.9 821.48 254.09C821.68 254.09 821.84 254.02 821.84 253.81C821.84 253.72 821.7 253.64 821.62 253.55L821.63 253.54Z" fill="#F8B825"/>
<path d="M789.24 301.18C789.29 301.13 789.35 301.09 789.4 301.04C789.36 300.98 789.32 300.92 789.28 300.86C789.23 300.91 789.14 300.95 789.13 301C789.13 301.05 789.2 301.12 789.24 301.18Z" fill="#F8B825"/>
<path d="M696.39 153.18C688.14 142.87 674.65 138.06 663.65 142.44C648.36 148.45 635.12 157.73 624.21 170.02C616.91 178.18 610.98 187.38 605.48 196.74C605.14 197.34 605.05 198.12 604.02 198.12C602.73 195.03 602.13 191.68 602.13 188.32C602.13 185.14 601.7 181.96 600.41 179.13C595.51 168.3 587.09 161.26 576.18 157.13C574.38 156.44 572.4 156.27 570.51 156.61C566.13 157.3 564.75 159.96 566.9 163.83C567.33 164.52 567.76 165.2 568.36 165.72C570.51 167.61 571.37 170.1 571.45 172.94C571.62 177.58 571.54 182.31 571.02 187.03C569.56 200.86 566.55 214.44 564.75 228.27C562.6 245.54 560.11 262.73 557.7 280C555.55 295.9 553.32 311.71 551.17 327.6C550.4 333.27 549.45 339.03 548.59 344.7V344.79C547.64 353.73 546.96 362.75 546.61 371.86C546.27 379.94 546.18 388.1 546.35 396.09C546.69 411.38 561.82 423.16 575.82 421.95C579.69 421.69 580.29 420.92 579.17 416.97C578.83 415.74 578.6 414.5 578.33 413.26C578 412.17 578.06 410.82 577.69 409.95C577.42 408.21 577.19 406.47 577.12 404.68C577.12 403.65 577.03 402.53 577.03 401.5L578.15 373.57V373.48C578.67 368.15 579.35 362.74 580.3 357.41C580.99 353.37 581.76 349.25 582.45 345.21C585.54 324.76 589.15 304.31 592.76 283.86C593.19 281.54 594.22 280.77 596.37 281.63C598.43 282.49 600.32 282.15 602.3 281.72C611.67 279.49 620.6 276.39 628.85 271.24C648.7 258.87 664.68 242.45 678.17 223.64C688.31 209.55 696.73 194.6 701.28 177.67C703.77 168.65 702.31 160.57 696.38 153.18H696.39ZM626.19 188.76H626.21C626.21 188.76 626.21 188.8 626.21 188.82C626.21 188.81 626.23 188.79 626.24 188.78V188.76H626.23L626.24 188.78C626.24 188.78 626.26 188.77 626.27 188.76C626.27 188.76 626.24 188.8 626.21 188.82C626.21 188.82 626.21 188.82 626.21 188.83C626.2 188.83 626.21 188.85 626.19 188.85V188.76ZM607.72 261.28C605.31 262.74 602.74 264.03 600.16 265.4C599.99 265.49 599.73 265.49 599.21 265.57C600.07 261.7 601.44 258.18 602.82 254.66C609.09 238.51 615.54 222.44 622.75 206.71C631.69 186.95 645.43 171.14 663.48 159.11C668.46 155.84 673.88 153.61 679.63 152.06C681.86 151.46 682.9 152.23 683.75 153.95C685.73 157.73 684.95 161.68 683.92 165.46C680.91 177.58 675.76 188.92 668.97 199.4C652.99 224.32 633.23 245.63 607.71 261.27L607.72 261.28ZM669.99 223.95C669.99 223.95 670.01 223.98 669.99 223.98C669.99 223.98 669.97 223.95 669.99 223.95ZM670.08 224.12C670.11 224.03 670.14 223.94 670.17 223.85C670.14 223.87 670.11 223.89 670.06 223.9C670.11 223.88 670.17 223.87 670.18 223.82V223.85C670.17 223.94 670.1 224.08 670.1 224.16C670.06 224.14 670.1 224.14 670.08 224.12ZM670.23 223.8C670.23 223.8 670.24 223.77 670.24 223.75C670.29 223.62 670.41 223.57 670.5 223.49C670.53 223.43 670.63 223.44 670.64 223.36C670.64 223.36 670.64 223.36 670.63 223.36C670.66 223.36 670.65 223.3 670.69 223.3C670.69 223.3 670.69 223.3 670.69 223.32C670.69 223.35 670.65 223.34 670.64 223.36C670.66 223.36 670.66 223.36 670.68 223.36C670.67 223.64 670.57 223.79 670.22 223.81L670.23 223.8Z" fill="#F8B825"/>
<path d="M204.1 460.31C203.36 460.81 202.28 461.7 200.85 463.01C199.42 464.32 197.85 465.86 196.13 467.6C194.42 469.36 192.59 471.26 190.68 473.3C188.76 475.34 186.9 477.31 185.1 479.18L176.77 488.01C179.87 492.59 182.88 497.18 185.78 501.79C188.68 506.41 192.05 510.84 195.89 515.1C197.52 516.98 199.14 518.64 200.73 520.06C202.32 521.48 204.02 522.71 205.82 523.73C207.62 524.75 209.54 525.62 211.58 526.31C213.62 527 215.95 527.55 218.57 527.97L219.3 528.46L219.55 533.12L219.3 533.85H204.1C201.97 533.85 200.01 533.59 198.22 533.07C196.42 532.54 194.68 531.67 193.01 530.45C191.33 529.23 189.64 527.61 187.93 525.58C186.21 523.55 184.33 521.08 182.29 518.15C181.8 517.42 180.96 516.14 179.78 514.32C178.6 512.49 177.31 510.48 175.92 508.29C174.53 506.1 173.14 503.89 171.75 501.65C170.36 499.42 169.13 497.49 168.07 495.87C167.09 496.77 166.11 497.65 165.13 498.5C164.15 499.35 163.21 500.24 162.31 501.13V510.02C162.31 511.86 162.33 513.34 162.37 514.44C162.41 515.54 162.45 516.44 162.49 517.13C162.53 517.83 162.59 518.7 162.67 519.77C162.83 522.17 163.2 523.83 163.78 524.74C164.35 525.65 164.96 526.36 165.62 526.86C166.36 527.52 167.31 527.85 168.5 527.85H172.24L172.73 528.36L173.1 533.13L172.86 533.25H138.17L137.93 533.13L138.3 528.47L138.91 527.98C140.22 527.98 141.44 527.92 142.59 527.8C143.73 527.67 144.67 527.33 145.41 526.75C146.06 526.18 146.7 525.45 147.31 524.55C147.92 523.65 148.31 522.05 148.47 519.77C148.47 519.2 148.49 518.52 148.53 517.74C148.57 516.96 148.61 516.01 148.65 514.86C148.69 513.72 148.71 512.33 148.71 510.7V472.33C148.71 470.94 148.69 469.75 148.65 468.78C148.6 467.79 148.54 466.82 148.47 465.83C148.3 463.63 147.92 462.04 147.31 461.05C146.7 460.07 146.06 459.34 145.41 458.85C144.67 458.2 143.73 457.83 142.59 457.74C141.44 457.66 140.22 457.61 138.91 457.61L138.3 457.12L137.93 452.46L138.17 452.34H172.86L173.1 452.46L172.73 457.12L172.24 457.61C171.09 457.61 169.89 457.67 168.62 457.79C167.35 457.92 166.35 458.27 165.62 458.84C164.97 459.41 164.33 460.15 163.72 461.04C163.11 461.94 162.76 463.54 162.68 465.82C162.6 466.81 162.54 467.76 162.5 468.7C162.46 469.64 162.42 470.74 162.38 472.02C162.34 473.28 162.32 474.75 162.32 476.43V488.38C163.95 487.56 165.83 486.32 167.96 484.64C170.08 482.96 172.21 481.14 174.33 479.18C175.88 477.72 177.47 476.1 179.11 474.35C180.74 472.59 182.24 470.9 183.58 469.26C184.93 467.63 186.01 466.16 186.83 464.85C187.64 463.54 188.05 462.64 188.05 462.15C188.05 461.25 187.87 460.54 187.5 460C187.13 459.46 186.64 459.04 186.03 458.71C185.42 458.39 184.7 458.14 183.88 457.97C183.06 457.81 182.25 457.65 181.43 457.48L180.82 456.99V452.33L181.43 451.84C183.06 452.25 184.8 452.45 186.64 452.45H205.64C206.33 452.45 207.03 452.42 207.72 452.35C208.42 452.29 209.17 452.22 209.99 452.15C210.8 452.09 211.79 451.98 212.93 451.85L213.42 452.34V457L212.93 457.49C211.78 457.66 210.33 457.98 208.58 458.48C206.82 458.97 205.33 459.58 204.1 460.31Z" fill="#383530"/>
<path d="M279.49 452.47L279.12 457.13L278.63 457.62C277.32 457.62 276.09 457.68 274.95 457.8C273.8 457.93 272.82 458.28 272.01 458.85C271.27 459.42 270.6 460.16 269.99 461.05C269.38 461.95 269.07 463.55 269.07 465.83C268.99 466.98 268.93 468.04 268.89 469.02C268.85 470.01 268.81 471.15 268.77 472.45C268.73 473.76 268.71 475.35 268.71 477.23V509.28C268.71 511.12 268.73 512.66 268.77 513.88C268.81 515.1 268.85 516.15 268.89 517C268.93 517.85 268.99 518.78 269.07 519.76C269.23 522.04 269.6 523.64 270.18 524.54C270.75 525.44 271.36 526.17 272.02 526.74C272.76 527.32 273.71 527.66 274.9 527.79C276.08 527.91 277.33 527.97 278.64 527.97L279.13 528.46L279.5 533.12L279.26 533.24H244.57L244.33 533.12L244.7 528.46L245.31 527.97C246.62 527.97 247.86 527.91 249.05 527.79C250.23 527.66 251.15 527.32 251.81 526.74C252.46 526.17 253.05 525.44 253.59 524.54C254.12 523.64 254.55 522.04 254.88 519.76C254.88 519.19 254.9 518.51 254.94 517.73C254.98 516.96 255.02 516 255.06 514.85C255.1 513.71 255.12 512.32 255.12 510.69V477.35C255.12 475.39 255.1 473.71 255.06 472.32C255.01 470.93 254.98 469.74 254.94 468.77C254.9 467.78 254.83 466.81 254.76 465.82C254.59 463.7 254.23 462.15 253.65 461.16C253.08 460.18 252.47 459.41 251.81 458.84C251.07 458.27 250.13 457.92 248.99 457.79C247.84 457.67 246.62 457.61 245.31 457.61L244.7 457.12L244.33 452.46L244.57 452.34H279.26L279.5 452.46L279.49 452.47Z" fill="#383530"/>
<path d="M360.64 533.13H322.39L322.15 533L322.52 528.23L323.13 527.73H327.48C329.16 527.73 330.36 527.41 331.09 526.74C331.74 526.17 332.4 525.43 333.05 524.54C333.7 523.64 334.16 522.04 334.4 519.75C334.48 519.18 334.54 518.51 334.58 517.72C334.62 516.95 334.66 515.98 334.7 514.84C334.74 513.7 334.76 512.3 334.76 510.67V482.08C334.76 477.59 334.72 473.57 334.64 470.05C334.56 466.54 334.47 463.92 334.39 462.2H325.32C323.28 462.2 321.64 462.26 320.42 462.38C319.2 462.5 318.27 462.65 317.66 462.8C317.05 462.97 316.62 463.17 316.38 463.42C315.48 463.83 314.74 464.48 314.17 465.38C313.6 466.28 313.23 467.35 313.07 468.58L312.58 469.07H307.31L308.17 452.63L308.66 451.52L309.4 451.16C310.05 451.45 311.49 451.71 313.69 451.95C315.9 452.2 318.3 452.32 320.92 452.32H361.86C364.48 452.32 366.89 452.2 369.09 451.95C371.3 451.71 372.72 451.44 373.38 451.16L374.11 451.52L374.6 452.63L375.58 469.07H370.18L369.69 468.57C369.52 467.32 369.16 466.24 368.58 465.32C368.01 464.4 367.27 463.74 366.37 463.32C366.13 462.99 365.7 462.71 365.09 462.51C364.47 462.3 363.56 462.2 362.33 462.2H348.48C348.4 464.15 348.34 466.77 348.3 470.04C348.26 473.3 348.24 477.26 348.24 481.92V509.16C348.24 511 348.26 512.53 348.3 513.75C348.34 514.97 348.38 516.02 348.42 516.87C348.46 517.73 348.52 518.65 348.6 519.62C348.76 522 349.21 523.63 349.95 524.53C350.68 525.43 351.38 526.12 352.03 526.61C352.36 526.94 352.83 527.18 353.44 527.35C354.05 527.52 354.73 527.64 355.47 527.72C356.2 527.8 356.96 527.84 357.74 527.84H359.89L360.5 528.33L360.87 532.99L360.63 533.12L360.64 533.13Z" fill="#383530"/>
<path d="M464.34 470.74C464.1 468.94 463.32 467.41 462.01 466.15C460.7 464.88 459.09 463.88 457.17 463.14C455.25 462.41 453.13 461.88 450.8 461.55C448.47 461.23 446.16 461.06 443.88 461.06C436.61 461.06 430.97 462.9 426.96 466.58C423.85 469.36 421.61 473.06 420.21 477.68C418.82 482.29 418.13 487.3 418.13 492.7C418.13 498.1 418.84 502.38 420.28 506.3C421.71 510.22 423.67 513.52 426.16 516.17C428.66 518.82 431.62 520.83 435.05 522.17C438.48 523.52 442.24 524.2 446.33 524.2C449.84 524.2 453.91 523.81 458.53 523.03C463.15 522.26 467.5 520.76 471.59 518.55L473.06 521.25L470.12 526.65C465.87 529.27 461.6 531.19 457.31 532.41C453.02 533.63 448.63 534.24 444.13 534.24C438 534.24 432.44 533.26 427.46 531.31C422.47 529.35 418.21 526.55 414.65 522.92C411.1 519.29 408.34 514.96 406.38 509.95C404.42 504.93 403.44 499.36 403.44 493.25C403.44 487.53 404.31 482.13 406.07 477.02C407.83 471.93 410.44 467.5 413.92 463.74C417.39 459.98 421.68 457.01 426.79 454.81C431.9 452.61 437.84 451.5 444.62 451.5H450.38C452.59 451.5 454.92 451.68 457.36 452.06C459.81 452.43 462.28 452.96 464.78 453.67C467.27 454.37 469.66 455.26 471.95 456.33L472.31 457.45L470.72 471.23H464.72L464.35 470.74H464.34Z" fill="#383530"/>
<path d="M588.27 533.25H553.58L553.34 533.13L553.71 528.47L554.2 527.98C555.51 527.98 556.73 527.92 557.88 527.8C559.02 527.67 560 527.33 560.82 526.75C561.56 526.18 562.13 525.45 562.54 524.55C562.95 523.65 563.35 522.05 563.76 519.77C563.84 519.2 563.9 518.52 563.94 517.74C563.98 516.96 564.02 516.01 564.06 514.86C564.1 513.72 564.12 512.33 564.12 510.7V494.76H527.83V509.28C527.83 511.12 527.85 512.66 527.89 513.88C527.93 515.1 527.97 516.15 528.01 517C528.05 517.85 528.11 518.78 528.19 519.76C528.35 522.04 528.72 523.64 529.3 524.54C529.87 525.44 530.48 526.17 531.14 526.74C531.88 527.32 532.83 527.66 534.02 527.79C535.2 527.91 536.45 527.97 537.76 527.97L538.25 528.46L538.62 533.12L538.38 533.24H503.69L503.45 533.12L503.82 528.46L504.43 527.97C505.74 527.97 506.96 527.91 508.11 527.79C509.25 527.66 510.19 527.32 510.93 526.74C511.58 526.17 512.22 525.44 512.83 524.54C513.44 523.64 513.83 522.04 513.99 519.76C513.99 519.19 514.01 518.51 514.05 517.73C514.09 516.96 514.13 516 514.17 514.85C514.21 513.71 514.23 512.32 514.23 510.69V477.35C514.23 475.39 514.21 473.71 514.17 472.32C514.12 470.93 514.09 469.74 514.05 468.77C514.01 467.78 513.94 466.81 513.87 465.82C513.7 463.7 513.34 462.15 512.76 461.16C512.19 460.18 511.58 459.41 510.92 458.84C510.18 458.27 509.24 457.92 508.1 457.79C506.95 457.67 505.73 457.61 504.42 457.61L503.81 457.12L503.44 452.46L503.68 452.34H538.37L538.61 452.46L538.24 457.12L537.75 457.61C536.6 457.61 535.4 457.67 534.13 457.79C532.86 457.92 531.86 458.27 531.13 458.84C530.48 459.41 529.84 460.15 529.23 461.04C528.62 461.94 528.27 463.54 528.19 465.82C528.11 466.97 528.05 468.03 528.01 469.01C527.97 470 527.93 471.14 527.89 472.44C527.85 473.74 527.83 475.34 527.83 477.22V485.68H564.12V477.35C564.12 475.39 564.1 473.71 564.06 472.32C564.01 470.93 563.98 469.74 563.94 468.77C563.9 467.78 563.83 466.81 563.76 465.82C563.59 463.54 563.23 461.94 562.65 461.04C562.08 460.15 561.47 459.41 560.81 458.84C560.07 458.27 559.11 457.92 557.93 457.79C556.75 457.67 555.5 457.61 554.19 457.61L553.7 457.12L553.33 452.46L553.57 452.34H588.26L588.5 452.46L588.13 457.12L587.52 457.61C586.21 457.61 584.96 457.67 583.78 457.79C582.59 457.92 581.68 458.27 581.02 458.84C580.36 459.41 579.77 460.15 579.24 461.04C578.71 461.94 578.28 463.54 577.95 465.82C577.87 466.97 577.81 468.03 577.77 469.01C577.73 470 577.71 471.14 577.71 472.44V513.88C577.71 515.1 577.73 516.15 577.77 517C577.81 517.85 577.87 518.78 577.95 519.76C578.12 522.04 578.5 523.64 579.11 524.54C579.72 525.44 580.36 526.17 581.01 526.74C581.75 527.32 582.69 527.66 583.83 527.79C584.98 527.91 586.2 527.97 587.51 527.97L588.12 528.46L588.49 533.12L588.25 533.24L588.27 533.25Z" fill="#383530"/>
<path d="M654.71 452.35H676.53L677.26 453.46L676.65 469.27H671.13L670.64 468.77C670.47 467.19 670.25 465.94 669.96 465.02C669.67 464.11 668.92 463.45 667.69 463.02C666.47 462.61 664.56 462.4 661.99 462.4H644.28L644.16 463.49C644.08 464.62 644.02 465.67 643.98 466.65C643.94 467.62 643.9 468.75 643.86 470.05C643.82 471.34 643.8 472.92 643.8 474.77V486.06H654.46C656.01 486.06 657.34 485.96 658.45 485.75C659.55 485.54 660.35 485.18 660.84 484.68C661.65 483.84 662.06 482.66 662.06 481.15L662.67 480.41H667.21L667.7 480.54C667.53 482.42 667.39 484.05 667.27 485.44C667.15 486.83 667.09 488.42 667.09 490.22C667.09 492.19 667.15 494 667.27 495.68C667.39 497.36 667.53 499.17 667.7 501.13L667.21 501.26H662.56L662.07 500.77C662.07 498.68 661.7 497.14 660.96 496.14C660.31 495.22 658.45 494.76 655.38 494.76H643.8V504.64C643.8 506.97 643.82 508.89 643.86 510.42C643.9 511.95 643.94 513.26 643.98 514.33C644.02 515.42 644.08 516.44 644.16 517.41C644.24 518.38 644.32 519.5 644.4 520.78C644.48 522.31 645.3 523.07 646.85 523.07H663.34C665.99 523.07 668.02 522.76 669.41 522.12C670.8 521.49 671.8 520.59 672.41 519.41C673.02 518.23 673.57 516.64 674.06 514.62L674.55 514.11H680.31L677.98 532.02L677 533.24H619.63L619.39 533.12L619.76 528.46L620.37 527.97C621.68 527.97 622.9 527.91 624.05 527.79C625.19 527.66 626.13 527.32 626.87 526.74C627.52 526.17 628.16 525.44 628.77 524.54C629.38 523.64 629.77 522.04 629.93 519.76C629.93 519.19 629.95 518.51 629.99 517.73C630.03 516.95 630.07 516 630.11 514.85C630.15 513.71 630.17 512.32 630.17 510.69V472.32C630.17 470.93 630.15 469.74 630.11 468.77C630.06 467.78 630 466.81 629.93 465.82C629.76 463.62 629.38 462.03 628.77 461.04C628.16 460.06 627.52 459.33 626.87 458.84C626.13 458.19 625.19 457.82 624.05 457.73C622.9 457.65 621.68 457.6 620.37 457.6L619.76 457.11L619.39 452.45L619.63 452.33H654.69L654.71 452.35Z" fill="#383530"/>
<path d="M798.37 452.37L798.13 457.07L797.52 457.55C796.29 457.55 795.08 457.61 793.9 457.73C792.72 457.85 791.75 458.2 791.02 458.77C790.37 459.34 789.69 460.08 789 460.98C788.3 461.87 787.84 463.47 787.59 465.76C787.51 466.9 787.45 467.96 787.41 468.95C787.37 469.93 787.33 471.07 787.29 472.38C787.25 473.69 787.23 475.28 787.23 477.16V503.51C787.23 508.08 787.25 511.83 787.29 514.78C787.33 517.72 787.37 520.23 787.41 522.31C787.45 524.39 787.53 526.25 787.65 527.88C787.77 529.52 787.92 531.31 788.08 533.28L787.1 533.63H772.03L770.8 532.06L732.93 474.67C733.09 476.14 733.19 478.49 733.23 481.71C733.27 484.94 733.29 488.68 733.29 492.93V505.87C733.29 507.46 733.31 509.11 733.35 510.83C733.39 512.54 733.43 514.2 733.47 515.79C733.51 517.38 733.58 518.67 733.65 519.65C733.82 521.69 734.27 523.25 735 524.31C735.74 525.38 736.51 526.15 737.33 526.64C737.98 527.29 738.84 527.66 739.9 527.75C740.96 527.83 742.31 527.87 743.95 527.87L744.56 528.36L744.93 533.02L744.69 533.15H710.98L710.74 533.02L711.11 528.36L711.72 527.87C713.19 527.87 714.44 527.81 715.46 527.69C716.48 527.57 717.4 527.22 718.22 526.65C718.79 526.24 719.49 525.57 720.3 524.63C721.12 523.69 721.65 522.03 721.89 519.67C721.97 519.1 722.03 518.43 722.07 517.65C722.11 516.87 722.13 515.91 722.13 514.77V472.26C722.13 470.88 722.11 469.69 722.07 468.71C722.03 467.72 721.97 466.75 721.89 465.76C721.73 464.05 721.26 462.58 720.48 461.36C719.7 460.13 718.95 459.27 718.21 458.78C717.47 458.13 716.55 457.76 715.45 457.67C714.34 457.6 713.1 457.55 711.71 457.55L711.1 457.05L710.73 452.37L710.97 451.91C711.54 451.91 712.38 451.96 713.48 452.03C714.58 452.1 715.7 452.18 716.85 452.25C717.99 452.32 719.12 452.4 720.22 452.48C721.33 452.55 722.16 452.59 722.73 452.59H733.15C733.8 452.59 734.62 452.55 735.6 452.48C736.58 452.41 737.44 452.3 738.17 452.14L738.79 452.52C739.03 453.66 739.65 455.25 740.63 457.24C741.61 459.25 742.82 461.5 744.24 464.01C745.67 466.51 747.21 469.13 748.84 471.87C750.47 474.61 752.1 477.34 753.74 480.05C756.68 484.97 759.3 489.25 761.59 492.9C763.87 496.55 765.92 499.72 767.72 502.43C769.52 505.13 771.07 507.4 772.38 509.24C773.68 511.09 774.79 512.63 775.69 513.85C775.69 511.71 775.71 509.62 775.75 507.57C775.79 505.52 775.81 503.42 775.81 501.28V477.26C775.81 475.29 775.79 473.6 775.75 472.2C775.71 470.81 775.67 469.61 775.63 468.63C775.59 467.64 775.53 466.66 775.45 465.67C775.28 464.28 774.94 462.98 774.41 461.79C773.88 460.59 773.04 459.55 771.9 458.65C771.16 457.99 770.21 457.66 769.02 457.66H765.28L764.79 457.16L764.42 452.36L764.66 451.9C765.23 451.9 766.05 451.95 767.11 452.02C768.17 452.09 769.26 452.17 770.36 452.24C771.47 452.31 772.55 452.39 773.61 452.47C774.67 452.54 775.49 452.58 776.06 452.58H789.18C790.24 452.58 791.34 452.53 792.49 452.44C793.63 452.35 794.74 452.27 795.8 452.17C796.86 452.08 797.68 451.99 798.25 451.89L798.37 452.35V452.37Z" fill="#383530"/>
</svg>
