<svg width="887" height="545" viewBox="0 0 887 545" fill="none" xmlns="http://www.w3.org/2000/svg">
<path d="M16.23 542.08C11.51 540.76 7.6399 538.86 4.6499 536.36C1.6599 533.86 0.159912 530.98 0.159912 527.72V511.78H3.96997C5.32997 521.04 8.19005 527.72 12.55 531.8C16.91 535.89 22.99 537.94 30.8 537.94C36.07 537.94 40.2501 536.8 43.3301 534.53C46.4201 532.26 47.97 528.99 47.97 524.72C47.97 521.09 46.8201 518 44.5601 515.46C42.2901 512.92 38.7499 510.15 33.9399 507.15L17.1899 497.07C11.1099 493.53 6.76994 489.86 4.18994 486.04C1.59994 482.23 0.310059 477.78 0.310059 472.69C0.310059 465.52 3.05005 459.85 8.55005 455.67C14.03 451.5 21.4601 449.41 30.8101 449.41C35.8901 449.41 40.81 450.06 45.53 451.38C50.24 452.7 54.1001 454.6 57.1001 457.1C60.1001 459.6 61.6001 462.48 61.6001 465.75V481.68H57.78C56.24 472.42 53.37 465.75 49.21 461.66C45.03 457.57 39.4001 455.53 32.3201 455.53C27.4101 455.53 23.5299 456.71 20.6699 459.07C17.7999 461.43 16.3701 464.66 16.3701 468.74C16.3701 472.28 17.49 475.21 19.7 477.52C21.93 479.84 25.54 482.45 30.54 485.35L47.28 495.29C53.64 499.01 58.2 502.62 60.98 506.12C63.75 509.62 65.1299 513.81 65.1299 518.72C65.1299 526.63 62.16 532.83 56.21 537.31C50.26 541.8 41.8399 544.05 30.9399 544.05C25.8599 544.05 20.96 543.39 16.24 542.08H16.23Z" fill="#F7B727"/>
<path d="M93.3201 469.55C93.3201 464.92 92.6799 461.5 91.4099 459.26C90.1399 457.04 87.6 455.93 83.79 455.93H82.4199V451.84H119.88C129.23 451.84 137.7 453.68 145.28 457.36C152.86 461.03 156.65 468.32 156.65 479.21C156.65 486.3 154.68 491.79 150.73 495.7C146.78 499.6 142.35 502.19 137.45 503.46C132.55 504.73 128.05 505.37 123.97 505.37H111.03V541.74H93.3301V469.55H93.3201ZM119.2 499.93C124.55 499.93 128.95 498.3 132.41 495.03C135.86 491.76 137.58 486.26 137.58 478.54C137.58 470.82 135.88 465.46 132.47 462.2C129.07 458.93 124.87 457.3 119.87 457.3C117.23 457.3 114.28 457.62 111.01 458.25V499.94H119.19L119.2 499.93Z" fill="#F7B727"/>
<path d="M182.12 469.55C182.12 464.92 181.48 461.5 180.2 459.26C178.94 457.04 176.39 455.93 172.58 455.93H171.22V451.84H208.68C218.02 451.84 226.49 453.68 234.08 457.36C241.66 461.03 245.45 468.32 245.45 479.21C245.45 486.3 243.48 491.79 239.53 495.7C235.58 499.6 231.15 502.19 226.24 503.46C221.34 504.73 216.85 505.37 212.76 505.37H199.82V541.74H182.12V469.55ZM208 499.93C213.36 499.93 217.76 498.3 221.22 495.03C224.66 491.76 226.38 486.26 226.38 478.54C226.38 470.82 224.68 465.46 221.27 462.2C217.87 458.93 213.67 457.3 208.68 457.3C206.04 457.3 203.09 457.62 199.82 458.25V499.94H208V499.93Z" fill="#F7B727"/>
<path d="M286.65 537.99C279.16 533.68 273.3 527.78 269.07 520.29C264.85 512.79 262.74 504.51 262.74 495.43C262.74 486.35 264.6 478.84 268.33 471.8C272.05 464.77 277.33 459.23 284.19 455.19C291.05 451.15 298.88 449.12 307.69 449.12C315.67 449.12 322.49 450.17 328.12 452.26C333.74 454.35 337.93 456.97 340.65 460.16C342.2 462.16 343.17 464.7 343.58 467.78C343.98 470.88 344.19 474.64 344.19 479.09H340.1C338.38 470.83 335.22 464.79 330.63 460.98C326.05 457.17 319.76 455.26 311.77 455.26C301.59 455.26 294.07 459.07 289.16 466.7C284.26 474.32 281.81 483.91 281.81 495.44C281.81 510.97 284.51 522.12 289.92 528.87C295.32 535.64 302.6 539.02 311.78 539.02C318.86 539.02 324.99 537.84 330.16 535.48V511.24C330.16 506.42 331.98 502.46 335.6 499.32C339.24 496.19 346.23 494.62 356.58 494.62V498.03C350.77 498.03 347.87 502.34 347.87 510.96V535.34C342.69 538.52 337.15 540.83 331.25 542.29C325.34 543.74 318.86 544.47 311.78 544.47C302.51 544.47 294.14 542.31 286.65 538V537.99Z" fill="#232323"/>
<path d="M437.35 538.67C432.71 536.27 428.95 531.57 426.04 524.58L422.91 516.95H386.68L375.51 541.74H368.43L408.61 451.85H414.74L445.24 524.58C448.7 533.03 453.42 537.56 459.41 538.2V541.6C457.78 542.06 455.6 542.28 452.88 542.28C447.16 542.28 441.97 541.08 437.35 538.67ZM420.33 510.82L405.35 475.27L389.56 510.82H420.34H420.33Z" fill="#232323"/>
<path d="M517.97 538.6C513.8 535.6 509.57 530.52 505.3 523.35L491.68 500.6H486.24V541.73H468.4V469.54C468.4 464.91 467.76 461.49 466.5 459.25C465.23 457.03 462.68 455.92 458.86 455.92H457.51V451.83H495.09C504.35 451.83 512.8 453.53 520.43 456.94C528.05 460.34 531.86 466.86 531.86 476.48C531.86 483.1 529.84 488.17 525.8 491.67C521.76 495.17 516.43 497.78 509.8 499.5L524.1 523.34C529.45 532.32 535.09 537.32 540.99 538.32V541.73C540.26 542.09 538.95 542.41 537.04 542.68C535.13 542.96 533.32 543.09 531.59 543.09C526.69 543.09 522.16 541.59 517.97 538.6ZM494.42 495.16C499.5 495.16 503.84 493.64 507.42 490.59C511 487.55 512.8 482.76 512.8 476.22C512.8 469.68 511.03 464.9 507.49 461.86C503.95 458.82 499.68 457.29 494.69 457.29C492.32 457.29 489.51 457.61 486.24 458.24V495.16H494.41H494.42Z" fill="#232323"/>
<path d="M552.3 469.55C552.3 464.92 551.66 461.5 550.39 459.26C549.12 457.04 546.58 455.93 542.76 455.93H541.39V451.84H578.44C596.78 451.84 610.74 455.72 620.32 463.49C629.9 471.24 634.68 482.17 634.68 496.24C634.68 505.23 632.67 513.15 628.63 520.01C624.58 526.87 618.6 532.2 610.64 536.02C602.7 539.83 593.15 541.74 581.98 541.74H552.29V469.55H552.3ZM598.54 531.52C603.49 528.34 607.35 523.75 610.12 517.76C612.89 511.76 614.27 504.77 614.27 496.79C614.27 488.81 612.89 481.97 610.12 476.01C607.35 470.06 603.46 465.46 598.47 462.19C593.47 458.92 587.75 457.29 581.3 457.29C577.95 457.29 574.17 457.61 570 458.24V535.33C572.36 535.79 574.17 536.05 575.45 536.15C576.72 536.24 577.95 536.29 579.13 536.29H581.58C587.94 536.29 593.59 534.7 598.54 531.52Z" fill="#232323"/>
<path d="M651.73 469.55C651.73 464.92 651.09 461.5 649.82 459.26C648.55 457.04 646.01 455.93 642.19 455.93H640.83V451.84H700.89C708.61 451.84 712.47 455.47 712.47 462.73V474.3H708.38C708.38 468.68 706.96 464.55 704.1 461.92C701.23 459.28 696.99 457.96 691.36 457.96H669.43V492.02H704.84V498.15H669.43V535.6H692.72C697.9 535.6 702.2 534.45 705.66 532.13C709.11 529.82 711.96 525.8 714.23 520.08L717.91 521.44L713.96 532.2C712.78 535.47 711.37 537.87 709.74 539.42C708.11 540.96 705.56 541.74 702.12 541.74H651.73V469.55Z" fill="#232323"/>
<path d="M740.65 474.31V541.74H733.85V468.18C733.85 464.37 732.92 461.38 731.06 459.2C729.2 457.02 726.04 455.93 721.59 455.93H720.91V451.84H730.45C735.53 451.84 739.68 452.5 742.91 453.81C746.14 455.12 748.84 457.19 751.01 460.01L797.87 514.49V451.84H804.67V542.13H798.41L740.65 474.3V474.31Z" fill="#232323"/>
<path d="M837.22 542.08C832.5 540.76 828.64 538.86 825.65 536.36C822.65 533.86 821.16 530.98 821.16 527.72V511.78H824.97C826.33 521.04 829.2 527.72 833.55 531.8C837.91 535.89 843.99 537.94 851.8 537.94C857.06 537.94 861.24 536.8 864.33 534.53C867.42 532.26 868.97 528.99 868.97 524.72C868.97 521.09 867.83 518 865.56 515.46C863.3 512.92 859.75 510.15 854.94 507.15L838.18 497.07C832.09 493.53 827.76 489.86 825.18 486.04C822.59 482.23 821.3 477.78 821.3 472.69C821.3 465.52 824.04 459.85 829.54 455.67C835.03 451.5 842.45 449.41 851.81 449.41C856.89 449.41 861.79 450.06 866.51 451.38C871.24 452.7 875.1 454.6 878.09 457.1C881.08 459.6 882.58 462.48 882.58 465.75V481.68H878.77C877.22 472.42 874.36 465.75 870.18 461.66C866.01 457.57 860.37 455.53 853.29 455.53C848.39 455.53 844.51 456.71 841.64 459.07C838.78 461.43 837.35 464.66 837.35 468.74C837.35 472.28 838.47 475.21 840.69 477.52C842.91 479.84 846.53 482.45 851.52 485.35L868.27 495.29C874.63 499.01 879.19 502.62 881.95 506.12C884.72 509.62 886.11 513.81 886.11 518.72C886.11 526.63 883.14 532.83 877.19 537.31C871.25 541.8 862.82 544.05 851.93 544.05C846.85 544.05 841.94 543.39 837.22 542.08Z" fill="#232323"/>
<path d="M540.79 314.36C519.08 329.63 495.02 337.55 473.09 337.34C473.85 336.93 474.61 336.5 475.38 336.04C476.13 335.61 476.9 335.15 477.64 334.7C478.53 334.17 479.42 333.58 480.29 333.01C480.78 332.7 481.25 332.37 481.73 332.06C482.59 331.47 483.46 330.86 484.33 330.24C485.28 329.53 486.25 328.83 487.19 328.09C487.41 327.9 487.65 327.74 487.87 327.56C488.83 326.8 489.79 326.04 490.73 325.23C491.78 324.34 492.82 323.44 493.85 322.51C494.59 321.86 495.32 321.18 496 320.5C496.3 320.23 496.59 319.95 496.89 319.67C498.01 318.59 499.08 317.52 500.13 316.41C501.03 315.48 501.89 314.55 502.75 313.6C503.39 312.91 504.03 312.19 504.63 311.47C505.27 310.74 505.89 310.02 506.48 309.27C507.08 308.58 507.64 307.86 508.22 307.11C508.27 307.08 508.3 307.03 508.33 306.99C509.27 305.76 510.22 304.53 511.15 303.27C511.94 302.19 512.72 301.12 513.49 300.01C513.71 299.68 513.91 299.37 514.14 299.04C515 297.76 515.85 296.46 516.67 295.17C516.69 295.15 516.69 295.12 516.73 295.08C517.6 293.73 518.44 292.32 519.25 290.92C519.7 290.19 520.13 289.43 520.56 288.63C520.99 287.87 521.41 287.09 521.84 286.3C523.1 283.98 524.32 281.58 525.45 279.14C525.45 279.14 525.47 279.14 525.47 279.12L617.48 195C616.57 198.32 615.61 201.58 614.6 204.72C614.26 205.78 613.94 206.8 613.59 207.86C613.26 208.89 612.92 209.93 612.56 210.93C612.23 211.94 611.88 212.96 611.51 213.95C611.16 214.96 610.78 215.96 610.43 216.94C610.06 217.94 609.7 218.9 609.34 219.87C608.45 222.24 607.52 224.58 606.57 226.83C606.16 227.87 605.73 228.87 605.3 229.89C604.14 232.66 602.95 235.34 601.71 237.94C601.3 238.81 600.88 239.69 600.48 240.56C599.69 242.19 598.89 243.77 598.09 245.35C597.54 246.4 597.01 247.42 596.48 248.45C592.33 256.28 588 263.38 583.63 269.77C583.06 270.61 582.48 271.46 581.9 272.26C581.84 272.37 581.77 272.43 581.71 272.51C581.11 273.39 580.5 274.25 579.87 275.09C579.63 275.42 579.41 275.75 579.19 276.05C578.46 277.02 577.73 277.95 577.04 278.89C575.47 280.92 573.92 282.87 572.38 284.73C571.77 285.47 571.16 286.18 570.55 286.91C566.82 291.27 563.12 295.17 559.57 298.63C558.8 299.38 558.01 300.15 557.23 300.88C555.6 302.42 553.99 303.84 552.44 305.21C551.65 305.86 550.9 306.53 550.15 307.16C548.26 308.73 546.43 310.15 544.73 311.48C544.08 311.97 543.46 312.44 542.84 312.89C542.13 313.38 541.43 313.88 540.78 314.36H540.79Z" fill="#F7B727"/>
<path d="M751.79 206.78C668.2 352.35 574.7 371.64 537.83 373.09C509.75 374.17 483.97 366.92 465.37 353.43C468.17 353.67 470.99 353.8 473.86 353.8C498.99 353.8 526.04 344.9 550.28 327.85C581.8 305.67 607.26 271.16 623.93 228.09C628.4 216.51 632.26 204.36 635.46 191.69C671.32 191.18 710.39 196.28 751.78 206.78H751.79Z" fill="#F7B727"/>
<path d="M751.79 206.78C668.2 352.35 574.7 371.64 537.83 373.09C509.75 374.17 483.97 366.92 465.37 353.43C468.17 353.67 470.99 353.8 473.86 353.8C498.99 353.8 526.04 344.9 550.28 327.85C581.8 305.67 607.26 271.16 623.93 228.09C628.4 216.51 632.26 204.36 635.46 191.69C671.32 191.18 710.39 196.28 751.78 206.78H751.79Z" fill="#F7B727"/>
<path d="M614.61 204.73C615.6 201.56 616.57 198.33 617.49 195.01C616.58 198.33 615.62 201.59 614.61 204.73Z" fill="#F7B727"/>
<path d="M617.49 195.01C617.74 194.1 618 193.17 618.26 192.24C618.02 193.17 617.78 194.07 617.51 194.98C617.51 195 617.49 195 617.49 195V195.01Z" fill="#F7B727"/>
<path d="M630.24 114.2C630.11 116.3 629.99 118.4 629.85 120.49C629.74 122.22 629.6 123.92 629.48 125.64C629.09 130.43 628.63 135.1 628.11 139.67C627.93 141.3 627.74 142.92 627.53 144.51C626.61 151.88 625.5 159 624.24 165.8C624.08 166.7 623.91 167.59 623.75 168.5C623.69 168.82 623.63 169.14 623.56 169.45C623.26 171.03 622.92 172.6 622.6 174.15C622.14 176.44 621.65 178.67 621.11 180.86C620.88 181.84 620.65 182.8 620.43 183.78C619.97 185.74 619.5 187.65 618.98 189.55C618.74 190.47 618.51 191.37 618.26 192.25C618.02 193.18 617.78 194.08 617.51 194.99C617.51 195.01 617.49 195.01 617.49 195.01C616.58 198.33 615.62 201.59 614.61 204.73C614.27 205.79 613.95 206.81 613.6 207.87C613.27 208.9 612.93 209.94 612.57 210.94C612.24 211.95 611.89 212.97 611.52 213.96C611.17 214.97 610.79 215.97 610.44 216.95C610.07 217.95 609.71 218.91 609.35 219.88C608.46 222.25 607.53 224.59 606.58 226.84C606.17 227.88 605.74 228.88 605.31 229.9C604.15 232.67 602.96 235.35 601.72 237.95C601.31 238.82 600.89 239.7 600.49 240.57C599.7 242.2 598.9 243.78 598.1 245.36C597.55 246.41 597.02 247.43 596.49 248.46C592.34 256.29 588.01 263.39 583.64 269.78C583.07 270.62 582.49 271.47 581.91 272.27C581.85 272.38 581.78 272.44 581.72 272.52C581.12 273.4 580.51 274.26 579.88 275.1C579.64 275.43 579.42 275.76 579.2 276.06C578.47 277.03 577.74 277.96 577.05 278.9C575.48 280.93 573.93 282.88 572.39 284.74C571.78 285.48 571.17 286.19 570.56 286.92C566.83 291.28 563.13 295.18 559.58 298.64C558.81 299.39 558.02 300.16 557.24 300.89C555.61 302.43 554 303.85 552.45 305.22C551.66 305.87 550.91 306.54 550.16 307.17C548.27 308.74 546.44 310.16 544.74 311.49C544.09 311.98 543.47 312.45 542.85 312.9C542.14 313.39 541.44 313.89 540.79 314.37C519.08 329.64 495.02 337.56 473.09 337.35C473.85 336.94 474.61 336.51 475.38 336.05C476.13 335.62 476.9 335.16 477.64 334.71C478.53 334.18 479.42 333.59 480.29 333.02C480.78 332.71 481.25 332.38 481.73 332.07C482.59 331.48 483.46 330.87 484.33 330.25C485.28 329.54 486.25 328.84 487.19 328.1C487.41 327.91 487.65 327.75 487.87 327.57C488.83 326.81 489.79 326.05 490.73 325.24C491.78 324.35 492.82 323.45 493.85 322.52C494.59 321.87 495.32 321.19 496 320.51C496.3 320.24 496.59 319.96 496.89 319.68C498.01 318.6 499.08 317.53 500.13 316.42C501.03 315.49 501.89 314.56 502.75 313.61C503.39 312.92 504.03 312.2 504.63 311.48C505.27 310.75 505.89 310.03 506.48 309.28C507.08 308.59 507.64 307.87 508.22 307.12C508.27 307.09 508.3 307.04 508.33 307C509.27 305.77 510.22 304.54 511.15 303.28C511.94 302.2 512.72 301.13 513.49 300.02C513.71 299.69 513.91 299.38 514.14 299.05C515 297.77 515.85 296.47 516.67 295.18C516.69 295.16 516.69 295.13 516.73 295.09C517.6 293.74 518.44 292.33 519.25 290.93C519.7 290.2 520.13 289.44 520.56 288.64C520.99 287.88 521.41 287.1 521.84 286.31C523.1 283.99 524.32 281.59 525.45 279.15C525.45 279.15 525.47 279.15 525.47 279.13C527.22 275.42 528.83 271.61 530.32 267.69C543.93 231.61 545.62 188.78 535.21 143.75C532.53 132.14 529.07 120.44 524.82 108.65C554.58 88.9 589.94 72.08 630.14 58.55C631.19 78.48 631.15 97.01 630.23 114.2H630.24Z" fill="#F7B727"/>
<path d="M514.89 261.87C504.81 288.59 487.7 309.75 467.61 321.5C480.3 296.67 483.47 264.55 475.64 231.99C466.64 194.52 443.95 158.14 410.05 126.78C402 119.34 393.36 112.2 384.17 105.4C397.71 70.86 418.16 35.5 445.09 0C546.59 133.69 527.91 227.34 514.88 261.86L514.89 261.87Z" fill="#F7B727"/>
<path d="M454.57 310.68C452.18 289.34 442.72 267.5 426.97 247.91C406.42 222.29 358.4 180.3 262.65 175.57C255.18 140.5 252.51 101.24 254.76 58.55C413.81 112.08 450.98 200.01 459.62 235.86C466.17 263.13 464.13 289.82 454.56 310.68H454.57Z" fill="#F7B727"/>
<path d="M437.34 335.25C421.01 358.91 389.57 372.74 352.81 372.74H352.79C315.04 372.74 219.18 356.51 133.12 206.57C172.68 196.52 210.18 191.48 244.71 191.48C345.59 191.48 394.16 233.24 414.12 258.13C433.54 282.28 442.16 310.91 437.35 335.25H437.34Z" fill="#F7B727"/>
</svg>
