<svg viewBox="0 0 1280 1280" fill="none" xmlns="http://www.w3.org/2000/svg">
<rect width="1280" height="1280" rx="160" fill="#DCC492"/>
<g clip-path="url(#clip0_25_66)">
<path d="M716.552 743.216C693.763 758.409 667.292 766.44 640 766.44C612.71 766.44 586.239 758.409 563.45 743.216L188.099 492.974C186.016 491.586 183.988 490.139 182 488.65V898.698C182 945.711 220.152 983.022 266.324 983.022H1013.67C1060.69 983.022 1098 944.87 1098 898.698V488.648C1096.01 490.141 1093.97 491.591 1091.89 492.982L716.552 743.216Z" fill="#232323"/>
<path d="M217.871 448.317L593.221 698.56C607.43 708.033 623.714 712.769 639.998 712.769C656.284 712.769 672.57 708.032 686.779 698.56L1062.13 448.317C1084.59 433.351 1098 408.305 1098 381.272C1098 334.79 1060.18 296.977 1013.7 296.977H266.295C219.815 296.978 182 334.792 182 381.317C182 408.305 195.411 433.351 217.871 448.317Z" fill="#232323"/>
</g>
<defs>
<clipPath id="clip0_25_66">
<rect width="916" height="916" fill="white" transform="translate(182 182)"/>
</clipPath>
</defs>
</svg>
