<svg viewBox="0 0 1280 1280" fill="none" xmlns="http://www.w3.org/2000/svg">
<rect width="1280" height="1280" rx="160" fill="#DCC492"/>
<path d="M984.204 768.236C934 768.236 884.706 760.384 837.994 744.947C815.104 737.14 786.966 744.302 772.996 758.65L680.795 828.252C573.868 771.174 508.003 705.331 451.705 599.207L519.259 509.409C536.81 491.881 543.105 466.277 535.563 442.254C520.06 395.296 512.185 346.026 512.185 295.801C512.187 259.518 482.669 230 446.388 230H295.799C259.518 230 230 259.518 230 295.799C230 711.671 568.331 1050 984.204 1050C1020.48 1050 1050 1020.48 1050 984.201V834.033C1050 797.754 1020.48 768.236 984.204 768.236Z" fill="#232323"/>
</svg>
